Sligoil-Micro.ufo
<glyph name="exclam" format="2">
	<advance width="600"/>
	<unicode hex="0021"/>
	<outline>
		<contour>
			<point x="265" y="195" type="line"/>
			<point x="335" y="195" type="line"/>
			<point x="355" y="555" type="line"/>
			<point x="355" y="720" type="line"/>
			<point x="245" y="720" type="line"/>
			<point x="245" y="555" type="line"/>
		</contour>
		<component base="period" xScale="0.8333" yScale="0.8333" xOffset="50"/>
	</outline>
</glyph>
<glyph name="quotedbl" format="2">
	<advance width="600"/>
	<unicode hex="0022"/>
	<outline>
		<contour>
			<point x="335" y="370" type="line"/>
			<point x="415" y="370" type="line"/>
			<point x="470" y="700" type="line"/>
			<point x="335" y="700" type="line"/>
		</contour>
		<contour>
			<point x="135" y="370" type="line"/>
			<point x="215" y="370" type="line"/>
			<point x="270" y="700" type="line"/>
			<point x="135" y="700" type="line"/>
		</contour>
	</outline>
</glyph>
<glyph name="numbersign" format="2">
	<advance width="600"/>
	<unicode hex="0023"/>
	<guideline x="141" y="605" angle="0"/>
	<guideline x="116" y="315" angle="0"/>
	<guideline x="74" y="55" angle="0"/>
	<guideline x="534" y="700" angle="90"/>
	<outline>
		<contour>
			<point x="296" y="0" type="line"/>
			<point x="385" y="0" type="line"/>
			<point x="397" y="55" type="line"/>
			<point x="417" y="160" type="line"/>
			<point x="434" y="241" type="line"/>
			<point x="454" y="335" type="line"/>
			<point x="489" y="500" type="line"/>
			<point x="514" y="605" type="line"/>
			<point x="534" y="700" type="line"/>
			<point x="445" y="700" type="line"/>
			<point x="425" y="605" type="line"/>
			<point x="407" y="500" type="line"/>
			<point x="372" y="335" type="line"/>
			<point x="352" y="240" type="line"/>
			<point x="335" y="160" type="line"/>
			<point x="308" y="55" type="line"/>
		</contour>
		<contour>
			<point x="50" y="160" type="line"/>
			<point x="500" y="160" type="line"/>
			<point x="500" y="240" type="line"/>
			<point x="50" y="240" type="line"/>
		</contour>
		<contour>
			<point x="70" y="0" type="line"/>
			<point x="159" y="0" type="line"/>
			<point x="171" y="55" type="line"/>
			<point x="191" y="160" type="line"/>
			<point x="208" y="241" type="line"/>
			<point x="228" y="335" type="line"/>
			<point x="263" y="500" type="line"/>
			<point x="288" y="605" type="line"/>
			<point x="308" y="700" type="line"/>
			<point x="219" y="700" type="line"/>
			<point x="199" y="605" type="line"/>
			<point x="181" y="500" type="line"/>
			<point x="146" y="335" type="line"/>
			<point x="126" y="240" type="line"/>
			<point x="109" y="160" type="line"/>
			<point x="82" y="55" type="line"/>
		</contour>
		<contour>
			<point x="95" y="420" type="line"/>
			<point x="550" y="420" type="line"/>
			<point x="550" y="500" type="line"/>
			<point x="95" y="500" type="line"/>
		</contour>
	</outline>
</glyph>
<glyph name="dollar" format="2">
	<advance width="600"/>
	<unicode hex="0024"/>
	<outline>
		<contour>
			<point x="264" y="-93" type="line"/>
			<point x="334" y="-93" type="line"/>
			<point x="334" y="-55" type="line"/>
			<point x="328" y="0" type="line"/>
			<point x="328" y="70" type="line"/>
			<point x="334" y="125" type="line"/>
			<point x="334" y="265" type="line"/>
			<point x="328" y="320" type="line"/>
			<point x="328" y="396" type="line"/>
			<point x="334" y="451" type="line"/>
			<point x="334" y="584" type="line"/>
			<point x="328" y="639" type="line"/>
			<point x="328" y="707" type="line"/>
			<point x="334" y="762" type="line"/>
			<point x="334" y="800" type="line"/>
			<point x="264" y="800" type="line"/>
			<point x="264" y="762" type="line"/>
			<point x="270" y="707" type="line"/>
			<point x="270" y="639" type="line"/>
			<point x="264" y="584" type="line"/>
			<point x="264" y="451" type="line"/>
			<point x="270" y="396" type="line"/>
			<point x="270" y="320" type="line"/>
			<point x="264" y="265" type="line"/>
			<point x="264" y="125" type="line"/>
			<point x="270" y="70" type="line"/>
			<point x="270" y="0" type="line"/>
			<point x="264" y="-55" type="line"/>
		</contour>
		<component base="S"/>
	</outline>
</glyph>
<glyph name="percent" format="2">
	<advance width="600"/>
	<unicode hex="0025"/>
	<guideline x="293" y="446" angle="0"/>
	<outline>
		<contour>
			<point x="35" y="0" type="line"/>
			<point x="139" y="0" type="line"/>
			<point x="565" y="700" type="line"/>
			<point x="461" y="700" type="line"/>
		</contour>
		<contour>
			<point x="446" y="-10" type="curve"/>
			<point x="446" y="45" type="line"/>
			<point x="415" y="45"/>
			<point x="392" y="70"/>
			<point x="392" y="122" type="curve"/>
			<point x="322" y="122" type="line"/>
			<point x="322" y="26"/>
			<point x="393" y="-10"/>
		</contour>
		<contour>
			<point x="446" y="45" type="curve"/>
			<point x="446" y="-10" type="line"/>
			<point x="499" y="-10"/>
			<point x="570" y="26"/>
			<point x="570" y="122" type="curve"/>
			<point x="500" y="122" type="line"/>
			<point x="500" y="70"/>
			<point x="477" y="45"/>
		</contour>
		<contour>
			<point x="322" y="122" type="curve"/>
			<point x="392" y="122" type="line"/>
			<point x="392" y="174"/>
			<point x="415" y="199"/>
			<point x="446" y="199" type="curve"/>
			<point x="446" y="254" type="line"/>
			<point x="393" y="254"/>
			<point x="322" y="218"/>
		</contour>
		<contour>
			<point x="154" y="446" type="curve"/>
			<point x="154" y="501" type="line"/>
			<point x="123" y="501"/>
			<point x="100" y="526"/>
			<point x="100" y="578" type="curve"/>
			<point x="30" y="578" type="line"/>
			<point x="30" y="482"/>
			<point x="101" y="446"/>
		</contour>
		<contour>
			<point x="500" y="122" type="curve"/>
			<point x="570" y="122" type="line"/>
			<point x="570" y="218"/>
			<point x="499" y="254"/>
			<point x="446" y="254" type="curve"/>
			<point x="446" y="199" type="line"/>
			<point x="477" y="199"/>
			<point x="500" y="174"/>
		</contour>
		<contour>
			<point x="154" y="501" type="curve"/>
			<point x="154" y="446" type="line"/>
			<point x="207" y="446"/>
			<point x="278" y="482"/>
			<point x="278" y="578" type="curve"/>
			<point x="208" y="578" type="line"/>
			<point x="208" y="526"/>
			<point x="185" y="501"/>
		</contour>
		<contour>
			<point x="30" y="578" type="curve"/>
			<point x="100" y="578" type="line"/>
			<point x="100" y="630"/>
			<point x="123" y="655"/>
			<point x="154" y="655" type="curve"/>
			<point x="154" y="710" type="line"/>
			<point x="101" y="710"/>
			<point x="30" y="674"/>
		</contour>
		<contour>
			<point x="208" y="578" type="curve"/>
			<point x="278" y="578" type="line"/>
			<point x="278" y="674"/>
			<point x="207" y="710"/>
			<point x="154" y="710" type="curve"/>
			<point x="154" y="655" type="line"/>
			<point x="185" y="655"/>
			<point x="208" y="630"/>
		</contour>
	</outline>
</glyph>
<glyph name="ampersand" format="2">
	<advance width="600"/>
	<unicode hex="0026"/>
	<guideline x="466" y="373" angle="90"/>
	<outline>
		<contour>
			<point x="265" y="251" type="curve" smooth="yes"/>
			<point x="480" y="0" type="line"/>
			<point x="595" y="0" type="line"/>
			<point x="466" y="141" type="line"/>
			<point x="440" y="156" type="line"/>
			<point x="413" y="198" type="line"/>
			<point x="235" y="392" type="line" smooth="yes"/>
			<point x="197" y="433"/>
			<point x="170" y="479"/>
			<point x="170" y="540" type="curve" smooth="yes"/>
			<point x="170" y="599"/>
			<point x="214" y="640"/>
			<point x="270" y="640" type="curve"/>
			<point x="270" y="710" type="line"/>
			<point x="163" y="710"/>
			<point x="80" y="641"/>
			<point x="80" y="540" type="curve" smooth="yes"/>
			<point x="80" y="454"/>
			<point x="140" y="400"/>
			<point x="211" y="357" type="curve"/>
			<point x="191" y="335" type="line"/>
			<point x="176" y="342"/>
			<point x="160" y="346"/>
			<point x="144" y="346" type="curve" smooth="yes"/>
			<point x="67" y="346"/>
			<point x="15" y="275"/>
			<point x="15" y="186" type="curve"/>
			<point x="105" y="186" type="line"/>
			<point x="106" y="286"/>
			<point x="201" y="326"/>
		</contour>
		<contour>
			<point x="217" y="-10" type="curve" smooth="yes"/>
			<point x="382" y="-10"/>
			<point x="546" y="117"/>
			<point x="546" y="350" type="curve"/>
			<point x="456" y="350" type="line"/>
			<point x="461" y="180" type="line"/>
			<point x="424" y="138" type="line" smooth="yes"/>
			<point x="388" y="97"/>
			<point x="306" y="64"/>
			<point x="227" y="64" type="curve" smooth="yes"/>
			<point x="157" y="64"/>
			<point x="105" y="113"/>
			<point x="105" y="186" type="curve"/>
			<point x="15" y="186" type="line"/>
			<point x="15" y="90"/>
			<point x="70" y="-10"/>
		</contour>
		<contour>
			<point x="225" y="365" type="curve"/>
			<point x="260" y="319" type="line"/>
			<point x="358" y="364"/>
			<point x="460" y="428"/>
			<point x="460" y="540" type="curve" smooth="yes"/>
			<point x="460" y="639"/>
			<point x="380" y="710"/>
			<point x="270" y="710" type="curve"/>
			<point x="270" y="640" type="line"/>
			<point x="326" y="640"/>
			<point x="370" y="599"/>
			<point x="370" y="540" type="curve" smooth="yes"/>
			<point x="370" y="465"/>
			<point x="318" y="404"/>
		</contour>
	</outline>
</glyph>
<glyph name="quotesingle" format="2">
	<advance width="600"/>
	<unicode hex="0027"/>
	<outline>
		<contour>
			<point x="230" y="370" type="line"/>
			<point x="310" y="370" type="line"/>
			<point x="365" y="700" type="line"/>
			<point x="230" y="700" type="line"/>
		</contour>
	</outline>
</glyph>
<glyph name="parenleft" format="2">
	<advance width="600"/>
	<unicode hex="0028"/>
	<outline>
		<contour>
			<point x="152" y="350" type="curve"/>
			<point x="244" y="350" type="line"/>
			<point x="244" y="472"/>
			<point x="316" y="596"/>
			<point x="424" y="662" type="curve"/>
			<point x="395" y="720" type="line"/>
			<point x="249" y="652"/>
			<point x="152" y="505"/>
		</contour>
		<contour>
			<point x="395" y="-20" type="curve"/>
			<point x="424" y="38" type="line"/>
			<point x="316" y="104"/>
			<point x="244" y="228"/>
			<point x="244" y="350" type="curve"/>
			<point x="152" y="350" type="line"/>
			<point x="152" y="195"/>
			<point x="249" y="48"/>
		</contour>
	</outline>
</glyph>
<glyph name="asterisk" format="2">
	<advance width="600"/>
	<unicode hex="002A"/>
	<outline>
		<contour>
			<point x="198" y="337" type="line"/>
			<point x="251" y="410" type="line"/>
			<point x="285" y="498" type="line"/>
			<point x="315" y="498" type="line"/>
			<point x="349" y="410" type="line"/>
			<point x="402" y="337" type="line"/>
			<point x="475" y="390" type="line"/>
			<point x="422" y="463" type="line"/>
			<point x="343" y="521" type="line"/>
			<point x="355" y="549" type="line"/>
			<point x="452" y="557" type="line"/>
			<point x="538" y="585" type="line"/>
			<point x="510" y="670" type="line"/>
			<point x="424" y="642" type="line"/>
			<point x="342" y="585" type="line"/>
			<point x="318" y="604" type="line"/>
			<point x="345" y="700" type="line"/>
			<point x="345" y="800" type="line"/>
			<point x="255" y="800" type="line"/>
			<point x="255" y="700" type="line"/>
			<point x="282" y="604" type="line"/>
			<point x="258" y="585" type="line"/>
			<point x="176" y="642" type="line"/>
			<point x="90" y="670" type="line"/>
			<point x="62" y="585" type="line"/>
			<point x="148" y="557" type="line"/>
			<point x="245" y="549" type="line"/>
			<point x="257" y="521" type="line"/>
			<point x="178" y="463" type="line"/>
			<point x="125" y="390" type="line"/>
		</contour>
	</outline>
</glyph>
<glyph name="plus" format="2">
	<advance width="600"/>
	<unicode hex="002B"/>
	<outline>
		<contour>
			<point x="265" y="120" type="line"/>
			<point x="335" y="120" type="line"/>
			<point x="335" y="210" type="line"/>
			<point x="329" y="265" type="line"/>
			<point x="329" y="335" type="line"/>
			<point x="335" y="390" type="line"/>
			<point x="335" y="480" type="line"/>
			<point x="265" y="480" type="line"/>
			<point x="265" y="390" type="line"/>
			<point x="271" y="335" type="line"/>
			<point x="271" y="265" type="line"/>
			<point x="265" y="210" type="line"/>
		</contour>
		<contour>
			<point x="120" y="265" type="line"/>
			<point x="480" y="265" type="line"/>
			<point x="480" y="335" type="line"/>
			<point x="120" y="335" type="line"/>
		</contour>
	</outline>
</glyph>
<glyph name="zero" format="2">
	<advance width="600"/>
	<unicode hex="0030"/>
	<outline>
		<contour>
			<point x="480" y="202" type="line"/>
			<point x="480" y="283" type="line"/>
			<point x="136" y="498" type="line"/>
			<point x="136" y="417" type="line"/>
		</contour>
		<contour>
			<point x="300" y="-10" type="curve"/>
			<point x="300" y="65" type="line"/>
			<point x="205" y="65"/>
			<point x="162" y="145"/>
			<point x="162" y="350" type="curve"/>
			<point x="70" y="350" type="line"/>
			<point x="70" y="85"/>
			<point x="156" y="-10"/>
		</contour>
		<contour>
			<point x="300" y="65" type="curve"/>
			<point x="300" y="-10" type="line"/>
			<point x="444" y="-10"/>
			<point x="530" y="85"/>
			<point x="530" y="350" type="curve"/>
			<point x="438" y="350" type="line"/>
			<point x="438" y="145"/>
			<point x="395" y="65"/>
		</contour>
		<contour>
			<point x="70" y="350" type="curve"/>
			<point x="162" y="350" type="line"/>
			<point x="162" y="565"/>
			<point x="205" y="640"/>
			<point x="300" y="640" type="curve"/>
			<point x="300" y="710" type="line"/>
			<point x="156" y="710"/>
			<point x="70" y="615"/>
		</contour>
		<contour>
			<point x="438" y="350" type="curve"/>
			<point x="530" y="350" type="line"/>
			<point x="530" y="615"/>
			<point x="444" y="710"/>
			<point x="300" y="710" type="curve"/>
			<point x="300" y="640" type="line"/>
			<point x="395" y="640"/>
			<point x="438" y="565"/>
		</contour>
	</outline>
</glyph>
<glyph name="one" format="2">
	<advance width="600"/>
	<unicode hex="0031"/>
	<guideline x="355"/>
	<outline>
		<contour>
			<point x="265" y="0" type="line"/>
			<point x="355" y="0" type="line"/>
			<point x="355" y="700" type="line"/>
			<point x="229" y="700" type="line"/>
			<point x="60" y="450" type="line"/>
			<point x="142" y="401" type="line"/>
			<point x="259" y="630" type="line"/>
			<point x="289" y="630" type="line"/>
			<point x="265" y="268" type="line"/>
		</contour>
		<contour>
			<point x="70" y="0" type="line"/>
			<point x="540" y="0" type="line"/>
			<point x="540" y="75" type="line"/>
			<point x="70" y="75" type="line"/>
		</contour>
	</outline>
</glyph>
<glyph name="two" format="2">
	<advance width="600"/>
	<unicode hex="0032"/>
	<guideline x="1095" y="718" angle="0"/>
	<guideline x="92" y="500" angle="90"/>
	<outline>
		<contour>
			<point x="92" y="75" type="curve"/>
			<point x="182" y="75" type="line"/>
			<point x="182" y="157"/>
			<point x="210" y="197"/>
			<point x="328" y="269" type="curve" smooth="yes"/>
			<point x="462" y="351"/>
			<point x="520" y="423"/>
			<point x="520" y="514" type="curve" smooth="yes"/>
			<point x="520" y="631"/>
			<point x="430" y="710"/>
			<point x="295" y="710" type="curve" smooth="yes"/>
			<point x="195" y="710"/>
			<point x="75" y="667"/>
			<point x="80" y="500" type="curve"/>
			<point x="172" y="500" type="line"/>
			<point x="168" y="584"/>
			<point x="208" y="640"/>
			<point x="295" y="640" type="curve" smooth="yes"/>
			<point x="380" y="640"/>
			<point x="430" y="587"/>
			<point x="430" y="520" type="curve" smooth="yes"/>
			<point x="430" y="435"/>
			<point x="351" y="388"/>
			<point x="273" y="340" type="curve" smooth="yes"/>
			<point x="128" y="252"/>
			<point x="92" y="178"/>
		</contour>
		<contour>
			<point x="92" y="0" type="line"/>
			<point x="510" y="0" type="line"/>
			<point x="510" y="75" type="line"/>
			<point x="92" y="75" type="line"/>
		</contour>
	</outline>
</glyph>
<glyph name="three" format="2">
	<advance width="600"/>
	<unicode hex="0033"/>
	<guideline x="525"/>
	<guideline x="75" y="200" angle="90"/>
	<guideline x="275" y="208" angle="0"/>
	<guideline x="492" y="72" angle="90"/>
	<guideline x="500" y="-10" angle="0"/>
	<outline>
		<contour>
			<point x="290" y="65" type="curve"/>
			<point x="290" y="-10" type="line"/>
			<point x="426" y="-10"/>
			<point x="517" y="70"/>
			<point x="517" y="191" type="curve" smooth="yes"/>
			<point x="517" y="274"/>
			<point x="485" y="355"/>
			<point x="382" y="355" type="curve"/>
			<point x="382" y="385" type="line"/>
			<point x="452" y="385"/>
			<point x="500" y="444"/>
			<point x="500" y="536" type="curve" smooth="yes"/>
			<point x="500" y="647"/>
			<point x="429" y="710"/>
			<point x="290" y="710" type="curve"/>
			<point x="290" y="640" type="line"/>
			<point x="361" y="640"/>
			<point x="410" y="598"/>
			<point x="410" y="535" type="curve" smooth="yes"/>
			<point x="410" y="461"/>
			<point x="370" y="405"/>
			<point x="290" y="405" type="curve" smooth="yes"/>
			<point x="242" y="405" type="line"/>
			<point x="242" y="335" type="line"/>
			<point x="290" y="335" type="line" smooth="yes"/>
			<point x="400" y="335"/>
			<point x="425" y="265"/>
			<point x="425" y="191" type="curve" smooth="yes"/>
			<point x="425" y="132"/>
			<point x="391" y="64"/>
		</contour>
		<contour>
			<point x="186" y="-610" type="move"/>
		</contour>
		<contour>
			<point x="290" y="-10" type="curve"/>
			<point x="290" y="65" type="line"/>
			<point x="216" y="65"/>
			<point x="167" y="119"/>
			<point x="167" y="208" type="curve"/>
			<point x="75" y="208" type="line"/>
			<point x="75" y="77"/>
			<point x="161" y="-10"/>
		</contour>
		<contour>
			<point x="85" y="500" type="curve"/>
			<point x="177" y="500" type="line"/>
			<point x="177" y="590"/>
			<point x="215" y="640"/>
			<point x="290" y="640" type="curve"/>
			<point x="290" y="710" type="line"/>
			<point x="156" y="710"/>
			<point x="85" y="634"/>
		</contour>
	</outline>
</glyph>
<glyph name="four" format="2">
	<advance width="600"/>
	<unicode hex="0034"/>
	<outline>
		<contour>
			<point x="370" y="0" type="line"/>
			<point x="460" y="0" type="line"/>
			<point x="460" y="700" type="line"/>
			<point x="325" y="700" type="line"/>
			<point x="70" y="238" type="line"/>
			<point x="165" y="238" type="line"/>
			<point x="364" y="630" type="line"/>
			<point x="394" y="630" type="line"/>
			<point x="370" y="268" type="line"/>
		</contour>
		<contour>
			<point x="70" y="168" type="line"/>
			<point x="520" y="168" type="line"/>
			<point x="520" y="238" type="line"/>
			<point x="70" y="238" type="line"/>
		</contour>
	</outline>
</glyph>
<glyph name="five" format="2">
	<advance width="600"/>
	<unicode hex="0035"/>
	<guideline x="172" y="208" angle="90"/>
	<guideline x="424" y="482" angle="0"/>
	<guideline x="588" y="400" angle="0"/>
	<guideline x="90" y="-10" angle="0"/>
	<guideline x="288" y="400" angle="90"/>
	<guideline x="-207" y="400" angle="90"/>
	<guideline x="-323" y="208" angle="90"/>
	<guideline x="493" y="64" angle="0"/>
	<outline>
		<contour>
			<point x="292" y="-10" type="curve" smooth="yes"/>
			<point x="402" y="-10"/>
			<point x="515" y="71"/>
			<point x="515" y="239" type="curve" smooth="yes"/>
			<point x="515" y="361"/>
			<point x="447" y="482"/>
			<point x="308" y="482" type="curve" smooth="yes"/>
			<point x="246" y="482"/>
			<point x="197" y="449"/>
			<point x="186" y="400" type="curve"/>
			<point x="156" y="400" type="line"/>
			<point x="211" y="700" type="line"/>
			<point x="121" y="700" type="line"/>
			<point x="87" y="331" type="line"/>
			<point x="177" y="306" type="line"/>
			<point x="192" y="362"/>
			<point x="239" y="400"/>
			<point x="293" y="400" type="curve" smooth="yes"/>
			<point x="380" y="400"/>
			<point x="423" y="316"/>
			<point x="423" y="232" type="curve" smooth="yes"/>
			<point x="423" y="119"/>
			<point x="358" y="64"/>
			<point x="295" y="64" type="curve" smooth="yes"/>
			<point x="235" y="64"/>
			<point x="177" y="113"/>
			<point x="177" y="208" type="curve"/>
			<point x="85" y="208" type="line"/>
			<point x="85" y="63"/>
			<point x="187" y="-10"/>
		</contour>
		<contour>
			<point x="131" y="630" type="line"/>
			<point x="500" y="630" type="line"/>
			<point x="500" y="700" type="line"/>
			<point x="121" y="700" type="line"/>
		</contour>
	</outline>
</glyph>
<glyph name="six" format="2">
	<advance width="600"/>
	<unicode hex="0036"/>
	<guideline y="-10"/>
	<guideline x="500" y="710" angle="0"/>
	<guideline x="174" y="232" angle="0"/>
	<guideline x="191" y="52" angle="90"/>
	<outline>
		<contour>
			<point x="314" y="-10" type="curve" smooth="yes"/>
			<point x="444" y="-10"/>
			<point x="530" y="87"/>
			<point x="530" y="235" type="curve" smooth="yes"/>
			<point x="530" y="374"/>
			<point x="452" y="482"/>
			<point x="324" y="482" type="curve" smooth="yes"/>
			<point x="269" y="482"/>
			<point x="213" y="455"/>
			<point x="191" y="396" type="curve"/>
			<point x="161" y="396" type="line"/>
			<point x="161" y="542"/>
			<point x="216" y="640"/>
			<point x="314" y="640" type="curve" smooth="yes"/>
			<point x="379" y="640"/>
			<point x="423" y="593"/>
			<point x="423" y="522" type="curve"/>
			<point x="515" y="522" type="line"/>
			<point x="515" y="635"/>
			<point x="432" y="710"/>
			<point x="314" y="710" type="curve" smooth="yes"/>
			<point x="148" y="710"/>
			<point x="70" y="566"/>
			<point x="70" y="350" type="curve" smooth="yes"/>
			<point x="70" y="134"/>
			<point x="151" y="-10"/>
		</contour>
		<contour>
			<point x="314" y="65" type="curve" smooth="yes"/>
			<point x="230" y="65"/>
			<point x="174" y="135"/>
			<point x="174" y="235" type="curve" smooth="yes"/>
			<point x="174" y="336"/>
			<point x="230" y="400"/>
			<point x="314" y="400" type="curve" smooth="yes"/>
			<point x="390" y="400"/>
			<point x="438" y="338"/>
			<point x="438" y="235" type="curve" smooth="yes"/>
			<point x="438" y="132"/>
			<point x="390" y="65"/>
		</contour>
	</outline>
</glyph>
<glyph name="seven" format="2">
	<advance width="600"/>
	<unicode hex="0037"/>
	<outline>
		<contour>
			<point x="150" y="0" type="line"/>
			<point x="250" y="0" type="line"/>
			<point x="525" y="600" type="line"/>
			<point x="525" y="700" type="line"/>
			<point x="80" y="700" type="line"/>
			<point x="80" y="630" type="line"/>
			<point x="445" y="630" type="line"/>
			<point x="321" y="371" type="line"/>
		</contour>
		<contour>
			<point x="80" y="540" type="line"/>
			<point x="170" y="540" type="line"/>
			<point x="170" y="580" type="line"/>
			<point x="165" y="700" type="line"/>
			<point x="80" y="700" type="line"/>
		</contour>
	</outline>
</glyph>
<glyph name="eight" format="2">
	<advance width="600"/>
	<unicode hex="0038"/>
	<guideline x="300" y="287" angle="90"/>
	<guideline x="300" y="-10" angle="0"/>
	<guideline x="300" y="710" angle="0"/>
	<outline>
		<contour>
			<point x="300" y="-10" type="curve" smooth="yes"/>
			<point x="447" y="-10"/>
			<point x="545" y="76"/>
			<point x="545" y="207" type="curve" smooth="yes"/>
			<point x="545" y="308"/>
			<point x="486" y="380"/>
			<point x="397" y="380" type="curve"/>
			<point x="397" y="410" type="line"/>
			<point x="465" y="410"/>
			<point x="510" y="463"/>
			<point x="510" y="541" type="curve" smooth="yes"/>
			<point x="510" y="647"/>
			<point x="426" y="710"/>
			<point x="300" y="710" type="curve" smooth="yes"/>
			<point x="174" y="710"/>
			<point x="90" y="647"/>
			<point x="90" y="541" type="curve" smooth="yes"/>
			<point x="90" y="463"/>
			<point x="135" y="410"/>
			<point x="203" y="410" type="curve"/>
			<point x="203" y="380" type="line"/>
			<point x="114" y="380"/>
			<point x="55" y="308"/>
			<point x="55" y="207" type="curve" smooth="yes"/>
			<point x="55" y="76"/>
			<point x="153" y="-10"/>
		</contour>
		<contour>
			<point x="300" y="65" type="curve" smooth="yes"/>
			<point x="212" y="64"/>
			<point x="145" y="114"/>
			<point x="145" y="207" type="curve" smooth="yes"/>
			<point x="145" y="296"/>
			<point x="207" y="356"/>
			<point x="300" y="356" type="curve" smooth="yes"/>
			<point x="393" y="356"/>
			<point x="455" y="296"/>
			<point x="455" y="207" type="curve" smooth="yes"/>
			<point x="455" y="114"/>
			<point x="388" y="64"/>
		</contour>
		<contour>
			<point x="300" y="431" type="curve" smooth="yes"/>
			<point x="228" y="431"/>
			<point x="180" y="480"/>
			<point x="180" y="540" type="curve" smooth="yes"/>
			<point x="180" y="600"/>
			<point x="228" y="640"/>
			<point x="300" y="640" type="curve" smooth="yes"/>
			<point x="372" y="640"/>
			<point x="420" y="600"/>
			<point x="420" y="540" type="curve" smooth="yes"/>
			<point x="420" y="480"/>
			<point x="372" y="431"/>
		</contour>
	</outline>
</glyph>
<glyph name="nine" format="2">
	<advance width="600"/>
	<unicode hex="0039"/>
	<guideline x="100" y="718" angle="0"/>
	<guideline x="190" y="220" angle="0"/>
	<guideline x="75" y="623" angle="0"/>
	<guideline x="409" y="52" angle="90"/>
	<guideline x="499" y="-18" angle="90"/>
	<guideline x="426" y="468" angle="0"/>
	<outline>
		<contour>
			<point x="286" y="-10" type="curve" smooth="yes"/>
			<point x="452" y="-10"/>
			<point x="530" y="134"/>
			<point x="530" y="350" type="curve" smooth="yes"/>
			<point x="530" y="566"/>
			<point x="449" y="710"/>
			<point x="286" y="710" type="curve" smooth="yes"/>
			<point x="153" y="710"/>
			<point x="70" y="613"/>
			<point x="70" y="465" type="curve" smooth="yes"/>
			<point x="70" y="326"/>
			<point x="149" y="220"/>
			<point x="277" y="220" type="curve" smooth="yes"/>
			<point x="332" y="220"/>
			<point x="387" y="245"/>
			<point x="409" y="304" type="curve"/>
			<point x="439" y="304" type="line"/>
			<point x="439" y="161"/>
			<point x="384" y="65"/>
			<point x="286" y="65" type="curve" smooth="yes"/>
			<point x="221" y="65"/>
			<point x="177" y="110"/>
			<point x="177" y="178" type="curve"/>
			<point x="85" y="178" type="line"/>
			<point x="85" y="65"/>
			<point x="168" y="-10"/>
		</contour>
		<contour>
			<point x="286" y="300" type="curve" smooth="yes"/>
			<point x="210" y="300"/>
			<point x="162" y="362"/>
			<point x="162" y="465" type="curve" smooth="yes"/>
			<point x="162" y="568"/>
			<point x="210" y="640"/>
			<point x="286" y="640" type="curve" smooth="yes"/>
			<point x="370" y="640"/>
			<point x="426" y="565"/>
			<point x="426" y="465" type="curve" smooth="yes"/>
			<point x="426" y="364"/>
			<point x="370" y="300"/>
		</contour>
	</outline>
</glyph>
<glyph name="less" format="2">
	<advance width="600"/>
	<unicode hex="003C"/>
	<outline>
		<contour>
			<point x="100" y="345" type="line"/>
			<point x="170" y="345" type="line"/>
			<point x="170" y="363" type="line"/>
			<point x="500" y="508" type="line"/>
			<point x="453" y="587" type="line"/>
			<point x="100" y="400" type="line"/>
		</contour>
		<contour>
			<point x="453" y="113" type="line"/>
			<point x="500" y="192" type="line"/>
			<point x="170" y="337" type="line"/>
			<point x="170" y="355" type="line"/>
			<point x="100" y="355" type="line"/>
			<point x="100" y="300" type="line"/>
		</contour>
	</outline>
</glyph>
<glyph name="equal" format="2">
	<advance width="600"/>
	<unicode hex="003D"/>
	<outline>
		<contour>
			<point x="95" y="365" type="line"/>
			<point x="505" y="365" type="line"/>
			<point x="505" y="435" type="line"/>
			<point x="95" y="435" type="line"/>
		</contour>
		<contour>
			<point x="95" y="165" type="line"/>
			<point x="505" y="165" type="line"/>
			<point x="505" y="235" type="line"/>
			<point x="95" y="235" type="line"/>
		</contour>
	</outline>
</glyph>
<glyph name="question" format="2">
	<advance width="600"/>
	<unicode hex="003F"/>
	<guideline x="435" y="195" angle="0"/>
	<guideline x="265" y="185" angle="90"/>
	<outline>
		<contour>
			<point x="252" y="195" type="curve"/>
			<point x="323" y="195" type="line"/>
			<point x="314" y="258"/>
			<point x="343" y="300"/>
			<point x="380" y="321" type="curve" smooth="yes"/>
			<point x="432" y="351" type="line" smooth="yes"/>
			<point x="498" y="389"/>
			<point x="524" y="455"/>
			<point x="524" y="513" type="curve" smooth="yes"/>
			<point x="524" y="615"/>
			<point x="442" y="710"/>
			<point x="300" y="710" type="curve" smooth="yes"/>
			<point x="205" y="710"/>
			<point x="75" y="667"/>
			<point x="80" y="500" type="curve"/>
			<point x="172" y="500" type="line"/>
			<point x="167" y="619"/>
			<point x="242" y="640"/>
			<point x="300" y="640" type="curve" smooth="yes"/>
			<point x="384" y="640"/>
			<point x="434" y="576"/>
			<point x="434" y="513" type="curve" smooth="yes"/>
			<point x="434" y="479"/>
			<point x="419" y="446"/>
			<point x="384" y="422" type="curve" smooth="yes"/>
			<point x="336" y="389" type="line" smooth="yes"/>
			<point x="265" y="340"/>
			<point x="242" y="273"/>
		</contour>
		<component base="period" xScale="0.8333" yScale="0.8333" xOffset="35"/>
	</outline>
</glyph>
<glyph name="at" format="2">
	<advance width="600"/>
	<unicode hex="0040"/>
	<guideline x="400" y="331" angle="90"/>
	<guideline x="1" y="206" angle="0"/>
	<outline>
		<contour>
			<point x="319" y="197" type="curve" smooth="yes"/>
			<point x="375" y="197"/>
			<point x="430" y="248"/>
			<point x="430" y="351" type="curve"/>
			<point x="460" y="351" type="line"/>
			<point x="460" y="235"/>
			<point x="469" y="206"/>
			<point x="555" y="206" type="curve"/>
			<point x="555" y="281" type="line"/>
			<point x="504" y="281"/>
			<point x="500" y="297"/>
			<point x="500" y="351" type="curve" smooth="yes"/>
			<point x="500" y="594"/>
			<point x="476" y="736"/>
			<point x="312" y="736" type="curve" smooth="yes"/>
			<point x="209" y="736"/>
			<point x="45" y="680"/>
			<point x="45" y="341" type="curve"/>
			<point x="135" y="341" type="line"/>
			<point x="135" y="604"/>
			<point x="227" y="666"/>
			<point x="312" y="666" type="curve" smooth="yes"/>
			<point x="403" y="666"/>
			<point x="426" y="556"/>
			<point x="426" y="416" type="curve"/>
			<point x="403" y="416" type="line"/>
			<point x="403" y="475"/>
			<point x="363" y="508"/>
			<point x="318" y="508" type="curve" smooth="yes"/>
			<point x="265" y="508"/>
			<point x="205" y="459"/>
			<point x="205" y="353" type="curve" smooth="yes"/>
			<point x="205" y="250"/>
			<point x="262" y="197"/>
		</contour>
		<contour>
			<point x="336" y="271" type="curve" smooth="yes"/>
			<point x="314" y="271"/>
			<point x="293" y="296"/>
			<point x="293" y="353" type="curve" smooth="yes"/>
			<point x="293" y="416"/>
			<point x="319" y="448"/>
			<point x="344" y="448" type="curve" smooth="yes"/>
			<point x="374" y="448"/>
			<point x="390" y="407"/>
			<point x="390" y="365" type="curve" smooth="yes"/>
			<point x="390" y="305"/>
			<point x="362" y="271"/>
		</contour>
		<contour>
			<point x="135" y="341" type="curve"/>
			<point x="45" y="341" type="line"/>
			<point x="45" y="76"/>
			<point x="170" y="-10"/>
			<point x="319" y="-10" type="curve" smooth="yes"/>
			<point x="422" y="-10"/>
			<point x="494" y="34"/>
			<point x="523" y="160" type="curve"/>
			<point x="427" y="160" type="line"/>
			<point x="415" y="101"/>
			<point x="380" y="65"/>
			<point x="319" y="65" type="curve" smooth="yes"/>
			<point x="219" y="65"/>
			<point x="135" y="126"/>
		</contour>
	</outline>
</glyph>
<glyph name="A" format="2">
	<advance width="600"/>
	<unicode hex="0041"/>
	<guideline x="365" y="110" angle="0"/>
	<guideline x="137" y="195" angle="0"/>
	<guideline x="137" y="265" angle="0"/>
	<guideline x="315" y="350" angle="0"/>
	<anchor x="300" y="0" name="bottom"/>
	<anchor x="555" y="0" name="ogonek"/>
	<anchor x="300" y="700" name="top"/>
	<outline>
		<contour>
			<point x="45" y="0" type="line"/>
			<point x="137" y="0" type="line"/>
			<point x="162" y="110" type="line"/>
			<point x="177" y="195" type="line"/>
			<point x="192" y="265" type="line"/>
			<point x="218" y="350" type="line"/>
			<point x="282" y="630" type="line"/>
			<point x="312" y="630" type="line"/>
			<point x="377" y="350" type="line"/>
			<point x="403" y="265" type="line"/>
			<point x="418" y="195" type="line"/>
			<point x="433" y="110" type="line"/>
			<point x="458" y="0" type="line"/>
			<point x="555" y="0" type="line"/>
			<point x="369" y="700" type="line"/>
			<point x="225" y="700" type="line"/>
		</contour>
		<contour>
			<point x="152" y="195" type="line"/>
			<point x="437" y="195" type="line"/>
			<point x="437" y="265" type="line"/>
			<point x="152" y="265" type="line"/>
		</contour>
	</outline>
</glyph>
<glyph name="B" format="2">
	<advance width="600"/>
	<unicode hex="0042"/>
	<guideline x="296" y="355" angle="90"/>
	<anchor x="300" y="0" name="bottom"/>
	<anchor x="300" y="700" name="top"/>
	<outline>
		<contour>
			<point x="120" y="0" type="line"/>
			<point x="310" y="0" type="line" smooth="yes"/>
			<point x="463" y="0"/>
			<point x="535" y="107"/>
			<point x="535" y="211" type="curve" smooth="yes"/>
			<point x="535" y="294"/>
			<point x="480" y="375"/>
			<point x="377" y="375" type="curve"/>
			<point x="377" y="405" type="line"/>
			<point x="447" y="405"/>
			<point x="490" y="463"/>
			<point x="490" y="535" type="curve" smooth="yes"/>
			<point x="490" y="614"/>
			<point x="439" y="700"/>
			<point x="344" y="700" type="curve" smooth="yes"/>
			<point x="120" y="700" type="line"/>
			<point x="120" y="630" type="line"/>
			<point x="310" y="630" type="line" smooth="yes"/>
			<point x="370" y="630"/>
			<point x="400" y="584"/>
			<point x="400" y="535" type="curve" smooth="yes"/>
			<point x="400" y="481"/>
			<point x="363" y="425"/>
			<point x="285" y="425" type="curve" smooth="yes"/>
			<point x="120" y="425" type="line"/>
			<point x="120" y="355" type="line"/>
			<point x="285" y="355" type="line" smooth="yes"/>
			<point x="393" y="355"/>
			<point x="445" y="285"/>
			<point x="445" y="211" type="curve" smooth="yes"/>
			<point x="445" y="142"/>
			<point x="399" y="69"/>
			<point x="285" y="70" type="curve" smooth="yes"/>
			<point x="120" y="71" type="line"/>
		</contour>
		<contour>
			<point x="90" y="0" type="line"/>
			<point x="174" y="0" type="line"/>
			<point x="174" y="60" type="line"/>
			<point x="180" y="165" type="line"/>
			<point x="180" y="205" type="line"/>
			<point x="90" y="205" type="line"/>
		</contour>
		<contour>
			<point x="90" y="200" type="line"/>
			<point x="180" y="200" type="line"/>
			<point x="180" y="260" type="line"/>
			<point x="174" y="365" type="line"/>
			<point x="174" y="425" type="line"/>
			<point x="90" y="425" type="line"/>
		</contour>
		<contour>
			<point x="90" y="355" type="line"/>
			<point x="174" y="355" type="line"/>
			<point x="174" y="415" type="line"/>
			<point x="180" y="520" type="line"/>
			<point x="180" y="530" type="line"/>
			<point x="90" y="530" type="line"/>
		</contour>
		<contour>
			<point x="90" y="525" type="line"/>
			<point x="180" y="525" type="line"/>
			<point x="180" y="535" type="line"/>
			<point x="174" y="640" type="line"/>
			<point x="174" y="700" type="line"/>
			<point x="90" y="700" type="line"/>
		</contour>
	</outline>
</glyph>
<glyph name="C" format="2">
	<advance width="600"/>
	<unicode hex="0043"/>
	<guideline x="-30" y="320" angle="0"/>
	<guideline x="300" y="710" angle="0"/>
	<guideline x="300" y="-10" angle="0"/>
	<anchor x="310" y="0" name="bottom"/>
	<anchor x="310" y="700" name="top"/>
	<outline>
		<contour>
			<point x="310" y="65" type="curve"/>
			<point x="310" y="-10" type="line"/>
			<point x="453" y="-10"/>
			<point x="525" y="76"/>
			<point x="525" y="270" type="curve"/>
			<point x="433" y="270" type="line"/>
			<point x="433" y="127"/>
			<point x="404" y="65"/>
		</contour>
		<contour>
			<point x="75" y="350" type="curve" smooth="yes"/>
			<point x="75" y="85"/>
			<point x="161" y="-10"/>
			<point x="310" y="-10" type="curve"/>
			<point x="310" y="65" type="line"/>
			<point x="210" y="65"/>
			<point x="167" y="135"/>
			<point x="167" y="350" type="curve" smooth="yes"/>
			<point x="167" y="565"/>
			<point x="210" y="640"/>
			<point x="310" y="640" type="curve" smooth="yes"/>
			<point x="404" y="640"/>
			<point x="431" y="573"/>
			<point x="431" y="472" type="curve"/>
			<point x="523" y="472" type="line"/>
			<point x="523" y="624"/>
			<point x="453" y="710"/>
			<point x="310" y="710" type="curve" smooth="yes"/>
			<point x="161" y="710"/>
			<point x="75" y="615"/>
		</contour>
	</outline>
</glyph>
<glyph name="D" format="2">
	<advance width="600"/>
	<unicode hex="0044"/>
	<anchor x="300" y="0" name="bottom"/>
	<anchor x="300" y="350" name="center"/>
	<anchor x="300" y="700" name="top"/>
	<outline>
		<contour>
			<point x="85" y="0" type="line"/>
			<point x="265" y="0" type="line" smooth="yes"/>
			<point x="421" y="0"/>
			<point x="525" y="150"/>
			<point x="525" y="376" type="curve" smooth="yes"/>
			<point x="525" y="570"/>
			<point x="421" y="700"/>
			<point x="265" y="700" type="curve" smooth="yes"/>
			<point x="85" y="700" type="line"/>
		</contour>
		<contour>
			<point x="265" y="70" type="curve" smooth="yes"/>
			<point x="169" y="70" type="line"/>
			<point x="175" y="165" type="line"/>
			<point x="175" y="535" type="line"/>
			<point x="169" y="630" type="line"/>
			<point x="265" y="630" type="line" smooth="yes"/>
			<point x="366" y="630"/>
			<point x="434" y="528"/>
			<point x="434" y="376" type="curve" smooth="yes"/>
			<point x="434" y="192"/>
			<point x="366" y="70"/>
		</contour>
	</outline>
</glyph>
<glyph name="E" format="2">
	<advance width="600"/>
	<unicode hex="0045"/>
	<guideline x="445" y="395" angle="0"/>
	<anchor x="290" y="0" name="bottom"/>
	<anchor x="515" y="0" name="ogonek"/>
	<anchor x="300" y="700" name="top"/>
	<anchor x="20" y="700" name="topleft"/>
	<outline>
		<contour>
			<point x="90" y="0" type="line"/>
			<point x="515" y="0" type="line"/>
			<point x="515" y="75" type="line"/>
			<point x="174" y="75" type="line"/>
			<point x="180" y="165" type="line"/>
			<point x="180" y="230" type="line"/>
			<point x="174" y="325" type="line"/>
			<point x="445" y="325" type="line"/>
			<point x="445" y="395" type="line"/>
			<point x="174" y="395" type="line"/>
			<point x="180" y="490" type="line"/>
			<point x="180" y="535" type="line"/>
			<point x="174" y="630" type="line"/>
			<point x="515" y="630" type="line"/>
			<point x="515" y="700" type="line"/>
			<point x="90" y="700" type="line"/>
		</contour>
	</outline>
</glyph>
<glyph name="F" format="2">
	<advance width="600"/>
	<unicode hex="0046"/>
	<anchor x="300" y="0" name="bottom"/>
	<anchor x="300" y="700" name="top"/>
	<outline>
		<contour>
			<point x="90" y="0" type="line"/>
			<point x="180" y="0" type="line"/>
			<point x="180" y="210" type="line"/>
			<point x="174" y="305" type="line"/>
			<point x="435" y="305" type="line"/>
			<point x="435" y="375" type="line"/>
			<point x="174" y="375" type="line"/>
			<point x="180" y="470" type="line"/>
			<point x="180" y="535" type="line"/>
			<point x="174" y="630" type="line"/>
			<point x="515" y="630" type="line"/>
			<point x="515" y="700" type="line"/>
			<point x="90" y="700" type="line"/>
		</contour>
	</outline>
</glyph>
<glyph name="G" format="2">
	<advance width="600"/>
	<unicode hex="0047"/>
	<guideline x="110" y="275" angle="0"/>
	<anchor x="310" y="0" name="bottom"/>
	<anchor x="310" y="700" name="top"/>
	<outline>
		<contour>
			<point x="310" y="65" type="curve"/>
			<point x="310" y="-10" type="line"/>
			<point x="440" y="-10"/>
			<point x="525" y="62"/>
			<point x="525" y="275" type="curve" smooth="yes"/>
			<point x="525" y="345" type="line"/>
			<point x="267" y="345" type="line"/>
			<point x="267" y="275" type="line"/>
			<point x="437" y="275" type="line"/>
			<point x="431" y="190" type="line"/>
			<point x="431" y="117"/>
			<point x="383" y="65"/>
		</contour>
		<contour>
			<point x="75" y="350" type="curve" smooth="yes"/>
			<point x="75" y="85"/>
			<point x="161" y="-10"/>
			<point x="310" y="-10" type="curve"/>
			<point x="310" y="65" type="line"/>
			<point x="210" y="65"/>
			<point x="167" y="135"/>
			<point x="167" y="350" type="curve" smooth="yes"/>
			<point x="167" y="565"/>
			<point x="210" y="640"/>
			<point x="310" y="640" type="curve" smooth="yes"/>
			<point x="404" y="640"/>
			<point x="431" y="573"/>
			<point x="431" y="472" type="curve"/>
			<point x="523" y="472" type="line"/>
			<point x="523" y="624"/>
			<point x="453" y="710"/>
			<point x="310" y="710" type="curve" smooth="yes"/>
			<point x="161" y="710"/>
			<point x="75" y="615"/>
		</contour>
	</outline>
</glyph>
<glyph name="H" format="2">
	<advance width="600"/>
	<unicode hex="0048"/>
	<guideline x="125" y="325" angle="0"/>
	<anchor x="300" y="0" name="bottom"/>
	<anchor x="300" y="350" name="center"/>
	<anchor x="300" y="700" name="top"/>
	<anchor x="20" y="700" name="topleft"/>
	<outline>
		<contour>
			<point x="430" y="0" type="line"/>
			<point x="520" y="0" type="line"/>
			<point x="520" y="700" type="line"/>
			<point x="430" y="700" type="line"/>
			<point x="430" y="500" type="line"/>
			<point x="436" y="395" type="line"/>
			<point x="436" y="325" type="line"/>
			<point x="430" y="220" type="line"/>
		</contour>
		<contour>
			<point x="80" y="0" type="line"/>
			<point x="170" y="0" type="line"/>
			<point x="170" y="220" type="line"/>
			<point x="164" y="325" type="line"/>
			<point x="164" y="395" type="line"/>
			<point x="170" y="500" type="line"/>
			<point x="170" y="700" type="line"/>
			<point x="80" y="700" type="line"/>
		</contour>
		<contour>
			<point x="120" y="325" type="line"/>
			<point x="480" y="325" type="line"/>
			<point x="480" y="395" type="line"/>
			<point x="120" y="395" type="line"/>
		</contour>
	</outline>
</glyph>
<glyph name="I" format="2">
	<advance width="600"/>
	<unicode hex="0049"/>
	<guideline x="345" y="268" angle="90"/>
	<anchor x="300" y="0" name="bottom"/>
	<anchor x="500" y="0" name="ogonek"/>
	<anchor x="300" y="700" name="top"/>
	<anchor x="20" y="700" name="topleft"/>
	<outline>
		<contour>
			<point x="100" y="0" type="line"/>
			<point x="500" y="0" type="line"/>
			<point x="500" y="75" type="line"/>
			<point x="339" y="75" type="line"/>
			<point x="345" y="176" type="line"/>
			<point x="345" y="524" type="line"/>
			<point x="339" y="629" type="line"/>
			<point x="339" y="630" type="line"/>
			<point x="500" y="630" type="line"/>
			<point x="500" y="700" type="line"/>
			<point x="100" y="700" type="line"/>
			<point x="100" y="630" type="line"/>
			<point x="261" y="630" type="line"/>
			<point x="261" y="629" type="line"/>
			<point x="255" y="524" type="line"/>
			<point x="255" y="176" type="line"/>
			<point x="261" y="75" type="line"/>
			<point x="100" y="75" type="line"/>
		</contour>
	</outline>
</glyph>
<glyph name="J" format="2">
	<advance width="600"/>
	<unicode hex="004A"/>
	<anchor x="300" y="0" name="bottom"/>
	<anchor x="300" y="700" name="top"/>
	<outline>
		<contour>
			<point x="300" y="-10" type="curve"/>
			<point x="300" y="65" type="line"/>
			<point x="206" y="65"/>
			<point x="177" y="127"/>
			<point x="177" y="270" type="curve"/>
			<point x="85" y="270" type="line"/>
			<point x="85" y="76"/>
			<point x="157" y="-10"/>
		</contour>
		<contour>
			<point x="300" y="65" type="curve"/>
			<point x="300" y="-10" type="line"/>
			<point x="460" y="-10"/>
			<point x="510" y="95"/>
			<point x="510" y="248" type="curve"/>
			<point x="420" y="248" type="line"/>
			<point x="420" y="110"/>
			<point x="372" y="65"/>
		</contour>
		<contour>
			<point x="90" y="540" type="line"/>
			<point x="180" y="540" type="line"/>
			<point x="180" y="580" type="line"/>
			<point x="174" y="700" type="line"/>
			<point x="90" y="700" type="line"/>
		</contour>
		<contour>
			<point x="420" y="248" type="line"/>
			<point x="510" y="248" type="line"/>
			<point x="510" y="700" type="line"/>
			<point x="426" y="700" type="line"/>
			<point x="426" y="629" type="line"/>
			<point x="420" y="524" type="line"/>
		</contour>
		<contour>
			<point x="142" y="630" type="line"/>
			<point x="480" y="630" type="line"/>
			<point x="480" y="700" type="line"/>
			<point x="142" y="700" type="line"/>
		</contour>
	</outline>
</glyph>
<glyph name="K" format="2">
	<advance width="600"/>
	<unicode hex="004B"/>
	<anchor x="300" y="0" name="bottom"/>
	<anchor x="300" y="700" name="top"/>
	<outline>
		<contour>
			<point x="324" y="258" type="curve" smooth="yes"/>
			<point x="425" y="0" type="line"/>
			<point x="525" y="0" type="line"/>
			<point x="393" y="284" type="line" smooth="yes"/>
			<point x="372" y="330"/>
			<point x="342" y="345"/>
			<point x="293" y="345" type="curve"/>
			<point x="293" y="375" type="line"/>
			<point x="339" y="375"/>
			<point x="372" y="390"/>
			<point x="393" y="436" type="curve" smooth="yes"/>
			<point x="515" y="700" type="line"/>
			<point x="415" y="700" type="line"/>
			<point x="324" y="462" type="line" smooth="yes"/>
			<point x="308" y="420"/>
			<point x="274" y="395"/>
			<point x="251" y="395" type="curve" smooth="yes"/>
			<point x="160" y="395" type="line"/>
			<point x="160" y="325" type="line"/>
			<point x="251" y="325" type="line" smooth="yes"/>
			<point x="274" y="325"/>
			<point x="308" y="299"/>
		</contour>
		<contour>
			<point x="90" y="0" type="line"/>
			<point x="180" y="0" type="line"/>
			<point x="180" y="220" type="line"/>
			<point x="174" y="325" type="line"/>
			<point x="174" y="385" type="line"/>
			<point x="90" y="385" type="line"/>
		</contour>
		<contour>
			<point x="90" y="335" type="line"/>
			<point x="174" y="335" type="line"/>
			<point x="174" y="395" type="line"/>
			<point x="180" y="480" type="line"/>
			<point x="180" y="700" type="line"/>
			<point x="90" y="700" type="line"/>
		</contour>
	</outline>
</glyph>
<glyph name="L" format="2">
	<advance width="600"/>
	<unicode hex="004C"/>
	<guideline x="420" y="160" angle="90"/>
	<anchor x="300" y="0" name="bottom"/>
	<anchor x="300" y="350" name="center"/>
	<anchor x="135" y="700" name="top"/>
	<anchor x="420" y="600" name="topright"/>
	<outline>
		<contour>
			<point x="90" y="0" type="line"/>
			<point x="174" y="0" type="line"/>
			<point x="174" y="75" type="line"/>
			<point x="180" y="180" type="line"/>
			<point x="180" y="700" type="line"/>
			<point x="90" y="700" type="line"/>
		</contour>
		<contour>
			<point x="150" y="0" type="line"/>
			<point x="510" y="0" type="line"/>
			<point x="510" y="75" type="line"/>
			<point x="150" y="75" type="line"/>
		</contour>
		<contour>
			<point x="425" y="0" type="line"/>
			<point x="510" y="0" type="line"/>
			<point x="510" y="160" type="line"/>
			<point x="420" y="160" type="line"/>
			<point x="420" y="120" type="line"/>
		</contour>
	</outline>
</glyph>
<glyph name="M" format="2">
	<advance width="600"/>
	<unicode hex="004D"/>
	<anchor x="300" y="0" name="bottom"/>
	<anchor x="300" y="700" name="top"/>
	<outline>
		<contour>
			<point x="70" y="0" type="line"/>
			<point x="160" y="0" type="line"/>
			<point x="160" y="268" type="line"/>
			<point x="136" y="630" type="line"/>
			<point x="166" y="630" type="line"/>
			<point x="239" y="268" type="line"/>
			<point x="361" y="268" type="line"/>
			<point x="434" y="630" type="line"/>
			<point x="464" y="630" type="line"/>
			<point x="440" y="268" type="line"/>
			<point x="440" y="0" type="line"/>
			<point x="530" y="0" type="line"/>
			<point x="530" y="700" type="line"/>
			<point x="386" y="700" type="line"/>
			<point x="315" y="338" type="line"/>
			<point x="285" y="338" type="line"/>
			<point x="214" y="700" type="line"/>
			<point x="70" y="700" type="line"/>
		</contour>
	</outline>
</glyph>
<glyph name="N" format="2">
	<advance width="600"/>
	<unicode hex="004E"/>
	<guideline x="362" y="-802" angle="90"/>
	<guideline x="430" y="432" angle="0"/>
	<anchor x="300" y="0" name="bottom"/>
	<anchor x="300" y="700" name="top"/>
	<outline>
		<contour>
			<point x="85" y="0" type="line"/>
			<point x="175" y="0" type="line"/>
			<point x="175" y="268" type="line"/>
			<point x="151" y="630" type="line"/>
			<point x="181" y="630" type="line"/>
			<point x="360" y="0" type="line"/>
			<point x="515" y="0" type="line"/>
			<point x="515" y="700" type="line"/>
			<point x="425" y="700" type="line"/>
			<point x="425" y="432" type="line"/>
			<point x="449" y="70" type="line"/>
			<point x="419" y="70" type="line"/>
			<point x="240" y="700" type="line"/>
			<point x="85" y="700" type="line"/>
		</contour>
	</outline>
</glyph>
<glyph name="O" format="2">
	<advance width="600"/>
	<unicode hex="004F"/>
	<guideline x="500" y="-10" angle="0"/>
	<anchor x="300" y="0" name="bottom"/>
	<anchor x="300" y="350" name="center"/>
	<anchor x="540" y="10" name="ogonek"/>
	<anchor x="300" y="700" name="top"/>
	<anchor x="20" y="700" name="topleft"/>
	<anchor x="580" y="700" name="topright"/>
	<outline>
		<contour>
			<point x="444" y="350" type="curve"/>
			<point x="535" y="350" type="line"/>
			<point x="535" y="615"/>
			<point x="449" y="710"/>
			<point x="300" y="710" type="curve"/>
			<point x="300" y="640" type="line"/>
			<point x="400" y="640"/>
			<point x="444" y="565"/>
		</contour>
		<contour>
			<point x="300" y="-10" type="curve"/>
			<point x="300" y="65" type="line"/>
			<point x="200" y="65"/>
			<point x="156" y="145"/>
			<point x="156" y="350" type="curve"/>
			<point x="65" y="350" type="line"/>
			<point x="65" y="85"/>
			<point x="151" y="-10"/>
		</contour>
		<contour>
			<point x="300" y="65" type="curve"/>
			<point x="300" y="-10" type="line"/>
			<point x="449" y="-10"/>
			<point x="535" y="85"/>
			<point x="535" y="350" type="curve"/>
			<point x="444" y="350" type="line"/>
			<point x="444" y="145"/>
			<point x="400" y="65"/>
		</contour>
		<contour>
			<point x="65" y="350" type="curve"/>
			<point x="156" y="350" type="line"/>
			<point x="156" y="565"/>
			<point x="200" y="640"/>
			<point x="300" y="640" type="curve"/>
			<point x="300" y="710" type="line"/>
			<point x="151" y="710"/>
			<point x="65" y="615"/>
		</contour>
	</outline>
</glyph>
<glyph name="P" format="2">
	<advance width="600"/>
	<unicode hex="0050"/>
	<guideline x="74" y="256" angle="0"/>
	<anchor x="300" y="0" name="bottom"/>
	<anchor x="300" y="700" name="top"/>
	<outline>
		<contour>
			<point x="130" y="256" type="line"/>
			<point x="306" y="256" type="line" smooth="yes"/>
			<point x="449" y="256"/>
			<point x="538" y="348"/>
			<point x="538" y="481" type="curve" smooth="yes"/>
			<point x="538" y="625"/>
			<point x="434" y="700"/>
			<point x="307" y="700" type="curve" smooth="yes"/>
			<point x="130" y="700" type="line"/>
			<point x="130" y="630" type="line"/>
			<point x="296" y="630" type="line" smooth="yes"/>
			<point x="411" y="630"/>
			<point x="448" y="562"/>
			<point x="448" y="481" type="curve" smooth="yes"/>
			<point x="448" y="389"/>
			<point x="400" y="326"/>
			<point x="288" y="326" type="curve" smooth="yes"/>
			<point x="130" y="326" type="line"/>
		</contour>
		<contour>
			<point x="90" y="0" type="line"/>
			<point x="180" y="0" type="line"/>
			<point x="180" y="161" type="line"/>
			<point x="174" y="266" type="line"/>
			<point x="174" y="326" type="line"/>
			<point x="90" y="326" type="line"/>
		</contour>
		<contour>
			<point x="90" y="256" type="line"/>
			<point x="174" y="256" type="line"/>
			<point x="174" y="316" type="line"/>
			<point x="180" y="421" type="line"/>
			<point x="180" y="530" type="line"/>
			<point x="90" y="530" type="line"/>
		</contour>
		<contour>
			<point x="90" y="525" type="line"/>
			<point x="180" y="525" type="line"/>
			<point x="180" y="535" type="line"/>
			<point x="174" y="640" type="line"/>
			<point x="174" y="700" type="line"/>
			<point x="90" y="700" type="line"/>
		</contour>
	</outline>
</glyph>
<glyph name="Q" format="2">
	<advance width="600"/>
	<unicode hex="0051"/>
	<anchor x="300" y="0" name="bottom"/>
	<anchor x="300" y="700" name="top"/>
	<outline>
		<contour>
			<point x="375" y="-90" type="line"/>
			<point x="475" y="-90" type="line"/>
			<point x="399" y="43" type="line"/>
			<point x="325" y="200" type="line"/>
			<point x="265" y="200" type="line"/>
			<point x="329" y="43" type="line"/>
		</contour>
		<component base="O"/>
	</outline>
</glyph>
<glyph name="R" format="2">
	<advance width="600"/>
	<unicode hex="0052"/>
	<anchor x="300" y="0" name="bottom"/>
	<anchor x="300" y="700" name="top"/>
	<outline>
		<contour>
			<point x="368" y="209" type="curve" smooth="yes"/>
			<point x="450" y="0" type="line"/>
			<point x="550" y="0" type="line"/>
			<point x="443" y="230" type="line" smooth="yes"/>
			<point x="426" y="266"/>
			<point x="398" y="295"/>
			<point x="354" y="295" type="curve"/>
			<point x="354" y="325" type="line"/>
			<point x="449" y="325"/>
			<point x="512" y="393"/>
			<point x="512" y="500" type="curve" smooth="yes"/>
			<point x="512" y="614"/>
			<point x="440" y="700"/>
			<point x="287" y="700" type="curve" smooth="yes"/>
			<point x="110" y="700" type="line"/>
			<point x="110" y="629" type="line"/>
			<point x="262" y="629" type="line" smooth="yes"/>
			<point x="376" y="629"/>
			<point x="422" y="579"/>
			<point x="422" y="500" type="curve" smooth="yes"/>
			<point x="422" y="407"/>
			<point x="358" y="345"/>
			<point x="262" y="345" type="curve" smooth="yes"/>
			<point x="110" y="345" type="line"/>
			<point x="110" y="275" type="line"/>
			<point x="262" y="275" type="line" smooth="yes"/>
			<point x="316" y="275"/>
			<point x="354" y="244"/>
		</contour>
		<contour>
			<point x="90" y="0" type="line"/>
			<point x="180" y="0" type="line"/>
			<point x="180" y="170" type="line"/>
			<point x="174" y="275" type="line"/>
			<point x="174" y="335" type="line"/>
			<point x="90" y="335" type="line"/>
		</contour>
		<contour>
			<point x="90" y="285" type="line"/>
			<point x="174" y="285" type="line"/>
			<point x="174" y="345" type="line"/>
			<point x="180" y="430" type="line"/>
			<point x="180" y="443" type="line"/>
			<point x="90" y="443" type="line"/>
		</contour>
		<contour>
			<point x="90" y="434" type="line"/>
			<point x="180" y="434" type="line"/>
			<point x="180" y="524" type="line"/>
			<point x="174" y="629" type="line"/>
			<point x="174" y="700" type="line"/>
			<point x="90" y="700" type="line"/>
		</contour>
	</outline>
</glyph>
<glyph name="S" format="2">
	<advance width="600"/>
	<unicode hex="0053"/>
	<guideline y="-10"/>
	<guideline x="80" y="208" angle="90"/>
	<anchor x="300" y="0" name="bottom"/>
	<anchor x="300" y="700" name="top"/>
	<outline>
		<contour>
			<point x="303" y="-10" type="curve" smooth="yes"/>
			<point x="448" y="-10"/>
			<point x="518" y="82"/>
			<point x="518" y="196" type="curve" smooth="yes"/>
			<point x="518" y="295"/>
			<point x="454" y="367"/>
			<point x="355" y="391" type="curve" smooth="yes"/>
			<point x="267" y="412" type="line" smooth="yes"/>
			<point x="193" y="430"/>
			<point x="167" y="470"/>
			<point x="167" y="517" type="curve" smooth="yes"/>
			<point x="167" y="591"/>
			<point x="234" y="640"/>
			<point x="300" y="640" type="curve" smooth="yes"/>
			<point x="367" y="640"/>
			<point x="427" y="598"/>
			<point x="423" y="500" type="curve"/>
			<point x="515" y="500" type="line"/>
			<point x="519" y="646"/>
			<point x="409" y="710"/>
			<point x="301" y="710" type="curve" smooth="yes"/>
			<point x="184" y="710"/>
			<point x="82" y="633"/>
			<point x="82" y="512" type="curve" smooth="yes"/>
			<point x="82" y="419"/>
			<point x="146" y="348"/>
			<point x="234" y="327" type="curve" smooth="yes"/>
			<point x="322" y="306" type="line" smooth="yes"/>
			<point x="386" y="291"/>
			<point x="433" y="251"/>
			<point x="433" y="190" type="curve" smooth="yes"/>
			<point x="433" y="124"/>
			<point x="378" y="65"/>
			<point x="303" y="65" type="curve" smooth="yes"/>
			<point x="215" y="65"/>
			<point x="164" y="114"/>
			<point x="174" y="208" type="curve"/>
			<point x="82" y="208" type="line"/>
			<point x="64" y="82"/>
			<point x="158" y="-10"/>
		</contour>
	</outline>
</glyph>
<glyph name="T" format="2">
	<advance width="600"/>
	<unicode hex="0054"/>
	<anchor x="300" y="0" name="bottom"/>
	<anchor x="300" y="350" name="center"/>
	<anchor x="300" y="700" name="top"/>
	<outline>
		<contour>
			<point x="255" y="0" type="line"/>
			<point x="345" y="0" type="line"/>
			<point x="345" y="524" type="line"/>
			<point x="339" y="629" type="line"/>
			<point x="339" y="700" type="line"/>
			<point x="261" y="700" type="line"/>
			<point x="261" y="629" type="line"/>
			<point x="255" y="524" type="line"/>
		</contour>
		<contour>
			<point x="70" y="630" type="line"/>
			<point x="530" y="630" type="line"/>
			<point x="530" y="700" type="line"/>
			<point x="70" y="700" type="line"/>
		</contour>
	</outline>
</glyph>
<glyph name="U" format="2">
	<advance width="600"/>
	<unicode hex="0055"/>
	<guideline y="-10"/>
	<anchor x="300" y="0" name="bottom"/>
	<anchor x="407" y="10" name="ogonek"/>
	<anchor x="300" y="700" name="top"/>
	<anchor x="580" y="700" name="topright"/>
	<outline>
		<contour>
			<point x="300" y="65" type="curve"/>
			<point x="300" y="-10" type="line"/>
			<point x="460" y="-10"/>
			<point x="510" y="85"/>
			<point x="510" y="228" type="curve"/>
			<point x="420" y="228" type="line"/>
			<point x="420" y="100"/>
			<point x="372" y="65"/>
		</contour>
		<contour>
			<point x="300" y="-10" type="curve"/>
			<point x="300" y="65" type="line"/>
			<point x="228" y="65"/>
			<point x="180" y="100"/>
			<point x="180" y="228" type="curve"/>
			<point x="90" y="228" type="line"/>
			<point x="90" y="85"/>
			<point x="140" y="-10"/>
		</contour>
		<contour>
			<point x="90" y="228" type="line"/>
			<point x="180" y="228" type="line"/>
			<point x="180" y="700" type="line"/>
			<point x="90" y="700" type="line"/>
		</contour>
		<contour>
			<point x="420" y="228" type="line"/>
			<point x="510" y="228" type="line"/>
			<point x="510" y="700" type="line"/>
			<point x="420" y="700" type="line"/>
		</contour>
	</outline>
</glyph>
<glyph name="V" format="2">
	<advance width="600"/>
	<unicode hex="0056"/>
	<anchor x="300" y="0" name="bottom"/>
	<anchor x="300" y="700" name="top"/>
	<outline>
		<contour>
			<point x="230" y="0" type="line"/>
			<point x="375" y="0" type="line"/>
			<point x="555" y="700" type="line"/>
			<point x="460" y="700" type="line"/>
			<point x="318" y="70" type="line"/>
			<point x="288" y="70" type="line"/>
			<point x="145" y="700" type="line"/>
			<point x="45" y="700" type="line"/>
		</contour>
	</outline>
</glyph>
<glyph name="W" format="2">
	<advance width="600"/>
	<unicode hex="0057"/>
	<anchor x="300" y="0" name="bottom"/>
	<anchor x="300" y="700" name="top"/>
	<outline>
		<contour>
			<point x="96" y="0" type="line"/>
			<point x="241" y="0" type="line"/>
			<point x="285" y="356" type="line"/>
			<point x="315" y="356" type="line"/>
			<point x="359" y="0" type="line"/>
			<point x="504" y="0" type="line"/>
			<point x="555" y="700" type="line"/>
			<point x="455" y="700" type="line"/>
			<point x="441" y="75" type="line"/>
			<point x="411" y="75" type="line"/>
			<point x="366" y="426" type="line"/>
			<point x="234" y="426" type="line"/>
			<point x="189" y="75" type="line"/>
			<point x="159" y="75" type="line"/>
			<point x="145" y="700" type="line"/>
			<point x="45" y="700" type="line"/>
		</contour>
	</outline>
</glyph>
<glyph name="X" format="2">
	<advance width="600"/>
	<unicode hex="0058"/>
	<anchor x="300" y="0" name="bottom"/>
	<anchor x="300" y="700" name="top"/>
	<outline>
		<contour>
			<point x="60" y="0" type="line"/>
			<point x="160" y="0" type="line"/>
			<point x="285" y="323" type="line"/>
			<point x="315" y="323" type="line"/>
			<point x="445" y="0" type="line"/>
			<point x="540" y="0" type="line"/>
			<point x="365" y="393" type="line"/>
			<point x="235" y="393" type="line"/>
		</contour>
		<contour>
			<point x="235" y="323" type="line"/>
			<point x="365" y="323" type="line"/>
			<point x="540" y="700" type="line"/>
			<point x="445" y="700" type="line"/>
			<point x="315" y="393" type="line"/>
			<point x="285" y="393" type="line"/>
			<point x="160" y="700" type="line"/>
			<point x="60" y="700" type="line"/>
		</contour>
	</outline>
</glyph>
<glyph name="Y" format="2">
	<advance width="600"/>
	<unicode hex="0059"/>
	<guideline x="345" y="130" angle="0"/>
	<guideline x="413" y="448" angle="0"/>
	<anchor x="300" y="0" name="bottom"/>
	<anchor x="300" y="700" name="top"/>
	<anchor x="45" y="700" name="topleft"/>
	<outline>
		<contour>
			<point x="276" y="210" type="line"/>
			<point x="324" y="210" type="line"/>
			<point x="555" y="700" type="line"/>
			<point x="463" y="700" type="line"/>
			<point x="315" y="355" type="line"/>
			<point x="285" y="355" type="line"/>
			<point x="142" y="700" type="line"/>
			<point x="45" y="700" type="line"/>
		</contour>
		<contour>
			<point x="255" y="0" type="line"/>
			<point x="345" y="0" type="line"/>
			<point x="345" y="151" type="line"/>
			<point x="339" y="286" type="line"/>
			<point x="261" y="286" type="line"/>
			<point x="255" y="151" type="line"/>
		</contour>
	</outline>
</glyph>
<glyph name="Z" format="2">
	<advance width="600"/>
	<unicode hex="005A"/>
	<guideline x="520" y="440" angle="90"/>
	<guideline x="80" y="440" angle="90"/>
	<anchor x="300" y="0" name="bottom"/>
	<anchor x="300" y="350" name="center"/>
	<anchor x="305" y="700" name="top"/>
	<outline>
		<contour>
			<point x="80" y="0" type="line"/>
			<point x="520" y="0" type="line"/>
			<point x="520" y="75" type="line"/>
			<point x="165" y="75" type="line"/>
			<point x="335" y="321" type="line"/>
			<point x="520" y="600" type="line"/>
			<point x="520" y="700" type="line"/>
			<point x="80" y="700" type="line"/>
			<point x="80" y="630" type="line"/>
			<point x="438" y="630" type="line"/>
			<point x="260" y="371" type="line"/>
			<point x="80" y="101" type="line"/>
		</contour>
	</outline>
</glyph>
<glyph name="bracketleft" format="2">
	<advance width="600"/>
	<unicode hex="005B"/>
	<outline>
		<contour>
			<point x="180" y="285" type="line"/>
			<point x="270" y="285" type="line"/>
			<point x="270" y="525" type="line"/>
			<point x="264" y="630" type="line"/>
			<point x="264" y="700" type="line"/>
			<point x="180" y="700" type="line"/>
		</contour>
		<contour>
			<point x="220" y="-100" type="line"/>
			<point x="430" y="-100" type="line"/>
			<point x="430" y="-30" type="line"/>
			<point x="220" y="-30" type="line"/>
		</contour>
		<contour>
			<point x="180" y="-100" type="line"/>
			<point x="264" y="-100" type="line"/>
			<point x="264" y="-30" type="line"/>
			<point x="270" y="75" type="line"/>
			<point x="270" y="315" type="line"/>
			<point x="180" y="315" type="line"/>
		</contour>
		<contour>
			<point x="220" y="630" type="line"/>
			<point x="430" y="630" type="line"/>
			<point x="430" y="700" type="line"/>
			<point x="220" y="700" type="line"/>
		</contour>
	</outline>
</glyph>
<glyph name="asciicircum" format="2">
	<advance width="600"/>
	<unicode hex="005E"/>
	<outline>
		<contour>
			<point x="415" y="435" type="line"/>
			<point x="510" y="435" type="line"/>
			<point x="350" y="700" type="line"/>
			<point x="295" y="700" type="line"/>
			<point x="295" y="630" type="line"/>
			<point x="313" y="630" type="line"/>
		</contour>
		<contour>
			<point x="90" y="435" type="line"/>
			<point x="185" y="435" type="line"/>
			<point x="287" y="630" type="line"/>
			<point x="305" y="630" type="line"/>
			<point x="305" y="700" type="line"/>
			<point x="250" y="700" type="line"/>
		</contour>
	</outline>
</glyph>
<glyph name="underscore" format="2">
	<advance width="600"/>
	<unicode hex="005F"/>
	<outline>
		<contour>
			<point x="85" y="-60" type="line"/>
			<point x="515" y="-60" type="line"/>
			<point x="515" y="10" type="line"/>
			<point x="85" y="10" type="line"/>
		</contour>
	</outline>
</glyph>
<glyph name="a" format="2">
	<advance width="600"/>
	<unicode hex="0061"/>
	<guideline x="304" y="355" angle="0"/>
	<anchor x="292" y="0" name="bottom"/>
	<anchor x="535" y="0" name="ogonek"/>
	<anchor x="292" y="550" name="top"/>
	<outline>
		<contour>
			<point x="223" y="-10" type="curve" smooth="yes"/>
			<point x="304" y="-10"/>
			<point x="380" y="64"/>
			<point x="400" y="145" type="curve"/>
			<point x="430" y="145" type="line"/>
			<point x="430" y="29"/>
			<point x="449" y="0"/>
			<point x="535" y="0" type="curve"/>
			<point x="535" y="75" type="line"/>
			<point x="484" y="75"/>
			<point x="470" y="91"/>
			<point x="470" y="145" type="curve" smooth="yes"/>
			<point x="470" y="355" type="line" smooth="yes"/>
			<point x="469" y="484"/>
			<point x="405" y="550"/>
			<point x="292" y="550" type="curve" smooth="yes"/>
			<point x="179" y="550"/>
			<point x="108" y="485"/>
			<point x="108" y="355" type="curve"/>
			<point x="198" y="355" type="line"/>
			<point x="198" y="411"/>
			<point x="210" y="480"/>
			<point x="292" y="480" type="curve" smooth="yes"/>
			<point x="341" y="480"/>
			<point x="380" y="455"/>
			<point x="380" y="355" type="curve"/>
			<point x="396" y="210" type="line"/>
			<point x="373" y="210" type="line"/>
			<point x="332" y="266"/>
			<point x="268" y="302"/>
			<point x="212" y="302" type="curve" smooth="yes"/>
			<point x="134" y="302"/>
			<point x="65" y="252"/>
			<point x="65" y="147" type="curve" smooth="yes"/>
			<point x="65" y="65"/>
			<point x="128" y="-10"/>
		</contour>
		<contour>
			<point x="153" y="147" type="curve" smooth="yes"/>
			<point x="153" y="211"/>
			<point x="185" y="244"/>
			<point x="236" y="244" type="curve" smooth="yes"/>
			<point x="268" y="244"/>
			<point x="314" y="226"/>
			<point x="358" y="184" type="curve"/>
			<point x="333" y="98"/>
			<point x="271" y="65"/>
			<point x="223" y="65" type="curve" smooth="yes"/>
			<point x="178" y="65"/>
			<point x="153" y="91"/>
		</contour>
	</outline>
</glyph>
<glyph name="b" format="2">
	<advance width="600"/>
	<unicode hex="0062"/>
	<guideline x="288" y="395" angle="0"/>
	<guideline x="316" y="145" angle="0"/>
	<guideline x="510" y="770" angle="0"/>
	<outline>
		<contour>
			<point x="340" y="-10" type="curve" smooth="yes"/>
			<point x="441" y="-10"/>
			<point x="525" y="77"/>
			<point x="525" y="270" type="curve" smooth="yes"/>
			<point x="525" y="482"/>
			<point x="451" y="557"/>
			<point x="340" y="557" type="curve" smooth="yes"/>
			<point x="257" y="557"/>
			<point x="196" y="515"/>
			<point x="170" y="395" type="curve"/>
			<point x="140" y="395" type="line"/>
			<point x="190" y="637" type="line"/>
			<point x="190" y="770" type="line"/>
			<point x="100" y="770" type="line"/>
			<point x="100" y="0" type="line"/>
			<point x="170" y="0" type="line"/>
			<point x="140" y="145" type="line"/>
			<point x="170" y="145" type="line"/>
			<point x="196" y="26"/>
			<point x="275" y="-10"/>
		</contour>
		<contour>
			<point x="323" y="61" type="curve" smooth="yes"/>
			<point x="254" y="61"/>
			<point x="190" y="127"/>
			<point x="190" y="270" type="curve" smooth="yes"/>
			<point x="190" y="413"/>
			<point x="254" y="486"/>
			<point x="323" y="486" type="curve" smooth="yes"/>
			<point x="385" y="486"/>
			<point x="434" y="428"/>
			<point x="435" y="270" type="curve" smooth="yes"/>
			<point x="436" y="107"/>
			<point x="381" y="61"/>
		</contour>
	</outline>
</glyph>
<glyph name="c" format="2">
	<advance width="600"/>
	<unicode hex="0063"/>
	<guideline x="310" y="325" angle="0"/>
	<anchor x="315" y="-10" name="bottom"/>
	<anchor x="315" y="550" name="top"/>
	<outline>
		<contour>
			<point x="85" y="269" type="curve"/>
			<point x="177" y="269" type="line"/>
			<point x="177" y="404"/>
			<point x="232" y="480"/>
			<point x="315" y="480" type="curve"/>
			<point x="315" y="550" type="line"/>
			<point x="182" y="550"/>
			<point x="85" y="454"/>
		</contour>
		<contour>
			<point x="315" y="-10" type="curve"/>
			<point x="315" y="65" type="line"/>
			<point x="232" y="65"/>
			<point x="176" y="133"/>
			<point x="177" y="269" type="curve"/>
			<point x="85" y="269" type="line"/>
			<point x="85" y="84"/>
			<point x="182" y="-10"/>
		</contour>
		<contour>
			<point x="315" y="65" type="curve"/>
			<point x="315" y="-10" type="line"/>
			<point x="439" y="-10"/>
			<point x="525" y="71"/>
			<point x="525" y="215" type="curve"/>
			<point x="435" y="215" type="line"/>
			<point x="435" y="122"/>
			<point x="394" y="65"/>
		</contour>
		<contour>
			<point x="433" y="340" type="curve"/>
			<point x="523" y="340" type="line"/>
			<point x="523" y="462"/>
			<point x="443" y="550"/>
			<point x="315" y="550" type="curve"/>
			<point x="315" y="480" type="line"/>
			<point x="394" y="480"/>
			<point x="433" y="411"/>
		</contour>
	</outline>
</glyph>
<glyph name="e" format="2">
	<advance width="600"/>
	<unicode hex="0065"/>
	<guideline x="510" y="256" angle="0"/>
	<guideline x="48" y="550" angle="0"/>
	<anchor x="300" y="0" name="bottom"/>
	<anchor x="381" y="0" name="ogonek"/>
	<anchor x="300" y="540" name="top"/>
	<outline>
		<contour>
			<point x="310" y="-10" type="curve" smooth="yes"/>
			<point x="420" y="-10"/>
			<point x="487" y="49"/>
			<point x="505" y="165" type="curve"/>
			<point x="413" y="165" type="line"/>
			<point x="405" y="99"/>
			<point x="376" y="65"/>
			<point x="310" y="65" type="curve" smooth="yes"/>
			<point x="232" y="65"/>
			<point x="201" y="111"/>
			<point x="194" y="181" type="curve"/>
			<point x="169" y="256" type="line"/>
			<point x="510" y="256" type="line"/>
			<point x="510" y="331" type="line" smooth="yes"/>
			<point x="510" y="455"/>
			<point x="437" y="550"/>
			<point x="310" y="550" type="curve" smooth="yes"/>
			<point x="182" y="550"/>
			<point x="90" y="453"/>
			<point x="90" y="268" type="curve" smooth="yes"/>
			<point x="90" y="83"/>
			<point x="182" y="-10"/>
		</contour>
		<contour>
			<point x="169" y="321" type="line"/>
			<point x="194" y="396" type="line"/>
			<point x="211" y="449"/>
			<point x="252" y="480"/>
			<point x="310" y="480" type="curve" smooth="yes"/>
			<point x="378" y="480"/>
			<point x="404" y="438"/>
			<point x="415" y="396" type="curve"/>
			<point x="440" y="321" type="line"/>
		</contour>
	</outline>
</glyph>
<glyph name="f" format="2">
	<advance width="600"/>
	<unicode hex="0066"/>
	<guideline x="190" y="350" angle="90"/>
	<outline>
		<contour>
			<point x="196" y="490" type="curve"/>
			<point x="80" y="490" type="line"/>
			<point x="80" y="420" type="line"/>
			<point x="196" y="420" type="line"/>
			<point x="190" y="315" type="line"/>
			<point x="190" y="0" type="line"/>
			<point x="280" y="0" type="line"/>
			<point x="280" y="315" type="line"/>
			<point x="274" y="420" type="line"/>
			<point x="515" y="420" type="line"/>
			<point x="515" y="490" type="line"/>
			<point x="274" y="490" type="line"/>
			<point x="254" y="519"/>
			<point x="243" y="556"/>
			<point x="243" y="591" type="curve" smooth="yes"/>
			<point x="243" y="667"/>
			<point x="295" y="708"/>
			<point x="343" y="708" type="curve" smooth="yes"/>
			<point x="385" y="708"/>
			<point x="425" y="677"/>
			<point x="425" y="610" type="curve"/>
			<point x="515" y="610" type="line"/>
			<point x="515" y="723"/>
			<point x="427" y="778"/>
			<point x="339" y="778" type="curve" smooth="yes"/>
			<point x="252" y="778"/>
			<point x="165" y="722"/>
			<point x="165" y="610" type="curve" smooth="yes"/>
			<point x="165" y="571"/>
			<point x="175" y="531"/>
		</contour>
	</outline>
</glyph>
<glyph name="g" format="2">
	<advance width="600"/>
	<unicode hex="0067"/>
	<guideline x="90" y="119" angle="90"/>
	<anchor x="312" y="-200" name="bottom"/>
	<anchor x="300" y="550" name="top"/>
	<outline>
		<contour>
			<point x="312" y="-200" type="curve" smooth="yes"/>
			<point x="460" y="-200"/>
			<point x="543" y="-126"/>
			<point x="543" y="-47" type="curve" smooth="yes"/>
			<point x="543" y="15"/>
			<point x="493" y="70"/>
			<point x="387" y="70" type="curve" smooth="yes"/>
			<point x="200" y="70" type="line" smooth="yes"/>
			<point x="179" y="70"/>
			<point x="173" y="88"/>
			<point x="185" y="110" type="curve" smooth="yes"/>
			<point x="243" y="214" type="line"/>
			<point x="198" y="215" type="line"/>
			<point x="124" y="114" type="line" smooth="yes"/>
			<point x="105" y="88"/>
			<point x="95" y="64"/>
			<point x="95" y="45" type="curve" smooth="yes"/>
			<point x="95" y="16"/>
			<point x="116" y="-2"/>
			<point x="154" y="-2" type="curve"/>
			<point x="123" y="-29" type="line" smooth="yes"/>
			<point x="96" y="-53"/>
			<point x="84" y="-75"/>
			<point x="84" y="-95" type="curve" smooth="yes"/>
			<point x="84" y="-157"/>
			<point x="195" y="-200"/>
		</contour>
		<contour>
			<point x="312" y="-125" type="curve" smooth="yes"/>
			<point x="219" y="-125"/>
			<point x="132" y="-99"/>
			<point x="168" y="-40" type="curve" smooth="yes"/>
			<point x="192" y="-1" type="line"/>
			<point x="264" y="0" type="line"/>
			<point x="367" y="0" type="line" smooth="yes"/>
			<point x="427" y="0"/>
			<point x="453" y="-24"/>
			<point x="453" y="-53" type="curve" smooth="yes"/>
			<point x="453" y="-93"/>
			<point x="399" y="-125"/>
		</contour>
		<contour>
			<point x="313" y="230" type="curve" smooth="yes"/>
			<point x="233" y="230"/>
			<point x="155" y="255"/>
			<point x="155" y="355" type="curve" smooth="yes"/>
			<point x="155" y="435"/>
			<point x="205" y="474"/>
			<point x="263" y="474" type="curve" smooth="yes"/>
			<point x="312" y="474"/>
			<point x="365" y="446"/>
			<point x="398" y="388" type="curve" smooth="yes"/>
			<point x="417" y="354"/>
			<point x="428" y="323"/>
			<point x="428" y="299" type="curve" smooth="yes"/>
			<point x="428" y="255"/>
			<point x="394" y="230"/>
		</contour>
		<contour>
			<point x="318" y="165" type="curve" smooth="yes"/>
			<point x="432" y="165"/>
			<point x="498" y="199"/>
			<point x="498" y="395" type="curve" smooth="yes"/>
			<point x="498" y="451"/>
			<point x="511" y="465"/>
			<point x="555" y="465" type="curve" smooth="yes"/>
			<point x="565" y="465" type="line"/>
			<point x="565" y="540" type="line"/>
			<point x="555" y="540" type="line" smooth="yes"/>
			<point x="459" y="540"/>
			<point x="452" y="469"/>
			<point x="462" y="402" type="curve" smooth="yes"/>
			<point x="464" y="389" type="line"/>
			<point x="434" y="389" type="line"/>
			<point x="431" y="402" type="line" smooth="yes"/>
			<point x="409" y="497"/>
			<point x="352" y="549"/>
			<point x="258" y="549" type="curve" smooth="yes"/>
			<point x="138" y="549"/>
			<point x="75" y="463"/>
			<point x="75" y="356" type="curve" smooth="yes"/>
			<point x="75" y="209"/>
			<point x="187" y="165"/>
		</contour>
	</outline>
</glyph>
<glyph name="h" format="2">
	<advance width="600"/>
	<unicode hex="0068"/>
	<outline>
		<contour>
			<point x="105" y="0" type="line"/>
			<point x="195" y="0" type="line"/>
			<point x="195" y="272" type="line"/>
			<point x="145" y="395" type="line"/>
			<point x="195" y="637" type="line"/>
			<point x="195" y="770" type="line"/>
			<point x="105" y="770" type="line"/>
		</contour>
		<contour>
			<point x="125" y="272" type="line"/>
			<point x="195" y="272" type="line"/>
			<point x="196" y="408"/>
			<point x="257" y="486"/>
			<point x="328" y="486" type="curve" smooth="yes"/>
			<point x="386" y="486"/>
			<point x="411" y="429"/>
			<point x="410" y="355" type="curve" smooth="yes"/>
			<point x="410" y="0" type="line"/>
			<point x="500" y="0" type="line"/>
			<point x="500" y="355" type="line" smooth="yes"/>
			<point x="500" y="471"/>
			<point x="446" y="557"/>
			<point x="345" y="557" type="curve" smooth="yes"/>
			<point x="262" y="557"/>
			<point x="201" y="514"/>
			<point x="175" y="395" type="curve"/>
			<point x="145" y="395" type="line"/>
			<point x="125" y="330" type="line"/>
		</contour>
	</outline>
</glyph>
<glyph name="k" format="2">
	<advance width="600"/>
	<unicode hex="006B"/>
	<guideline x="200" y="377" angle="90"/>
	<outline>
		<contour>
			<point x="110" y="0" type="line"/>
			<point x="200" y="0" type="line"/>
			<point x="180" y="145" type="line"/>
			<point x="139" y="61" type="line"/>
			<point x="160" y="61" type="line"/>
			<point x="495" y="540" type="line"/>
			<point x="395" y="540" type="line"/>
			<point x="210" y="226" type="line"/>
			<point x="180" y="226" type="line"/>
			<point x="200" y="468" type="line"/>
			<point x="200" y="770" type="line"/>
			<point x="110" y="770" type="line"/>
		</contour>
		<contour>
			<point x="435" y="0" type="line"/>
			<point x="535" y="0" type="line"/>
			<point x="331" y="394" type="line"/>
			<point x="322" y="293" type="line"/>
			<point x="401" y="65" type="line"/>
		</contour>
	</outline>
</glyph>
<glyph name="l" format="2">
	<advance width="600"/>
	<unicode hex="006C"/>
	<guideline x="325" y="800" angle="0"/>
	<guideline x="130" y="770" angle="0"/>
	<anchor x="280" y="0" name="bottom"/>
	<anchor x="280" y="400" name="center"/>
	<anchor x="280" y="770" name="top"/>
	<anchor x="440" y="600" name="topright"/>
	<outline>
		<contour>
			<point x="235" y="234" type="line"/>
			<point x="325" y="234" type="line"/>
			<point x="325" y="594" type="line"/>
			<point x="325" y="770" type="line"/>
			<point x="241" y="770" type="line"/>
			<point x="241" y="699" type="line"/>
			<point x="235" y="594" type="line"/>
		</contour>
		<contour>
			<point x="100" y="0" type="line"/>
			<point x="500" y="0" type="line"/>
			<point x="500" y="75" type="line"/>
			<point x="100" y="75" type="line"/>
		</contour>
		<contour>
			<point x="241" y="0" type="line"/>
			<point x="319" y="0" type="line"/>
			<point x="319" y="75" type="line"/>
			<point x="325" y="180" type="line"/>
			<point x="325" y="266" type="line"/>
			<point x="235" y="266" type="line"/>
			<point x="235" y="180" type="line"/>
			<point x="241" y="75" type="line"/>
		</contour>
		<contour>
			<point x="100" y="700" type="line"/>
			<point x="280" y="700" type="line"/>
			<point x="280" y="770" type="line"/>
			<point x="100" y="770" type="line"/>
		</contour>
	</outline>
</glyph>
<glyph name="m" format="2">
	<advance width="600"/>
	<unicode hex="006D"/>
	<guideline x="48" y="550" angle="0"/>
	<outline>
		<contour>
			<point x="470" y="348" type="curve" smooth="yes"/>
			<point x="470" y="0" type="line"/>
			<point x="555" y="0" type="line"/>
			<point x="555" y="353" type="line" smooth="yes"/>
			<point x="555" y="480"/>
			<point x="523" y="550"/>
			<point x="447" y="550" type="curve" smooth="yes"/>
			<point x="396" y="550"/>
			<point x="351" y="518"/>
			<point x="331" y="388" type="curve"/>
			<point x="301" y="388" type="line"/>
			<point x="285" y="323" type="line"/>
			<point x="285" y="265" type="line"/>
			<point x="350" y="265" type="line"/>
			<point x="350" y="436"/>
			<point x="399" y="479"/>
			<point x="430" y="479" type="curve" smooth="yes"/>
			<point x="460" y="479"/>
			<point x="470" y="438"/>
		</contour>
		<contour>
			<point x="60" y="0" type="line"/>
			<point x="150" y="0" type="line"/>
			<point x="150" y="275" type="line"/>
			<point x="100" y="395" type="line"/>
			<point x="130" y="540" type="line"/>
			<point x="66" y="540" type="line"/>
			<point x="66" y="469" type="line"/>
			<point x="60" y="364" type="line"/>
		</contour>
		<contour>
			<point x="270" y="0" type="line"/>
			<point x="350" y="0" type="line"/>
			<point x="350" y="348" type="line"/>
			<point x="270" y="348" type="line"/>
		</contour>
		<contour>
			<point x="40" y="470" type="line"/>
			<point x="105" y="470" type="line"/>
			<point x="105" y="540" type="line"/>
			<point x="40" y="540" type="line"/>
		</contour>
		<contour>
			<point x="80" y="265" type="line"/>
			<point x="150" y="265" type="line"/>
			<point x="150" y="436"/>
			<point x="204" y="479"/>
			<point x="232" y="479" type="curve" smooth="yes"/>
			<point x="258" y="479"/>
			<point x="270" y="453"/>
			<point x="270" y="348" type="curve"/>
			<point x="350" y="348" type="line"/>
			<point x="301" y="388" type="line"/>
			<point x="307" y="414"/>
			<point x="310" y="440"/>
			<point x="310" y="464" type="curve" smooth="yes"/>
			<point x="310" y="512"/>
			<point x="290" y="550"/>
			<point x="245" y="550" type="curve" smooth="yes"/>
			<point x="203" y="550"/>
			<point x="158" y="527"/>
			<point x="130" y="395" type="curve"/>
			<point x="100" y="395" type="line"/>
			<point x="80" y="330" type="line"/>
		</contour>
	</outline>
</glyph>
<glyph name="n" format="2">
	<advance width="600"/>
	<unicode hex="006E"/>
	<guideline x="5" y="280" angle="0"/>
	<guideline x="322" y="82" angle="90"/>
	<anchor x="322" y="0" name="bottom"/>
	<anchor x="322" y="557" name="top"/>
	<outline>
		<contour>
			<point x="144" y="272" type="line"/>
			<point x="214" y="272" type="line"/>
			<point x="214" y="408"/>
			<point x="276" y="486"/>
			<point x="348" y="486" type="curve" smooth="yes"/>
			<point x="406" y="486"/>
			<point x="431" y="429"/>
			<point x="430" y="355" type="curve" smooth="yes"/>
			<point x="430" y="0" type="line"/>
			<point x="520" y="0" type="line"/>
			<point x="520" y="355" type="line" smooth="yes"/>
			<point x="520" y="471"/>
			<point x="466" y="557"/>
			<point x="365" y="557" type="curve" smooth="yes"/>
			<point x="281" y="557"/>
			<point x="220" y="515"/>
			<point x="194" y="395" type="curve"/>
			<point x="164" y="395" type="line"/>
			<point x="144" y="330" type="line"/>
		</contour>
		<contour>
			<point x="124" y="0" type="line"/>
			<point x="214" y="0" type="line"/>
			<point x="214" y="272" type="line"/>
			<point x="164" y="395" type="line"/>
			<point x="194" y="540" type="line"/>
			<point x="130" y="540" type="line"/>
			<point x="130" y="469" type="line"/>
			<point x="124" y="364" type="line"/>
		</contour>
		<contour>
			<point x="70" y="470" type="line"/>
			<point x="169" y="470" type="line"/>
			<point x="169" y="540" type="line"/>
			<point x="70" y="540" type="line"/>
		</contour>
	</outline>
</glyph>
<glyph name="o" format="2">
	<advance width="600"/>
	<unicode hex="006F"/>
	<anchor x="300" y="0" name="bottom"/>
	<anchor x="300" y="270" name="center"/>
	<anchor x="396" y="10" name="ogonek"/>
	<anchor x="300" y="550" name="top"/>
	<anchor x="580" y="540" name="topright"/>
	<outline>
		<contour>
			<point x="433" y="269" type="curve"/>
			<point x="525" y="269" type="line"/>
			<point x="525" y="464"/>
			<point x="423" y="550"/>
			<point x="300" y="550" type="curve"/>
			<point x="300" y="480" type="line"/>
			<point x="373" y="480"/>
			<point x="433" y="414"/>
		</contour>
		<contour>
			<point x="300" y="-10" type="curve"/>
			<point x="300" y="65" type="line"/>
			<point x="227" y="65"/>
			<point x="166" y="123"/>
			<point x="167" y="269" type="curve"/>
			<point x="75" y="269" type="line"/>
			<point x="75" y="74"/>
			<point x="177" y="-10"/>
		</contour>
		<contour>
			<point x="300" y="65" type="curve"/>
			<point x="300" y="-10" type="line"/>
			<point x="423" y="-10"/>
			<point x="525" y="74"/>
			<point x="525" y="269" type="curve"/>
			<point x="433" y="269" type="line"/>
			<point x="434" y="123"/>
			<point x="373" y="65"/>
		</contour>
		<contour>
			<point x="75" y="269" type="curve"/>
			<point x="167" y="269" type="line"/>
			<point x="167" y="414"/>
			<point x="227" y="480"/>
			<point x="300" y="480" type="curve"/>
			<point x="300" y="550" type="line"/>
			<point x="177" y="550"/>
			<point x="75" y="464"/>
		</contour>
	</outline>
</glyph>
<glyph name="p" format="2">
	<advance width="600"/>
	<unicode hex="0070"/>
	<guideline x="272" y="255" angle="0"/>
	<outline>
		<contour>
			<point x="125" y="-200" type="line"/>
			<point x="215" y="-200" type="line"/>
			<point x="215" y="-97" type="line"/>
			<point x="165" y="145" type="line"/>
			<point x="195" y="145" type="line"/>
			<point x="221" y="26"/>
			<point x="300" y="-10"/>
			<point x="365" y="-10" type="curve" smooth="yes"/>
			<point x="466" y="-10"/>
			<point x="550" y="77"/>
			<point x="550" y="270" type="curve" smooth="yes"/>
			<point x="550" y="482"/>
			<point x="476" y="557"/>
			<point x="365" y="557" type="curve" smooth="yes"/>
			<point x="282" y="557"/>
			<point x="221" y="515"/>
			<point x="195" y="395" type="curve"/>
			<point x="165" y="395" type="line"/>
			<point x="195" y="540" type="line"/>
			<point x="131" y="540" type="line"/>
			<point x="131" y="469" type="line"/>
			<point x="125" y="364" type="line"/>
		</contour>
		<contour>
			<point x="348" y="61" type="curve" smooth="yes"/>
			<point x="279" y="61"/>
			<point x="215" y="127"/>
			<point x="215" y="270" type="curve" smooth="yes"/>
			<point x="215" y="413"/>
			<point x="279" y="486"/>
			<point x="348" y="486" type="curve" smooth="yes"/>
			<point x="410" y="486"/>
			<point x="459" y="428"/>
			<point x="460" y="270" type="curve" smooth="yes"/>
			<point x="461" y="107"/>
			<point x="406" y="61"/>
		</contour>
		<contour>
			<point x="70" y="470" type="line"/>
			<point x="150" y="470" type="line"/>
			<point x="150" y="540" type="line"/>
			<point x="70" y="540" type="line"/>
		</contour>
	</outline>
</glyph>
<glyph name="q" format="2">
	<advance width="600"/>
	<unicode hex="0071"/>
	<outline>
		<contour>
			<point x="270" y="-17" type="curve" smooth="yes"/>
			<point x="353" y="-17"/>
			<point x="414" y="25"/>
			<point x="440" y="145" type="curve"/>
			<point x="470" y="145" type="line"/>
			<point x="420" y="-97" type="line"/>
			<point x="420" y="-200" type="line"/>
			<point x="510" y="-200" type="line"/>
			<point x="510" y="540" type="line"/>
			<point x="440" y="540" type="line"/>
			<point x="470" y="395" type="line"/>
			<point x="440" y="395" type="line"/>
			<point x="414" y="514"/>
			<point x="335" y="550"/>
			<point x="270" y="550" type="curve" smooth="yes"/>
			<point x="169" y="550"/>
			<point x="85" y="463"/>
			<point x="85" y="270" type="curve" smooth="yes"/>
			<point x="85" y="58"/>
			<point x="159" y="-17"/>
		</contour>
		<contour>
			<point x="175" y="270" type="curve" smooth="yes"/>
			<point x="174" y="433"/>
			<point x="229" y="479"/>
			<point x="287" y="479" type="curve" smooth="yes"/>
			<point x="356" y="479"/>
			<point x="420" y="413"/>
			<point x="420" y="270" type="curve" smooth="yes"/>
			<point x="420" y="127"/>
			<point x="356" y="54"/>
			<point x="287" y="54" type="curve" smooth="yes"/>
			<point x="225" y="54"/>
			<point x="176" y="112"/>
		</contour>
	</outline>
</glyph>
<glyph name="r" format="2">
	<advance width="600"/>
	<unicode hex="0072"/>
	<anchor x="170" y="0" name="bottom"/>
	<anchor x="300" y="550" name="top"/>
	<outline>
		<contour>
			<point x="125" y="0" type="line"/>
			<point x="215" y="0" type="line"/>
			<point x="215" y="272" type="line" smooth="yes"/>
			<point x="215" y="408"/>
			<point x="287" y="479"/>
			<point x="358" y="479" type="curve" smooth="yes"/>
			<point x="420" y="479"/>
			<point x="440" y="418"/>
			<point x="440" y="311" type="curve" smooth="yes"/>
			<point x="440" y="302"/>
			<point x="440" y="292"/>
			<point x="440" y="283" type="curve"/>
			<point x="529" y="283" type="line"/>
			<point x="530" y="292"/>
			<point x="530" y="301"/>
			<point x="530" y="311" type="curve" smooth="yes"/>
			<point x="530" y="456"/>
			<point x="486" y="550"/>
			<point x="375" y="550" type="curve" smooth="yes"/>
			<point x="292" y="550"/>
			<point x="221" y="515"/>
			<point x="195" y="395" type="curve"/>
			<point x="165" y="395" type="line"/>
			<point x="195" y="540" type="line"/>
			<point x="131" y="540" type="line"/>
			<point x="131" y="469" type="line"/>
			<point x="125" y="364" type="line"/>
		</contour>
		<contour>
			<point x="70" y="470" type="line"/>
			<point x="150" y="470" type="line"/>
			<point x="150" y="540" type="line"/>
			<point x="70" y="540" type="line"/>
		</contour>
	</outline>
</glyph>
<glyph name="s" format="2">
	<advance width="600"/>
	<unicode hex="0073"/>
	<guideline x="304" y="365" angle="0"/>
	<guideline x="90" y="163" angle="0"/>
	<anchor x="303" y="0" name="bottom"/>
	<anchor x="301" y="540" name="top"/>
	<outline>
		<contour>
			<point x="303" y="-10" type="curve" smooth="yes"/>
			<point x="419" y="-10"/>
			<point x="507" y="52"/>
			<point x="507" y="151" type="curve" smooth="yes"/>
			<point x="507" y="239"/>
			<point x="441" y="282"/>
			<point x="338" y="308" type="curve" smooth="yes"/>
			<point x="283" y="322" type="line" smooth="yes"/>
			<point x="227" y="336"/>
			<point x="190" y="364"/>
			<point x="190" y="400" type="curve" smooth="yes"/>
			<point x="190" y="457"/>
			<point x="248" y="480"/>
			<point x="300" y="480" type="curve" smooth="yes"/>
			<point x="359" y="480"/>
			<point x="422" y="451"/>
			<point x="418" y="365" type="curve"/>
			<point x="510" y="365" type="line"/>
			<point x="514" y="488"/>
			<point x="407" y="550"/>
			<point x="301" y="550" type="curve" smooth="yes"/>
			<point x="205" y="550"/>
			<point x="105" y="500"/>
			<point x="105" y="396" type="curve" smooth="yes"/>
			<point x="105" y="324"/>
			<point x="145" y="270"/>
			<point x="250" y="243" type="curve" smooth="yes"/>
			<point x="305" y="229" type="line" smooth="yes"/>
			<point x="373" y="212"/>
			<point x="417" y="192"/>
			<point x="417" y="147" type="curve" smooth="yes"/>
			<point x="417" y="93"/>
			<point x="373" y="65"/>
			<point x="303" y="65" type="curve" smooth="yes"/>
			<point x="241" y="65"/>
			<point x="175" y="87"/>
			<point x="185" y="163" type="curve"/>
			<point x="95" y="163" type="line"/>
			<point x="73" y="56"/>
			<point x="184" y="-10"/>
		</contour>
	</outline>
</glyph>
<glyph name="t" format="2">
	<advance width="600"/>
	<unicode hex="0074"/>
	<guideline x="205" y="368" angle="90"/>
	<anchor x="354" y="-10" name="bottom"/>
	<anchor x="300" y="270" name="center"/>
	<anchor x="235" y="700" name="top"/>
	<anchor x="440" y="600" name="topright"/>
	<outline>
		<contour>
			<point x="354" y="65" type="curve"/>
			<point x="354" y="-10" type="line"/>
			<point x="440" y="-10"/>
			<point x="520" y="60"/>
			<point x="520" y="176" type="curve"/>
			<point x="430" y="176" type="line"/>
			<point x="430" y="91"/>
			<point x="394" y="64"/>
		</contour>
		<contour>
			<point x="354" y="-10" type="curve"/>
			<point x="354" y="65" type="line"/>
			<point x="314" y="64"/>
			<point x="280" y="91"/>
			<point x="280" y="176" type="curve"/>
			<point x="190" y="176" type="line"/>
			<point x="190" y="60"/>
			<point x="268" y="-10"/>
		</contour>
		<contour>
			<point x="190" y="176" type="line"/>
			<point x="280" y="176" type="line"/>
			<point x="280" y="365" type="line"/>
			<point x="274" y="470" type="line"/>
			<point x="274" y="511" type="line"/>
			<point x="196" y="511" type="line"/>
			<point x="196" y="470" type="line"/>
			<point x="190" y="365" type="line"/>
		</contour>
		<contour>
			<point x="80" y="470" type="line"/>
			<point x="520" y="470" type="line"/>
			<point x="520" y="540" type="line"/>
			<point x="80" y="540" type="line"/>
		</contour>
		<contour>
			<point x="196" y="519" type="line"/>
			<point x="274" y="519" type="line"/>
			<point x="274" y="540" type="line"/>
			<point x="280" y="645" type="line"/>
			<point x="280" y="700" type="line"/>
			<point x="190" y="700" type="line"/>
			<point x="190" y="645" type="line"/>
			<point x="196" y="540" type="line"/>
		</contour>
	</outline>
</glyph>
<glyph name="u" format="2">
	<advance width="600"/>
	<unicode hex="0075"/>
	<anchor x="300" y="0" name="bottom"/>
	<anchor x="555" y="0" name="ogonek"/>
	<anchor x="300" y="540" name="top"/>
	<anchor x="580" y="540" name="topright"/>
	<outline>
		<contour>
			<point x="250" y="-17" type="curve" smooth="yes"/>
			<point x="333" y="-17"/>
			<point x="394" y="25"/>
			<point x="420" y="145" type="curve"/>
			<point x="450" y="145" type="line"/>
			<point x="450" y="29"/>
			<point x="469" y="0"/>
			<point x="555" y="0" type="curve"/>
			<point x="555" y="75" type="line"/>
			<point x="504" y="75"/>
			<point x="490" y="91"/>
			<point x="490" y="145" type="curve" smooth="yes"/>
			<point x="490" y="540" type="line"/>
			<point x="400" y="540" type="line"/>
			<point x="400" y="268" type="line" smooth="yes"/>
			<point x="400" y="130"/>
			<point x="338" y="54"/>
			<point x="267" y="54" type="curve" smooth="yes"/>
			<point x="209" y="54"/>
			<point x="184" y="101"/>
			<point x="185" y="175" type="curve" smooth="yes"/>
			<point x="185" y="540" type="line"/>
			<point x="95" y="540" type="line"/>
			<point x="95" y="175" type="line" smooth="yes"/>
			<point x="95" y="59"/>
			<point x="149" y="-17"/>
		</contour>
	</outline>
</glyph>
<glyph name="v" format="2">
	<advance width="600"/>
	<unicode hex="0076"/>
	<outline>
		<contour>
			<point x="231" y="0" type="line"/>
			<point x="375" y="0" type="line"/>
			<point x="535" y="540" type="line"/>
			<point x="445" y="540" type="line"/>
			<point x="318" y="75" type="line"/>
			<point x="288" y="75" type="line"/>
			<point x="161" y="540" type="line"/>
			<point x="65" y="540" type="line"/>
		</contour>
	</outline>
</glyph>
<glyph name="w" format="2">
	<advance width="600"/>
	<unicode hex="0077"/>
	<guideline x="-37" y="179" angle="0"/>
	<guideline x="433" y="356" angle="0"/>
	<anchor x="300" y="0" name="bottom"/>
	<anchor x="300" y="540" name="top"/>
	<outline>
		<contour>
			<point x="121" y="0" type="line"/>
			<point x="235" y="0" type="line"/>
			<point x="286" y="286" type="line"/>
			<point x="316" y="286" type="line"/>
			<point x="364" y="0" type="line"/>
			<point x="480" y="0" type="line"/>
			<point x="555" y="540" type="line"/>
			<point x="465" y="540" type="line"/>
			<point x="432" y="179" type="line"/>
			<point x="438" y="75" type="line"/>
			<point x="408" y="75" type="line"/>
			<point x="357" y="356" type="line"/>
			<point x="247" y="356" type="line"/>
			<point x="195" y="75" type="line"/>
			<point x="165" y="75" type="line"/>
			<point x="171" y="179" type="line"/>
			<point x="141" y="540" type="line"/>
			<point x="45" y="540" type="line"/>
		</contour>
	</outline>
</glyph>
<glyph name="x" format="2">
	<advance width="600"/>
	<unicode hex="0078"/>
	<outline>
		<contour>
			<point x="238" y="228" type="line"/>
			<point x="368" y="228" type="line"/>
			<point x="525" y="540" type="line"/>
			<point x="435" y="540" type="line"/>
			<point x="318" y="298" type="line"/>
			<point x="288" y="298" type="line"/>
			<point x="171" y="540" type="line"/>
			<point x="75" y="540" type="line"/>
		</contour>
		<contour>
			<point x="75" y="0" type="line"/>
			<point x="171" y="0" type="line"/>
			<point x="288" y="228" type="line"/>
			<point x="318" y="228" type="line"/>
			<point x="435" y="0" type="line"/>
			<point x="525" y="0" type="line"/>
			<point x="368" y="298" type="line"/>
			<point x="238" y="298" type="line"/>
		</contour>
	</outline>
</glyph>
<glyph name="y" format="2">
	<advance width="600"/>
	<unicode hex="0079"/>
	<anchor x="300" y="0" name="bottom"/>
	<anchor x="300" y="540" name="top"/>
	<outline>
		<contour>
			<point x="331" y="0" type="line"/>
			<point x="331" y="75" type="line"/>
			<point x="288" y="75" type="line"/>
			<point x="161" y="540" type="line"/>
			<point x="65" y="540" type="line"/>
			<point x="231" y="0" type="line"/>
		</contour>
		<contour>
			<point x="144" y="-200" type="line"/>
			<point x="219" y="-200" type="line" smooth="yes"/>
			<point x="295" y="-200"/>
			<point x="327" y="-163"/>
			<point x="371" y="-14" type="curve" smooth="yes"/>
			<point x="535" y="540" type="line"/>
			<point x="445" y="540" type="line"/>
			<point x="294" y="-14" type="line" smooth="yes"/>
			<point x="269" y="-104"/>
			<point x="254" y="-125"/>
			<point x="219" y="-125" type="curve" smooth="yes"/>
			<point x="144" y="-125" type="line"/>
		</contour>
	</outline>
</glyph>
<glyph name="z" format="2">
	<advance width="600"/>
	<unicode hex="007A"/>
	<anchor x="300" y="0" name="bottom"/>
	<anchor x="300" y="270" name="center"/>
	<anchor x="300" y="540" name="top"/>
	<outline>
		<contour>
			<point x="105" y="0" type="line"/>
			<point x="505" y="0" type="line"/>
			<point x="505" y="75" type="line"/>
			<point x="192" y="75" type="line"/>
			<point x="495" y="440" type="line"/>
			<point x="495" y="540" type="line"/>
			<point x="95" y="540" type="line"/>
			<point x="95" y="470" type="line"/>
			<point x="411" y="470" type="line"/>
			<point x="105" y="101" type="line"/>
		</contour>
	</outline>
</glyph>
<glyph name="braceleft" format="2">
	<advance width="600"/>
	<unicode hex="007B"/>
	<guideline x="293" y="375" angle="0"/>
	<outline>
		<contour>
			<point x="372" y="-29" type="curve"/>
			<point x="420" y="-29" type="line"/>
			<point x="420" y="41" type="line"/>
			<point x="372" y="41" type="line"/>
			<point x="329" y="41"/>
			<point x="301" y="66"/>
			<point x="301" y="165" type="curve" smooth="yes"/>
			<point x="301" y="224" type="line" smooth="yes"/>
			<point x="301" y="287"/>
			<point x="266" y="325"/>
			<point x="213" y="325" type="curve"/>
			<point x="213" y="355" type="line"/>
			<point x="266" y="355"/>
			<point x="301" y="393"/>
			<point x="301" y="456" type="curve" smooth="yes"/>
			<point x="301" y="515" type="line" smooth="yes"/>
			<point x="301" y="589"/>
			<point x="315" y="639"/>
			<point x="372" y="639" type="curve"/>
			<point x="420" y="639" type="line"/>
			<point x="420" y="709" type="line"/>
			<point x="372" y="709" type="line"/>
			<point x="275" y="709"/>
			<point x="211" y="650"/>
			<point x="211" y="515" type="curve" smooth="yes"/>
			<point x="211" y="455" type="line" smooth="yes"/>
			<point x="211" y="401"/>
			<point x="201" y="375"/>
			<point x="121" y="375" type="curve"/>
			<point x="121" y="305" type="line"/>
			<point x="201" y="305"/>
			<point x="211" y="279"/>
			<point x="211" y="225" type="curve" smooth="yes"/>
			<point x="211" y="165" type="line" smooth="yes"/>
			<point x="211" y="30"/>
			<point x="275" y="-29"/>
		</contour>
	</outline>
</glyph>
<glyph name="asciitilde" format="2">
	<advance width="600"/>
	<unicode hex="007E"/>
	<outline>
		<contour>
			<point x="387" y="229" type="curve" smooth="yes"/>
			<point x="447" y="229"/>
			<point x="501" y="281"/>
			<point x="495" y="358" type="curve"/>
			<point x="425" y="358" type="line"/>
			<point x="429" y="325"/>
			<point x="411" y="304"/>
			<point x="382" y="304" type="curve" smooth="yes"/>
			<point x="328" y="304"/>
			<point x="287" y="373"/>
			<point x="214" y="373" type="curve" smooth="yes"/>
			<point x="154" y="373"/>
			<point x="105" y="320"/>
			<point x="105" y="243" type="curve"/>
			<point x="175" y="243" type="line"/>
			<point x="175" y="268"/>
			<point x="192" y="298"/>
			<point x="219" y="298" type="curve" smooth="yes"/>
			<point x="261" y="298"/>
			<point x="316" y="229"/>
		</contour>
	</outline>
</glyph>
<glyph name="cent" format="2">
	<advance width="600"/>
	<unicode hex="00A2"/>
	<outline>
		<contour>
			<point x="85" y="369" type="curve"/>
			<point x="177" y="369" type="line"/>
			<point x="177" y="504"/>
			<point x="232" y="580"/>
			<point x="315" y="580" type="curve"/>
			<point x="315" y="650" type="line"/>
			<point x="182" y="650"/>
			<point x="85" y="554"/>
		</contour>
		<contour>
			<point x="315" y="90" type="curve"/>
			<point x="315" y="165" type="line"/>
			<point x="232" y="165"/>
			<point x="176" y="233"/>
			<point x="177" y="369" type="curve"/>
			<point x="85" y="369" type="line"/>
			<point x="85" y="184"/>
			<point x="182" y="90"/>
		</contour>
		<contour>
			<point x="315" y="165" type="curve"/>
			<point x="315" y="90" type="line"/>
			<point x="439" y="90"/>
			<point x="525" y="171"/>
			<point x="525" y="315" type="curve"/>
			<point x="435" y="315" type="line"/>
			<point x="435" y="222"/>
			<point x="394" y="165"/>
		</contour>
		<contour>
			<point x="278" y="0" type="line"/>
			<point x="348" y="0" type="line"/>
			<point x="348" y="38" type="line"/>
			<point x="342" y="93" type="line"/>
			<point x="342" y="163" type="line"/>
			<point x="348" y="218" type="line"/>
			<point x="348" y="522" type="line"/>
			<point x="342" y="577" type="line"/>
			<point x="342" y="645" type="line"/>
			<point x="348" y="700" type="line"/>
			<point x="348" y="738" type="line"/>
			<point x="278" y="738" type="line"/>
			<point x="278" y="700" type="line"/>
			<point x="284" y="645" type="line"/>
			<point x="284" y="577" type="line"/>
			<point x="278" y="522" type="line"/>
			<point x="278" y="218" type="line"/>
			<point x="284" y="163" type="line"/>
			<point x="284" y="93" type="line"/>
			<point x="278" y="38" type="line"/>
		</contour>
		<contour>
			<point x="433" y="440" type="curve"/>
			<point x="523" y="440" type="line"/>
			<point x="523" y="562"/>
			<point x="443" y="650"/>
			<point x="315" y="650" type="curve"/>
			<point x="315" y="580" type="line"/>
			<point x="394" y="580"/>
			<point x="433" y="511"/>
		</contour>
	</outline>
</glyph>
<glyph name="sterling" format="2">
	<advance width="600"/>
	<unicode hex="00A3"/>
	<guideline x="80" y="608" angle="90"/>
	<guideline x="515" y="608" angle="90"/>
	<outline>
		<contour>
			<point x="80" y="75" type="curve"/>
			<point x="80" y="0" type="line"/>
			<point x="515" y="0" type="line"/>
			<point x="515" y="75" type="line"/>
			<point x="246" y="75" type="line" smooth="yes"/>
			<point x="215" y="75"/>
			<point x="197" y="65"/>
			<point x="181" y="52" type="curve"/>
			<point x="151" y="52" type="line"/>
			<point x="198" y="91"/>
			<point x="253" y="157"/>
			<point x="253" y="241" type="curve" smooth="yes"/>
			<point x="253" y="346"/>
			<point x="176" y="412"/>
			<point x="176" y="513" type="curve" smooth="yes"/>
			<point x="176" y="584"/>
			<point x="231" y="640"/>
			<point x="300" y="640" type="curve" smooth="yes"/>
			<point x="372" y="640"/>
			<point x="426" y="578"/>
			<point x="423" y="500" type="curve"/>
			<point x="515" y="500" type="line"/>
			<point x="518" y="618"/>
			<point x="439" y="710"/>
			<point x="301" y="710" type="curve" smooth="yes"/>
			<point x="167" y="710"/>
			<point x="80" y="623"/>
			<point x="80" y="513" type="curve" smooth="yes"/>
			<point x="80" y="389"/>
			<point x="165" y="349"/>
			<point x="165" y="229" type="curve" smooth="yes"/>
			<point x="165" y="163"/>
			<point x="117" y="110"/>
		</contour>
		<contour>
			<point x="80" y="270" type="line"/>
			<point x="96" y="270" type="line"/>
			<point x="151" y="276" type="line"/>
			<point x="227" y="276" type="line"/>
			<point x="282" y="270" type="line"/>
			<point x="480" y="270" type="line"/>
			<point x="480" y="340" type="line"/>
			<point x="282" y="340" type="line"/>
			<point x="227" y="334" type="line"/>
			<point x="151" y="334" type="line"/>
			<point x="96" y="340" type="line"/>
			<point x="80" y="340" type="line"/>
		</contour>
	</outline>
</glyph>
<glyph name="yen" format="2">
	<advance width="600"/>
	<unicode hex="00A5"/>
	<outline>
		<contour>
			<point x="273" y="291" type="line"/>
			<point x="327" y="291" type="line"/>
			<point x="540" y="700" type="line"/>
			<point x="445" y="700" type="line"/>
			<point x="315" y="419" type="line"/>
			<point x="285" y="419" type="line"/>
			<point x="160" y="700" type="line"/>
			<point x="60" y="700" type="line"/>
		</contour>
		<contour>
			<point x="80" y="80" type="line"/>
			<point x="520" y="80" type="line"/>
			<point x="520" y="150" type="line"/>
			<point x="80" y="150" type="line"/>
		</contour>
		<contour>
			<point x="255" y="0" type="line"/>
			<point x="345" y="0" type="line"/>
			<point x="345" y="25" type="line"/>
			<point x="339" y="80" type="line"/>
			<point x="339" y="150" type="line"/>
			<point x="345" y="183" type="line"/>
			<point x="345" y="205" type="line"/>
			<point x="339" y="230" type="line"/>
			<point x="339" y="290" type="line"/>
			<point x="339" y="350" type="line"/>
			<point x="261" y="350" type="line"/>
			<point x="261" y="290" type="line"/>
			<point x="261" y="230" type="line"/>
			<point x="255" y="205" type="line"/>
			<point x="255" y="177" type="line"/>
			<point x="261" y="152" type="line"/>
			<point x="261" y="80" type="line"/>
			<point x="255" y="25" type="line"/>
		</contour>
		<contour>
			<point x="80" y="230" type="line"/>
			<point x="520" y="230" type="line"/>
			<point x="520" y="300" type="line"/>
			<point x="80" y="300" type="line"/>
		</contour>
	</outline>
</glyph>
<glyph name="section" format="2">
	<advance width="600"/>
	<unicode hex="00A7"/>
	<outline>
		<contour>
			<point x="303" y="-23" type="curve" smooth="yes"/>
			<point x="432" y="-23"/>
			<point x="507" y="45"/>
			<point x="507" y="128" type="curve" smooth="yes"/>
			<point x="507" y="180"/>
			<point x="477" y="211"/>
			<point x="427" y="240" type="curve"/>
			<point x="470" y="266"/>
			<point x="510" y="310"/>
			<point x="510" y="354" type="curve" smooth="yes"/>
			<point x="510" y="445"/>
			<point x="443" y="501"/>
			<point x="338" y="528" type="curve" smooth="yes"/>
			<point x="283" y="542" type="line" smooth="yes"/>
			<point x="222" y="558"/>
			<point x="187" y="569"/>
			<point x="187" y="605" type="curve" smooth="yes"/>
			<point x="187" y="652"/>
			<point x="245" y="680"/>
			<point x="300" y="680" type="curve" smooth="yes"/>
			<point x="359" y="680"/>
			<point x="422" y="663"/>
			<point x="418" y="587" type="curve"/>
			<point x="510" y="587" type="line"/>
			<point x="514" y="700"/>
			<point x="407" y="750"/>
			<point x="301" y="750" type="curve" smooth="yes"/>
			<point x="205" y="750"/>
			<point x="105" y="695"/>
			<point x="105" y="601" type="curve" smooth="yes"/>
			<point x="105" y="546"/>
			<point x="128" y="517"/>
			<point x="185" y="487" type="curve"/>
			<point x="143" y="463"/>
			<point x="106" y="426"/>
			<point x="106" y="380" type="curve" smooth="yes"/>
			<point x="106" y="306"/>
			<point x="135" y="239"/>
			<point x="250" y="210" type="curve" smooth="yes"/>
			<point x="305" y="196" type="line" smooth="yes"/>
			<point x="380" y="177"/>
			<point x="425" y="172"/>
			<point x="425" y="124" type="curve" smooth="yes"/>
			<point x="425" y="70"/>
			<point x="368" y="52"/>
			<point x="303" y="52" type="curve" smooth="yes"/>
			<point x="235" y="52"/>
			<point x="174" y="73"/>
			<point x="184" y="147" type="curve"/>
			<point x="92" y="147" type="line"/>
			<point x="74" y="49"/>
			<point x="178" y="-23"/>
		</contour>
		<contour>
			<point x="299" y="285" type="curve" smooth="yes"/>
			<point x="226" y="285"/>
			<point x="187" y="326"/>
			<point x="187" y="367" type="curve" smooth="yes"/>
			<point x="187" y="414"/>
			<point x="245" y="447"/>
			<point x="300" y="447" type="curve" smooth="yes"/>
			<point x="368" y="447"/>
			<point x="424" y="423"/>
			<point x="424" y="354" type="curve" smooth="yes"/>
			<point x="424" y="310"/>
			<point x="377" y="285"/>
		</contour>
	</outline>
</glyph>
<glyph name="copyright" format="2">
	<advance width="600"/>
	<unicode hex="00A9"/>
	<outline>
		<contour>
			<point x="496" y="350" type="curve"/>
			<point x="566" y="350" type="line"/>
			<point x="566" y="609"/>
			<point x="452" y="710"/>
			<point x="300" y="710" type="curve"/>
			<point x="300" y="640" type="line"/>
			<point x="408" y="640"/>
			<point x="496" y="582"/>
		</contour>
		<contour>
			<point x="300" y="-10" type="curve"/>
			<point x="300" y="60" type="line"/>
			<point x="192" y="60"/>
			<point x="104" y="118"/>
			<point x="104" y="350" type="curve"/>
			<point x="34" y="350" type="line"/>
			<point x="34" y="91"/>
			<point x="148" y="-10"/>
		</contour>
		<contour>
			<point x="300" y="60" type="curve"/>
			<point x="300" y="-10" type="line"/>
			<point x="452" y="-10"/>
			<point x="566" y="91"/>
			<point x="566" y="350" type="curve"/>
			<point x="496" y="350" type="line"/>
			<point x="496" y="118"/>
			<point x="408" y="60"/>
		</contour>
		<contour>
			<point x="306" y="161" type="curve" smooth="yes"/>
			<point x="378" y="161"/>
			<point x="423" y="212"/>
			<point x="423" y="310" type="curve"/>
			<point x="368" y="310" type="line"/>
			<point x="369" y="237"/>
			<point x="354" y="206"/>
			<point x="306" y="206" type="curve" smooth="yes"/>
			<point x="256" y="206"/>
			<point x="234" y="241"/>
			<point x="234" y="350" type="curve" smooth="yes"/>
			<point x="234" y="459"/>
			<point x="256" y="496"/>
			<point x="306" y="496" type="curve" smooth="yes"/>
			<point x="354" y="496"/>
			<point x="367" y="463"/>
			<point x="367" y="412" type="curve"/>
			<point x="422" y="412" type="line"/>
			<point x="422" y="488"/>
			<point x="378" y="541"/>
			<point x="306" y="541" type="curve" smooth="yes"/>
			<point x="231" y="541"/>
			<point x="179" y="484"/>
			<point x="179" y="350" type="curve" smooth="yes"/>
			<point x="179" y="216"/>
			<point x="231" y="161"/>
		</contour>
		<contour>
			<point x="34" y="350" type="curve"/>
			<point x="104" y="350" type="line"/>
			<point x="104" y="582"/>
			<point x="192" y="640"/>
			<point x="300" y="640" type="curve"/>
			<point x="300" y="710" type="line"/>
			<point x="148" y="710"/>
			<point x="34" y="609"/>
		</contour>
	</outline>
</glyph>
<glyph name="guillemotleft" format="2">
	<advance width="600"/>
	<unicode hex="00AB"/>
	<outline>
		<contour>
			<point x="290" y="270" type="line"/>
			<point x="400" y="270" type="line"/>
			<point x="495" y="490" type="line"/>
			<point x="410" y="490" type="line"/>
		</contour>
		<contour>
			<point x="200" y="50" type="line"/>
			<point x="285" y="50" type="line"/>
			<point x="190" y="270" type="line"/>
			<point x="80" y="270" type="line"/>
		</contour>
		<contour>
			<point x="410" y="50" type="line"/>
			<point x="495" y="50" type="line"/>
			<point x="400" y="270" type="line"/>
			<point x="290" y="270" type="line"/>
		</contour>
		<contour>
			<point x="80" y="270" type="line"/>
			<point x="190" y="270" type="line"/>
			<point x="285" y="490" type="line"/>
			<point x="200" y="490" type="line"/>
		</contour>
	</outline>
</glyph>
<glyph name="logicalnot" format="2">
	<advance width="600"/>
	<unicode hex="00AC"/>
	<outline>
		<contour>
			<point x="85" y="265" type="line"/>
			<point x="515" y="265" type="line"/>
			<point x="515" y="335" type="line"/>
			<point x="85" y="335" type="line"/>
		</contour>
		<contour>
			<point x="440" y="150" type="line"/>
			<point x="515" y="150" type="line"/>
			<point x="515" y="335" type="line"/>
			<point x="450" y="335" type="line"/>
			<point x="450" y="265" type="line"/>
			<point x="440" y="215" type="line"/>
		</contour>
	</outline>
</glyph>
<glyph name="registered" format="2">
	<advance width="600"/>
	<unicode hex="00AE"/>
	<outline>
		<contour>
			<point x="300" y="100" type="curve" smooth="yes"/>
			<point x="465" y="100"/>
			<point x="576" y="236"/>
			<point x="576" y="410" type="curve" smooth="yes"/>
			<point x="576" y="584"/>
			<point x="465" y="720"/>
			<point x="300" y="720" type="curve" smooth="yes"/>
			<point x="135" y="720"/>
			<point x="24" y="584"/>
			<point x="24" y="410" type="curve" smooth="yes"/>
			<point x="24" y="236"/>
			<point x="135" y="100"/>
		</contour>
		<contour>
			<point x="188" y="241" type="line"/>
			<point x="248" y="241" type="line"/>
			<point x="248" y="324" type="line"/>
			<point x="242" y="374" type="line"/>
			<point x="242" y="405" type="line"/>
			<point x="188" y="405" type="line"/>
		</contour>
		<contour>
			<point x="188" y="380" type="line"/>
			<point x="242" y="381" type="line"/>
			<point x="242" y="410" type="line"/>
			<point x="248" y="460" type="line"/>
			<point x="248" y="468" type="line"/>
			<point x="188" y="467" type="line"/>
		</contour>
		<contour>
			<point x="300" y="170" type="curve" smooth="yes"/>
			<point x="175" y="170"/>
			<point x="94" y="276"/>
			<point x="94" y="410" type="curve" smooth="yes"/>
			<point x="94" y="544"/>
			<point x="175" y="650"/>
			<point x="300" y="650" type="curve" smooth="yes"/>
			<point x="425" y="650"/>
			<point x="506" y="544"/>
			<point x="506" y="410" type="curve" smooth="yes"/>
			<point x="506" y="276"/>
			<point x="425" y="170"/>
		</contour>
		<contour>
			<point x="324" y="343" type="curve" smooth="yes"/>
			<point x="364" y="241" type="line"/>
			<point x="429" y="241" type="line"/>
			<point x="378" y="349" type="line" smooth="yes"/>
			<point x="370" y="367"/>
			<point x="340" y="376"/>
			<point x="318" y="376" type="curve"/>
			<point x="318" y="406" type="line"/>
			<point x="365" y="406"/>
			<point x="410" y="433"/>
			<point x="410" y="486" type="curve" smooth="yes"/>
			<point x="410" y="541"/>
			<point x="359" y="584"/>
			<point x="285" y="584" type="curve" smooth="yes"/>
			<point x="198" y="584" type="line"/>
			<point x="198" y="540" type="line"/>
			<point x="271" y="540" type="line" smooth="yes"/>
			<point x="328" y="540"/>
			<point x="350" y="524"/>
			<point x="350" y="486" type="curve" smooth="yes"/>
			<point x="350" y="440"/>
			<point x="319" y="417"/>
			<point x="271" y="417" type="curve" smooth="yes"/>
			<point x="198" y="417" type="line"/>
			<point x="198" y="367" type="line"/>
			<point x="271" y="367" type="line" smooth="yes"/>
			<point x="298" y="367"/>
			<point x="317" y="360"/>
		</contour>
		<contour>
			<point x="188" y="462" type="line"/>
			<point x="248" y="462" type="line"/>
			<point x="248" y="498" type="line"/>
			<point x="242" y="548" type="line"/>
			<point x="242" y="584" type="line"/>
			<point x="188" y="584" type="line"/>
		</contour>
	</outline>
</glyph>
<glyph name="degree" format="2">
	<advance width="600"/>
	<unicode hex="00B0"/>
	<outline>
		<contour>
			<point x="323" y="540" type="curve" smooth="yes"/>
			<point x="323" y="488"/>
			<point x="300" y="463"/>
			<point x="269" y="463" type="curve" smooth="yes"/>
			<point x="238" y="463"/>
			<point x="215" y="488"/>
			<point x="215" y="540" type="curve" smooth="yes"/>
			<point x="215" y="592"/>
			<point x="238" y="617"/>
			<point x="269" y="617" type="curve" smooth="yes"/>
			<point x="300" y="617"/>
			<point x="323" y="592"/>
		</contour>
		<contour>
			<point x="145" y="540" type="curve" smooth="yes"/>
			<point x="145" y="444"/>
			<point x="211" y="408"/>
			<point x="269" y="408" type="curve" smooth="yes"/>
			<point x="327" y="408"/>
			<point x="393" y="444"/>
			<point x="393" y="540" type="curve" smooth="yes"/>
			<point x="393" y="636"/>
			<point x="327" y="672"/>
			<point x="269" y="672" type="curve" smooth="yes"/>
			<point x="211" y="672"/>
			<point x="145" y="636"/>
		</contour>
	</outline>
</glyph>
<glyph name="plusminus" format="2">
	<advance width="600"/>
	<unicode hex="00B1"/>
	<outline>
		<contour>
			<point x="110" y="355" type="line"/>
			<point x="490" y="355" type="line"/>
			<point x="490" y="425" type="line"/>
			<point x="110" y="425" type="line"/>
		</contour>
		<contour>
			<point x="110" y="115" type="line"/>
			<point x="490" y="115" type="line"/>
			<point x="490" y="185" type="line"/>
			<point x="110" y="185" type="line"/>
		</contour>
		<contour>
			<point x="265" y="240" type="line"/>
			<point x="335" y="240" type="line"/>
			<point x="335" y="300" type="line"/>
			<point x="329" y="355" type="line"/>
			<point x="329" y="425" type="line"/>
			<point x="335" y="480" type="line"/>
			<point x="335" y="540" type="line"/>
			<point x="265" y="540" type="line"/>
			<point x="265" y="480" type="line"/>
			<point x="271" y="425" type="line"/>
			<point x="271" y="355" type="line"/>
			<point x="265" y="300" type="line"/>
		</contour>
	</outline>
</glyph>
<glyph name="paragraph" format="2">
	<advance width="600"/>
	<unicode hex="00B6"/>
	<outline>
		<contour>
			<point x="445" y="0" type="line"/>
			<point x="535" y="0" type="line"/>
			<point x="535" y="700" type="line"/>
			<point x="445" y="700" type="line"/>
		</contour>
		<contour>
			<point x="255" y="304" type="curve"/>
			<point x="255" y="379" type="line"/>
			<point x="201" y="379"/>
			<point x="166" y="433"/>
			<point x="167" y="501" type="curve"/>
			<point x="75" y="501" type="line"/>
			<point x="75" y="391"/>
			<point x="150" y="304"/>
		</contour>
		<contour>
			<point x="255" y="0" type="line"/>
			<point x="345" y="0" type="line"/>
			<point x="345" y="700" type="line"/>
			<point x="255" y="700" type="line"/>
		</contour>
		<contour>
			<point x="75" y="501" type="curve"/>
			<point x="167" y="501" type="line"/>
			<point x="167" y="573"/>
			<point x="201" y="630"/>
			<point x="255" y="630" type="curve"/>
			<point x="255" y="700" type="line"/>
			<point x="150" y="700"/>
			<point x="75" y="612"/>
		</contour>
	</outline>
</glyph>
<glyph name="AE" format="2">
	<advance width="600"/>
	<unicode hex="00C6"/>
	<guideline x="37" y="110" angle="0"/>
	<guideline x="87" y="350" angle="0"/>
	<outline>
		<contour>
			<point x="25" y="0" type="line"/>
			<point x="117" y="0" type="line"/>
			<point x="139" y="110" type="line"/>
			<point x="151" y="194" type="line"/>
			<point x="165" y="265" type="line"/>
			<point x="187" y="350" type="line"/>
			<point x="242" y="630" type="line"/>
			<point x="381" y="630" type="line"/>
			<point x="381" y="700" type="line"/>
			<point x="185" y="700" type="line"/>
		</contour>
		<contour>
			<point x="310" y="0" type="line"/>
			<point x="394" y="0" type="line"/>
			<point x="394" y="60" type="line"/>
			<point x="400" y="165" type="line"/>
			<point x="400" y="215" type="line"/>
			<point x="315" y="195" type="line"/>
			<point x="310" y="110" type="line"/>
		</contour>
		<contour>
			<point x="132" y="195" type="line"/>
			<point x="337" y="195" type="line"/>
			<point x="337" y="265" type="line"/>
			<point x="132" y="265" type="line"/>
		</contour>
		<contour>
			<point x="345" y="0" type="line"/>
			<point x="575" y="0" type="line"/>
			<point x="575" y="75" type="line"/>
			<point x="345" y="75" type="line"/>
		</contour>
		<contour>
			<point x="315" y="195" type="line"/>
			<point x="400" y="210" type="line"/>
			<point x="400" y="230" type="line"/>
			<point x="394" y="335" type="line"/>
			<point x="394" y="395" type="line"/>
			<point x="310" y="395" type="line"/>
			<point x="310" y="350" type="line"/>
			<point x="315" y="265" type="line"/>
		</contour>
		<contour>
			<point x="394" y="325" type="line"/>
			<point x="394" y="385" type="line"/>
			<point x="400" y="490" type="line"/>
			<point x="400" y="510" type="line"/>
			<point x="310" y="510" type="line"/>
			<point x="310" y="350" type="line"/>
		</contour>
		<contour>
			<point x="345" y="325" type="line"/>
			<point x="555" y="325" type="line"/>
			<point x="555" y="395" type="line"/>
			<point x="345" y="395" type="line"/>
		</contour>
		<contour>
			<point x="310" y="495" type="line"/>
			<point x="400" y="495" type="line"/>
			<point x="400" y="535" type="line"/>
			<point x="394" y="640" type="line"/>
			<point x="394" y="700" type="line"/>
			<point x="310" y="700" type="line"/>
			<point x="316" y="640" type="line"/>
			<point x="310" y="535" type="line"/>
		</contour>
		<contour>
			<point x="345" y="630" type="line"/>
			<point x="565" y="630" type="line"/>
			<point x="565" y="700" type="line"/>
			<point x="345" y="700" type="line"/>
		</contour>
	</outline>
</glyph>
<glyph name="Eth" format="2">
	<advance width="600"/>
	<unicode hex="00D0"/>
	<outline>
		<contour>
			<point x="158" y="0" type="line"/>
			<point x="286" y="0" type="line"/>
			<point x="442" y="0"/>
			<point x="546" y="150"/>
			<point x="546" y="376" type="curve" smooth="yes"/>
			<point x="546" y="570"/>
			<point x="442" y="700"/>
			<point x="286" y="700" type="curve"/>
			<point x="158" y="700" type="line"/>
			<point x="158" y="630" type="line"/>
			<point x="286" y="630" type="line"/>
			<point x="387" y="630"/>
			<point x="455" y="528"/>
			<point x="455" y="376" type="curve" smooth="yes"/>
			<point x="455" y="192"/>
			<point x="387" y="70"/>
			<point x="286" y="70" type="curve"/>
			<point x="158" y="70" type="line"/>
		</contour>
		<contour>
			<point x="108" y="0" type="line"/>
			<point x="192" y="0" type="line"/>
			<point x="192" y="60" type="line"/>
			<point x="198" y="165" type="line"/>
			<point x="198" y="215" type="line"/>
			<point x="192" y="315" type="line"/>
			<point x="192" y="385" type="line"/>
			<point x="198" y="485" type="line"/>
			<point x="198" y="535" type="line"/>
			<point x="192" y="640" type="line"/>
			<point x="192" y="700" type="line"/>
			<point x="108" y="700" type="line"/>
			<point x="108" y="485" type="line"/>
			<point x="114" y="385" type="line"/>
			<point x="114" y="315" type="line"/>
			<point x="108" y="215" type="line"/>
		</contour>
		<contour>
			<point x="44" y="315" type="line"/>
			<point x="342" y="315" type="line"/>
			<point x="342" y="385" type="line"/>
			<point x="44" y="385" type="line"/>
		</contour>
	</outline>
</glyph>
<glyph name="multiply" format="2">
	<advance width="600"/>
	<unicode hex="00D7"/>
	<outline>
		<contour>
			<point x="176" y="127" type="line"/>
			<point x="300" y="251" type="line"/>
			<point x="424" y="127" type="line"/>
			<point x="473" y="176" type="line"/>
			<point x="349" y="300" type="line"/>
			<point x="473" y="424" type="line"/>
			<point x="424" y="473" type="line"/>
			<point x="300" y="349" type="line"/>
			<point x="176" y="473" type="line"/>
			<point x="127" y="424" type="line"/>
			<point x="251" y="300" type="line"/>
			<point x="127" y="176" type="line"/>
		</contour>
	</outline>
</glyph>
<glyph name="Oslash" format="2">
	<advance width="600"/>
	<unicode hex="00D8"/>
	<outline>
		<contour>
			<point x="72" y="0" type="line"/>
			<point x="152" y="0" type="line"/>
			<point x="161" y="35" type="line"/>
			<point x="177" y="71" type="line"/>
			<point x="260" y="202" type="line"/>
			<point x="404" y="469" type="line"/>
			<point x="448" y="574" type="line"/>
			<point x="478" y="621" type="line"/>
			<point x="528" y="700" type="line"/>
			<point x="448" y="700" type="line"/>
			<point x="439" y="665" type="line"/>
			<point x="423" y="629" type="line"/>
			<point x="340" y="498" type="line"/>
			<point x="196" y="231" type="line"/>
			<point x="152" y="126" type="line"/>
			<point x="122" y="79" type="line"/>
		</contour>
		<contour>
			<point x="300" y="-10" type="curve"/>
			<point x="300" y="65" type="line"/>
			<point x="200" y="65"/>
			<point x="146" y="145"/>
			<point x="146" y="350" type="curve"/>
			<point x="65" y="350" type="line"/>
			<point x="65" y="85"/>
			<point x="151" y="-10"/>
		</contour>
		<contour>
			<point x="300" y="65" type="curve"/>
			<point x="300" y="-10" type="line"/>
			<point x="449" y="-10"/>
			<point x="535" y="85"/>
			<point x="535" y="350" type="curve"/>
			<point x="454" y="350" type="line"/>
			<point x="454" y="145"/>
			<point x="400" y="65"/>
		</contour>
		<contour>
			<point x="65" y="350" type="curve"/>
			<point x="146" y="350" type="line"/>
			<point x="146" y="565"/>
			<point x="200" y="640"/>
			<point x="300" y="640" type="curve"/>
			<point x="300" y="710" type="line"/>
			<point x="151" y="710"/>
			<point x="65" y="615"/>
		</contour>
		<contour>
			<point x="454" y="350" type="curve"/>
			<point x="535" y="350" type="line"/>
			<point x="535" y="615"/>
			<point x="449" y="710"/>
			<point x="300" y="710" type="curve"/>
			<point x="300" y="640" type="line"/>
			<point x="400" y="640"/>
			<point x="454" y="565"/>
		</contour>
	</outline>
</glyph>
<glyph name="Thorn" format="2">
	<advance width="600"/>
	<unicode hex="00DE"/>
	<outline>
		<contour>
			<point x="130" y="172" type="line"/>
			<point x="311" y="172" type="line" smooth="yes"/>
			<point x="455" y="172"/>
			<point x="538" y="259"/>
			<point x="538" y="372" type="curve" smooth="yes"/>
			<point x="538" y="496"/>
			<point x="439" y="566"/>
			<point x="312" y="566" type="curve" smooth="yes"/>
			<point x="130" y="566" type="line"/>
			<point x="130" y="496" type="line"/>
			<point x="306" y="496" type="line" smooth="yes"/>
			<point x="380" y="496"/>
			<point x="448" y="471"/>
			<point x="448" y="372" type="curve" smooth="yes"/>
			<point x="448" y="268"/>
			<point x="376" y="242"/>
			<point x="298" y="242" type="curve" smooth="yes"/>
			<point x="130" y="242" type="line"/>
		</contour>
		<contour>
			<point x="90" y="0" type="line"/>
			<point x="180" y="0" type="line"/>
			<point x="180" y="77" type="line"/>
			<point x="174" y="182" type="line"/>
			<point x="174" y="242" type="line"/>
			<point x="90" y="242" type="line"/>
		</contour>
		<contour>
			<point x="90" y="172" type="line"/>
			<point x="174" y="172" type="line"/>
			<point x="174" y="232" type="line"/>
			<point x="180" y="337" type="line"/>
			<point x="180" y="396" type="line"/>
			<point x="90" y="396" type="line"/>
		</contour>
		<contour>
			<point x="90" y="391" type="line"/>
			<point x="180" y="391" type="line"/>
			<point x="180" y="401" type="line"/>
			<point x="174" y="506" type="line"/>
			<point x="174" y="566" type="line"/>
			<point x="90" y="566" type="line"/>
		</contour>
		<contour>
			<point x="90" y="506" type="line"/>
			<point x="174" y="506" type="line"/>
			<point x="174" y="566" type="line"/>
			<point x="180" y="660" type="line"/>
			<point x="180" y="700" type="line"/>
			<point x="90" y="700" type="line"/>
		</contour>
	</outline>
</glyph>
<glyph name="germandbls" format="2">
	<advance width="600"/>
	<unicode hex="00DF"/>
	<guideline x="343" y="778" angle="0"/>
	<outline>
		<contour>
			<point x="284" y="72" type="curve"/>
			<point x="284" y="0" type="line"/>
			<point x="474" y="-28"/>
			<point x="550" y="71"/>
			<point x="550" y="162" type="curve" smooth="yes"/>
			<point x="550" y="245"/>
			<point x="486" y="323"/>
			<point x="354" y="323" type="curve"/>
			<point x="354" y="353" type="line"/>
			<point x="435" y="353"/>
			<point x="499" y="411"/>
			<point x="499" y="528" type="curve" smooth="yes"/>
			<point x="499" y="668"/>
			<point x="418" y="778"/>
			<point x="288" y="778" type="curve" smooth="yes"/>
			<point x="186" y="778"/>
			<point x="100" y="711"/>
			<point x="100" y="560" type="curve" smooth="yes"/>
			<point x="100" y="0" type="line"/>
			<point x="190" y="0" type="line"/>
			<point x="190" y="560" type="line" smooth="yes"/>
			<point x="190" y="655"/>
			<point x="232" y="708"/>
			<point x="289" y="708" type="curve" smooth="yes"/>
			<point x="358" y="708"/>
			<point x="409" y="629"/>
			<point x="409" y="528" type="curve" smooth="yes"/>
			<point x="409" y="431"/>
			<point x="355" y="388"/>
			<point x="284" y="388" type="curve"/>
			<point x="284" y="288" type="line"/>
			<point x="402" y="288"/>
			<point x="460" y="224"/>
			<point x="460" y="165" type="curve" smooth="yes"/>
			<point x="460" y="105"/>
			<point x="400" y="49"/>
		</contour>
	</outline>
</glyph>
<glyph name="ae" format="2">
	<advance width="600"/>
	<unicode hex="00E6"/>
	<guideline x="805" y="147" angle="90"/>
	<outline>
		<contour>
			<point x="159" y="-10" type="curve" smooth="yes"/>
			<point x="213" y="-10"/>
			<point x="276" y="37"/>
			<point x="276" y="145" type="curve"/>
			<point x="335" y="145" type="line"/>
			<point x="335" y="355" type="line"/>
			<point x="286" y="395" type="line"/>
			<point x="286" y="510"/>
			<point x="228" y="549"/>
			<point x="168" y="550" type="curve" smooth="yes"/>
			<point x="101" y="550"/>
			<point x="31" y="500"/>
			<point x="31" y="355" type="curve"/>
			<point x="116" y="355" type="line"/>
			<point x="116" y="445"/>
			<point x="149" y="480"/>
			<point x="183" y="480" type="curve" smooth="yes"/>
			<point x="213" y="480"/>
			<point x="248" y="453"/>
			<point x="248" y="395" type="curve"/>
			<point x="266" y="210" type="line"/>
			<point x="236" y="210" type="line"/>
			<point x="236" y="270"/>
			<point x="190" y="302"/>
			<point x="144" y="302" type="curve" smooth="yes"/>
			<point x="87" y="302"/>
			<point x="25" y="253"/>
			<point x="25" y="147" type="curve" smooth="yes"/>
			<point x="25" y="44"/>
			<point x="94" y="-10"/>
		</contour>
		<contour>
			<point x="158" y="65" type="curve" smooth="yes"/>
			<point x="134" y="65"/>
			<point x="110" y="90"/>
			<point x="110" y="147" type="curve" smooth="yes"/>
			<point x="110" y="210"/>
			<point x="139" y="242"/>
			<point x="167" y="242" type="curve" smooth="yes"/>
			<point x="201" y="242"/>
			<point x="219" y="201"/>
			<point x="219" y="159" type="curve" smooth="yes"/>
			<point x="219" y="99"/>
			<point x="187" y="65"/>
		</contour>
		<contour>
			<point x="424" y="-10" type="curve" smooth="yes"/>
			<point x="494" y="-10"/>
			<point x="554" y="49"/>
			<point x="571" y="165" type="curve"/>
			<point x="486" y="165" type="line"/>
			<point x="486" y="99"/>
			<point x="457" y="65"/>
			<point x="424" y="65" type="curve" smooth="yes"/>
			<point x="385" y="65"/>
			<point x="354" y="111"/>
			<point x="354" y="181" type="curve"/>
			<point x="339" y="256" type="line"/>
			<point x="339" y="321" type="line"/>
			<point x="354" y="396" type="line"/>
			<point x="362" y="452"/>
			<point x="392" y="480"/>
			<point x="422" y="480" type="curve" smooth="yes"/>
			<point x="452" y="480"/>
			<point x="484" y="452"/>
			<point x="486" y="396" type="curve"/>
			<point x="501" y="321" type="line"/>
			<point x="575" y="289" type="line"/>
			<point x="575" y="331" type="line" smooth="yes"/>
			<point x="575" y="454"/>
			<point x="505" y="551"/>
			<point x="422" y="550" type="curve" smooth="yes"/>
			<point x="363" y="549"/>
			<point x="316" y="498"/>
			<point x="316" y="395" type="curve"/>
			<point x="286" y="395" type="line"/>
			<point x="276" y="145" type="line"/>
			<point x="306" y="145" type="line"/>
			<point x="306" y="37"/>
			<point x="362" y="-10"/>
		</contour>
		<contour>
			<point x="339" y="256" type="line"/>
			<point x="575" y="256" type="line"/>
			<point x="575" y="321" type="line"/>
			<point x="339" y="321" type="line"/>
		</contour>
	</outline>
</glyph>
<glyph name="eth" format="2">
	<advance width="600"/>
	<unicode hex="00F0"/>
	<guideline x="525" y="440" angle="90"/>
	<outline>
		<contour>
			<point x="300" y="-10" type="curve" smooth="yes"/>
			<point x="423" y="-10"/>
			<point x="525" y="104"/>
			<point x="525" y="269" type="curve" smooth="yes"/>
			<point x="525" y="430"/>
			<point x="427" y="638"/>
			<point x="302" y="717" type="curve"/>
			<point x="194" y="700" type="line"/>
			<point x="308" y="632"/>
			<point x="422" y="523"/>
			<point x="460" y="402" type="curve"/>
			<point x="430" y="402" type="line"/>
			<point x="389" y="464"/>
			<point x="333" y="492"/>
			<point x="271" y="492" type="curve" smooth="yes"/>
			<point x="172" y="492"/>
			<point x="75" y="396"/>
			<point x="75" y="249" type="curve" smooth="yes"/>
			<point x="75" y="84"/>
			<point x="177" y="-10"/>
		</contour>
		<contour>
			<point x="300" y="65" type="curve" smooth="yes"/>
			<point x="227" y="65"/>
			<point x="167" y="133"/>
			<point x="167" y="249" type="curve" smooth="yes"/>
			<point x="167" y="364"/>
			<point x="227" y="420"/>
			<point x="300" y="420" type="curve" smooth="yes"/>
			<point x="373" y="420"/>
			<point x="433" y="364"/>
			<point x="433" y="249" type="curve" smooth="yes"/>
			<point x="433" y="133"/>
			<point x="373" y="65"/>
		</contour>
		<contour>
			<point x="86" y="545" type="line"/>
			<point x="294" y="554" type="line"/>
			<point x="358" y="568" type="line"/>
			<point x="430" y="571" type="line"/>
			<point x="486" y="564" type="line"/>
			<point x="516" y="565" type="line"/>
			<point x="506" y="635" type="line"/>
			<point x="461" y="633" type="line"/>
			<point x="396" y="625" type="line"/>
			<point x="304" y="622" type="line"/>
			<point x="245" y="622" type="line"/>
			<point x="76" y="615" type="line"/>
		</contour>
	</outline>
</glyph>
<glyph name="divide" format="2">
	<advance width="600"/>
	<unicode hex="00F7"/>
	<outline>
		<contour>
			<point x="60" y="265" type="line"/>
			<point x="540" y="265" type="line"/>
			<point x="540" y="335" type="line"/>
			<point x="60" y="335" type="line"/>
		</contour>
		<contour>
			<point x="240" y="45" type="line"/>
			<point x="360" y="45" type="line"/>
			<point x="360" y="165" type="line"/>
			<point x="240" y="165" type="line"/>
		</contour>
		<contour>
			<point x="240" y="435" type="line"/>
			<point x="360" y="435" type="line"/>
			<point x="360" y="555" type="line"/>
			<point x="240" y="555" type="line"/>
		</contour>
	</outline>
</glyph>
<glyph name="oslash" format="2">
	<advance width="600"/>
	<unicode hex="00F8"/>
	<outline>
		<contour>
			<point x="50" y="0" type="line"/>
			<point x="138" y="0" type="line"/>
			<point x="160" y="39" type="line"/>
			<point x="203" y="96" type="line"/>
			<point x="263" y="163" type="line"/>
			<point x="387" y="326" type="line"/>
			<point x="427" y="389" type="line"/>
			<point x="477" y="458" type="line"/>
			<point x="550" y="540" type="line"/>
			<point x="462" y="540" type="line"/>
			<point x="440" y="501" type="line"/>
			<point x="397" y="444" type="line"/>
			<point x="337" y="377" type="line"/>
			<point x="213" y="214" type="line"/>
			<point x="173" y="151" type="line"/>
			<point x="123" y="82" type="line"/>
		</contour>
		<contour>
			<point x="300" y="-10" type="curve"/>
			<point x="300" y="65" type="line"/>
			<point x="219" y="65"/>
			<point x="156" y="118"/>
			<point x="157" y="269" type="curve"/>
			<point x="75" y="269" type="line"/>
			<point x="75" y="74"/>
			<point x="177" y="-10"/>
		</contour>
		<contour>
			<point x="300" y="65" type="curve"/>
			<point x="300" y="-10" type="line"/>
			<point x="423" y="-10"/>
			<point x="525" y="74"/>
			<point x="525" y="269" type="curve"/>
			<point x="443" y="269" type="line"/>
			<point x="444" y="149"/>
			<point x="402" y="65"/>
		</contour>
		<contour>
			<point x="75" y="269" type="curve"/>
			<point x="157" y="269" type="line"/>
			<point x="157" y="393"/>
			<point x="199" y="480"/>
			<point x="300" y="480" type="curve"/>
			<point x="300" y="550" type="line"/>
			<point x="177" y="550"/>
			<point x="75" y="464"/>
		</contour>
		<contour>
			<point x="443" y="269" type="curve"/>
			<point x="525" y="269" type="line"/>
			<point x="525" y="464"/>
			<point x="423" y="550"/>
			<point x="300" y="550" type="curve"/>
			<point x="300" y="480" type="line"/>
			<point x="380" y="480"/>
			<point x="443" y="425"/>
		</contour>
	</outline>
</glyph>
<glyph name="Hbar" format="2">
	<advance width="600"/>
	<unicode hex="0126"/>
	<outline>
		<contour>
			<point x="430" y="0" type="line"/>
			<point x="520" y="0" type="line"/>
			<point x="520" y="490" type="line"/>
			<point x="514" y="540" type="line"/>
			<point x="514" y="610" type="line"/>
			<point x="520" y="660" type="line"/>
			<point x="520" y="700" type="line"/>
			<point x="430" y="700" type="line"/>
			<point x="430" y="660" type="line"/>
			<point x="436" y="610" type="line"/>
			<point x="436" y="540" type="line"/>
			<point x="430" y="490" type="line"/>
			<point x="430" y="460" type="line"/>
			<point x="436" y="395" type="line"/>
			<point x="436" y="325" type="line"/>
			<point x="430" y="220" type="line"/>
		</contour>
		<contour>
			<point x="80" y="0" type="line"/>
			<point x="170" y="0" type="line"/>
			<point x="170" y="220" type="line"/>
			<point x="164" y="325" type="line"/>
			<point x="164" y="395" type="line"/>
			<point x="170" y="460" type="line"/>
			<point x="170" y="490" type="line"/>
			<point x="164" y="540" type="line"/>
			<point x="164" y="610" type="line"/>
			<point x="170" y="660" type="line"/>
			<point x="170" y="700" type="line"/>
			<point x="80" y="700" type="line"/>
			<point x="80" y="660" type="line"/>
			<point x="86" y="610" type="line"/>
			<point x="86" y="540" type="line"/>
			<point x="80" y="490" type="line"/>
		</contour>
		<contour>
			<point x="120" y="325" type="line"/>
			<point x="480" y="325" type="line"/>
			<point x="480" y="395" type="line"/>
			<point x="120" y="395" type="line"/>
		</contour>
		<contour>
			<point x="39" y="540" type="line"/>
			<point x="561" y="540" type="line"/>
			<point x="561" y="610" type="line"/>
			<point x="39" y="610" type="line"/>
		</contour>
	</outline>
</glyph>
<glyph name="dotlessi" format="2">
	<advance width="600"/>
	<unicode hex="0131"/>
	<anchor x="300" y="0" name="bottom"/>
	<anchor x="520" y="0" name="ogonek"/>
	<anchor x="300" y="540" name="top"/>
	<outline>
		<contour>
			<point x="80" y="0" type="line"/>
			<point x="520" y="0" type="line"/>
			<point x="520" y="75" type="line"/>
			<point x="339" y="75" type="line"/>
			<point x="345" y="180" type="line"/>
			<point x="345" y="540" type="line"/>
			<point x="80" y="540" type="line"/>
			<point x="80" y="470" type="line"/>
			<point x="261" y="470" type="line"/>
			<point x="255" y="365" type="line"/>
			<point x="255" y="180" type="line"/>
			<point x="261" y="75" type="line"/>
			<point x="80" y="75" type="line"/>
		</contour>
	</outline>
</glyph>
<glyph name="IJ" format="2">
	<advance width="600"/>
	<unicode hex="0132"/>
	<outline>
		<contour>
			<point x="300" y="-10" type="curve"/>
			<point x="300" y="65" type="line"/>
			<point x="206" y="65"/>
			<point x="177" y="117"/>
			<point x="177" y="260" type="curve"/>
			<point x="85" y="260" type="line"/>
			<point x="85" y="66"/>
			<point x="157" y="-10"/>
		</contour>
		<contour>
			<point x="300" y="65" type="curve"/>
			<point x="300" y="-10" type="line"/>
			<point x="460" y="-10"/>
			<point x="510" y="95"/>
			<point x="510" y="248" type="curve"/>
			<point x="420" y="248" type="line"/>
			<point x="420" y="110"/>
			<point x="372" y="65"/>
		</contour>
		<contour>
			<point x="420" y="248" type="line"/>
			<point x="510" y="248" type="line"/>
			<point x="510" y="700" type="line"/>
			<point x="426" y="700" type="line"/>
			<point x="426" y="629" type="line"/>
			<point x="420" y="524" type="line"/>
		</contour>
		<contour>
			<point x="275" y="630" type="line"/>
			<point x="480" y="630" type="line"/>
			<point x="480" y="700" type="line"/>
			<point x="275" y="700" type="line"/>
		</contour>
		<contour>
			<point x="85" y="360" type="line"/>
			<point x="175" y="360" type="line"/>
			<point x="175" y="700" type="line"/>
			<point x="85" y="700" type="line"/>
		</contour>
	</outline>
</glyph>
<glyph name="ij" format="2">
	<advance width="600"/>
	<unicode hex="0133"/>
	<outline>
		<contour>
			<point x="135" y="0" type="line"/>
			<point x="225" y="0" type="line"/>
			<point x="225" y="340" type="line"/>
			<point x="135" y="340" type="line"/>
		</contour>
		<contour>
			<point x="130" y="630" type="line"/>
			<point x="230" y="630" type="line"/>
			<point x="230" y="725" type="line"/>
			<point x="130" y="725" type="line"/>
		</contour>
		<contour>
			<point x="445" y="-44" type="line"/>
			<point x="535" y="-14" type="line"/>
			<point x="535" y="340" type="line"/>
			<point x="445" y="340" type="line"/>
		</contour>
		<contour>
			<point x="135" y="-200" type="line"/>
			<point x="371" y="-200" type="line"/>
			<point x="371" y="-125" type="line"/>
			<point x="135" y="-125" type="line"/>
		</contour>
		<contour>
			<point x="371" y="-125" type="curve"/>
			<point x="371" y="-200" type="line"/>
			<point x="457" y="-200"/>
			<point x="535" y="-161"/>
			<point x="535" y="-14" type="curve"/>
			<point x="445" y="-44" type="line"/>
			<point x="444" y="-110"/>
			<point x="412" y="-126"/>
		</contour>
		<contour>
			<point x="440" y="620" type="line"/>
			<point x="540" y="620" type="line"/>
			<point x="540" y="715" type="line"/>
			<point x="440" y="715" type="line"/>
		</contour>
		<contour>
			<point x="445" y="234" type="line"/>
			<point x="535" y="234" type="line"/>
			<point x="535" y="364" type="line"/>
			<point x="535" y="540" type="line"/>
			<point x="451" y="540" type="line"/>
			<point x="451" y="469" type="line"/>
			<point x="445" y="364" type="line"/>
		</contour>
		<contour>
			<point x="370" y="470" type="line"/>
			<point x="490" y="470" type="line"/>
			<point x="490" y="540" type="line"/>
			<point x="370" y="540" type="line"/>
		</contour>
		<contour>
			<point x="135" y="234" type="line"/>
			<point x="225" y="234" type="line"/>
			<point x="225" y="364" type="line"/>
			<point x="225" y="540" type="line"/>
			<point x="141" y="540" type="line"/>
			<point x="141" y="469" type="line"/>
			<point x="135" y="364" type="line"/>
		</contour>
		<contour>
			<point x="60" y="470" type="line"/>
			<point x="180" y="470" type="line"/>
			<point x="180" y="540" type="line"/>
			<point x="60" y="540" type="line"/>
		</contour>
	</outline>
</glyph>
<glyph name="Lslash" format="2">
	<advance width="600"/>
	<unicode hex="0141"/>
	<guideline x="100" y="331" angle="90"/>
	<guideline x="190" y="331" angle="90"/>
	<outline>
		<contour>
			<point x="50" y="167" type="line"/>
			<point x="64" y="179" type="line"/>
			<point x="100" y="216" type="line"/>
			<point x="190" y="296" type="line"/>
			<point x="226" y="321" type="line"/>
			<point x="392" y="467" type="line"/>
			<point x="392" y="560" type="line"/>
			<point x="226" y="414" type="line"/>
			<point x="190" y="376" type="line"/>
			<point x="100" y="297" type="line"/>
			<point x="64" y="272" type="line"/>
			<point x="50" y="260" type="line"/>
		</contour>
		<contour>
			<point x="160" y="0" type="line"/>
			<point x="510" y="0" type="line"/>
			<point x="510" y="75" type="line"/>
			<point x="160" y="75" type="line"/>
		</contour>
		<contour>
			<point x="100" y="0" type="line"/>
			<point x="184" y="0" type="line"/>
			<point x="184" y="75" type="line"/>
			<point x="190" y="180" type="line"/>
			<point x="190" y="700" type="line"/>
			<point x="100" y="700" type="line"/>
		</contour>
		<contour>
			<point x="425" y="0" type="line"/>
			<point x="510" y="0" type="line"/>
			<point x="510" y="160" type="line"/>
			<point x="420" y="160" type="line"/>
			<point x="420" y="120" type="line"/>
		</contour>
	</outline>
</glyph>
<glyph name="lslash" format="2">
	<advance width="600"/>
	<unicode hex="0142"/>
	<outline>
		<contour>
			<point x="151" y="138" type="line"/>
			<point x="199" y="179" type="line"/>
			<point x="235" y="216" type="line"/>
			<point x="325" y="296" type="line"/>
			<point x="361" y="321" type="line"/>
			<point x="439" y="390" type="line"/>
			<point x="439" y="483" type="line"/>
			<point x="361" y="414" type="line"/>
			<point x="325" y="376" type="line"/>
			<point x="235" y="297" type="line"/>
			<point x="199" y="272" type="line"/>
			<point x="151" y="231" type="line"/>
		</contour>
		<component base="l"/>
	</outline>
</glyph>
<glyph name="Eng" format="2">
	<advance width="600"/>
	<unicode hex="014A"/>
	<outline>
		<contour>
			<point x="85" y="0" type="line"/>
			<point x="175" y="0" type="line"/>
			<point x="175" y="268" type="line"/>
			<point x="151" y="630" type="line"/>
			<point x="181" y="630" type="line"/>
			<point x="360" y="0" type="line"/>
			<point x="515" y="0" type="line"/>
			<point x="515" y="700" type="line"/>
			<point x="425" y="700" type="line"/>
			<point x="425" y="432" type="line"/>
			<point x="449" y="70" type="line"/>
			<point x="419" y="70" type="line"/>
			<point x="240" y="700" type="line"/>
			<point x="85" y="700" type="line"/>
		</contour>
		<contour>
			<point x="351" y="-180" type="line"/>
			<point x="382" y="-180" type="line" smooth="yes"/>
			<point x="468" y="-180"/>
			<point x="515" y="-141"/>
			<point x="515" y="-14" type="curve" smooth="yes"/>
			<point x="515" y="0" type="line"/>
			<point x="449" y="0" type="line"/>
			<point x="449" y="-80"/>
			<point x="432" y="-105"/>
			<point x="382" y="-105" type="curve" smooth="yes"/>
			<point x="351" y="-105" type="line"/>
		</contour>
	</outline>
</glyph>
<glyph name="eng" format="2">
	<advance width="600"/>
	<unicode hex="014B"/>
	<guideline x="382" y="-180" angle="0"/>
	<outline>
		<contour>
			<point x="351" y="-160" type="line"/>
			<point x="382" y="-160" type="line" smooth="yes"/>
			<point x="468" y="-160"/>
			<point x="520" y="-121"/>
			<point x="520" y="-14" type="curve" smooth="yes"/>
			<point x="520" y="0" type="line"/>
			<point x="430" y="0" type="line"/>
			<point x="430" y="-14" type="line" smooth="yes"/>
			<point x="430" y="-63"/>
			<point x="409" y="-85"/>
			<point x="382" y="-85" type="curve" smooth="yes"/>
			<point x="351" y="-85" type="line"/>
		</contour>
		<component base="n"/>
	</outline>
</glyph>
<glyph name="OE" format="2">
	<advance width="600"/>
	<unicode hex="0152"/>
	<outline>
		<contour>
			<point x="30" y="350" type="curve"/>
			<point x="121" y="350" type="line"/>
			<point x="122" y="520"/>
			<point x="159" y="630"/>
			<point x="244" y="630" type="curve" smooth="yes"/>
			<point x="262" y="630"/>
			<point x="282" y="625"/>
			<point x="305" y="605" type="curve"/>
			<point x="305" y="680" type="line"/>
			<point x="273" y="704"/>
			<point x="244" y="711"/>
			<point x="217" y="711" type="curve" smooth="yes"/>
			<point x="95" y="711"/>
			<point x="30" y="568"/>
		</contour>
		<contour>
			<point x="217" y="-11" type="curve" smooth="yes"/>
			<point x="244" y="-11"/>
			<point x="273" y="-4"/>
			<point x="305" y="20" type="curve"/>
			<point x="305" y="95" type="line"/>
			<point x="282" y="75"/>
			<point x="262" y="70"/>
			<point x="244" y="70" type="curve" smooth="yes"/>
			<point x="159" y="70"/>
			<point x="122" y="180"/>
			<point x="121" y="350" type="curve"/>
			<point x="30" y="350" type="line"/>
			<point x="30" y="132"/>
			<point x="95" y="-11"/>
		</contour>
		<contour>
			<point x="340" y="0" type="line"/>
			<point x="570" y="0" type="line"/>
			<point x="570" y="75" type="line"/>
			<point x="340" y="75" type="line"/>
		</contour>
		<contour>
			<point x="311" y="0" type="line"/>
			<point x="389" y="0" type="line"/>
			<point x="389" y="60" type="line"/>
			<point x="395" y="165" type="line"/>
			<point x="395" y="230" type="line"/>
			<point x="389" y="335" type="line"/>
			<point x="389" y="385" type="line"/>
			<point x="395" y="490" type="line"/>
			<point x="395" y="535" type="line"/>
			<point x="389" y="640" type="line"/>
			<point x="389" y="700" type="line"/>
			<point x="311" y="700" type="line"/>
			<point x="305" y="680" type="line"/>
			<point x="305" y="20" type="line"/>
		</contour>
		<contour>
			<point x="340" y="325" type="line"/>
			<point x="550" y="325" type="line"/>
			<point x="550" y="395" type="line"/>
			<point x="340" y="395" type="line"/>
		</contour>
		<contour>
			<point x="340" y="630" type="line"/>
			<point x="560" y="630" type="line"/>
			<point x="560" y="700" type="line"/>
			<point x="340" y="700" type="line"/>
		</contour>
	</outline>
</glyph>
<glyph name="oe" format="2">
	<advance width="600"/>
	<unicode hex="0153"/>
	<guideline x="316" y="400" angle="90"/>
	<outline>
		<contour>
			<point x="424" y="-10" type="curve" smooth="yes"/>
			<point x="494" y="-10"/>
			<point x="554" y="49"/>
			<point x="571" y="165" type="curve"/>
			<point x="486" y="165" type="line"/>
			<point x="486" y="99"/>
			<point x="457" y="65"/>
			<point x="424" y="65" type="curve" smooth="yes"/>
			<point x="385" y="65"/>
			<point x="354" y="111"/>
			<point x="354" y="181" type="curve"/>
			<point x="339" y="256" type="line"/>
			<point x="339" y="321" type="line"/>
			<point x="354" y="396" type="line"/>
			<point x="362" y="452"/>
			<point x="392" y="480"/>
			<point x="422" y="480" type="curve" smooth="yes"/>
			<point x="452" y="480"/>
			<point x="484" y="452"/>
			<point x="486" y="396" type="curve"/>
			<point x="501" y="321" type="line"/>
			<point x="575" y="289" type="line"/>
			<point x="575" y="331" type="line" smooth="yes"/>
			<point x="575" y="454"/>
			<point x="505" y="551"/>
			<point x="422" y="550" type="curve" smooth="yes"/>
			<point x="363" y="549"/>
			<point x="316" y="498"/>
			<point x="316" y="395" type="curve"/>
			<point x="286" y="395" type="line"/>
			<point x="286" y="145" type="line"/>
			<point x="316" y="145" type="line"/>
			<point x="316" y="37"/>
			<point x="362" y="-10"/>
		</contour>
		<contour>
			<point x="182" y="-10" type="curve"/>
			<point x="182" y="65" type="line"/>
			<point x="131" y="65"/>
			<point x="108" y="123"/>
			<point x="110" y="269" type="curve"/>
			<point x="25" y="269" type="line"/>
			<point x="25" y="74"/>
			<point x="95" y="-10"/>
		</contour>
		<contour>
			<point x="182" y="65" type="curve"/>
			<point x="182" y="-10" type="line"/>
			<point x="247" y="-9"/>
			<point x="286" y="37"/>
			<point x="286" y="145" type="curve"/>
			<point x="339" y="269" type="line"/>
			<point x="259" y="269" type="line"/>
			<point x="259" y="124"/>
			<point x="233" y="65"/>
		</contour>
		<contour>
			<point x="25" y="269" type="curve"/>
			<point x="110" y="269" type="line"/>
			<point x="110" y="414"/>
			<point x="131" y="480"/>
			<point x="182" y="480" type="curve"/>
			<point x="182" y="550" type="line"/>
			<point x="95" y="550"/>
			<point x="25" y="464"/>
		</contour>
		<contour>
			<point x="259" y="269" type="curve"/>
			<point x="339" y="269" type="line"/>
			<point x="286" y="395" type="line"/>
			<point x="286" y="502"/>
			<point x="247" y="549"/>
			<point x="182" y="550" type="curve"/>
			<point x="182" y="480" type="line"/>
			<point x="233" y="480"/>
			<point x="259" y="414"/>
		</contour>
		<contour>
			<point x="339" y="256" type="line"/>
			<point x="575" y="256" type="line"/>
			<point x="575" y="321" type="line"/>
			<point x="339" y="321" type="line"/>
		</contour>
	</outline>
</glyph>
<glyph name="uni0162" format="2">
	<advance width="600"/>
	<unicode hex="0162"/>
	<outline>
		<contour>
			<point x="355" y="-146" type="curve"/>
			<point x="425" y="-146" type="line"/>
			<point x="425" y="-91"/>
			<point x="377" y="-54"/>
			<point x="298" y="-54" type="curve" smooth="yes"/>
			<point x="286" y="-54"/>
			<point x="275" y="-57"/>
			<point x="260" y="-62" type="curve"/>
			<point x="253" y="-92" type="line"/>
			<point x="261" y="-91"/>
			<point x="270" y="-90"/>
			<point x="275" y="-90" type="curve" smooth="yes"/>
			<point x="326" y="-90"/>
			<point x="355" y="-112"/>
		</contour>
		<contour>
			<point x="303" y="-245" type="curve"/>
			<point x="303" y="-200" type="line"/>
			<point x="269" y="-200"/>
			<point x="251" y="-178"/>
			<point x="251" y="-146" type="curve"/>
			<point x="181" y="-146" type="line"/>
			<point x="181" y="-202"/>
			<point x="227" y="-245"/>
		</contour>
		<contour>
			<point x="303" y="-200" type="curve"/>
			<point x="303" y="-245" type="line"/>
			<point x="374" y="-245"/>
			<point x="425" y="-202"/>
			<point x="425" y="-146" type="curve"/>
			<point x="355" y="-146" type="line"/>
			<point x="355" y="-178"/>
			<point x="337" y="-200"/>
		</contour>
		<contour>
			<point x="253" y="-92" type="line"/>
			<point x="276" y="-83" type="line"/>
			<point x="303" y="-92" type="line"/>
			<point x="345" y="0" type="line"/>
			<point x="255" y="31" type="line"/>
		</contour>
		<component base="T"/>
	</outline>
</glyph>
<glyph name="Tbar" format="2">
	<advance width="600"/>
	<unicode hex="0166"/>
	<outline>
		<contour>
			<point x="255" y="0" type="line"/>
			<point x="345" y="0" type="line"/>
			<point x="345" y="240" type="line"/>
			<point x="339" y="290" type="line"/>
			<point x="339" y="360" type="line"/>
			<point x="345" y="420" type="line"/>
			<point x="345" y="524" type="line"/>
			<point x="339" y="629" type="line"/>
			<point x="339" y="700" type="line"/>
			<point x="261" y="700" type="line"/>
			<point x="261" y="629" type="line"/>
			<point x="255" y="524" type="line"/>
			<point x="255" y="420" type="line"/>
			<point x="261" y="360" type="line"/>
			<point x="261" y="290" type="line"/>
			<point x="255" y="240" type="line"/>
		</contour>
		<contour>
			<point x="129" y="290" type="line"/>
			<point x="471" y="290" type="line"/>
			<point x="471" y="360" type="line"/>
			<point x="129" y="360" type="line"/>
		</contour>
		<contour>
			<point x="70" y="630" type="line"/>
			<point x="530" y="630" type="line"/>
			<point x="530" y="700" type="line"/>
			<point x="70" y="700" type="line"/>
		</contour>
	</outline>
</glyph>
<glyph name="tbar" format="2">
	<advance width="600"/>
	<unicode hex="0167"/>
	<outline>
		<contour>
			<point x="99" y="285" type="line"/>
			<point x="149" y="285" type="line"/>
			<point x="190" y="292" type="line"/>
			<point x="280" y="292" type="line"/>
			<point x="335" y="285" type="line"/>
			<point x="485" y="285" type="line"/>
			<point x="485" y="355" type="line"/>
			<point x="335" y="355" type="line"/>
			<point x="280" y="349" type="line"/>
			<point x="190" y="349" type="line"/>
			<point x="149" y="355" type="line"/>
			<point x="99" y="355" type="line"/>
		</contour>
		<component base="t"/>
	</outline>
</glyph>
<glyph name="uni0237" format="2">
	<advance width="600"/>
	<unicode hex="0237"/>
	<anchor x="380" y="-200" name="bottom"/>
	<anchor x="380" y="540" name="top"/>
	<outline>
		<contour>
			<point x="335" y="-44" type="line"/>
			<point x="425" y="-14" type="line"/>
			<point x="425" y="306" type="line"/>
			<point x="335" y="306" type="line"/>
		</contour>
		<contour>
			<point x="115" y="-200" type="line"/>
			<point x="261" y="-200" type="line"/>
			<point x="261" y="-125" type="line"/>
			<point x="115" y="-125" type="line"/>
		</contour>
		<contour>
			<point x="261" y="-125" type="curve"/>
			<point x="261" y="-200" type="line"/>
			<point x="347" y="-200"/>
			<point x="425" y="-161"/>
			<point x="425" y="-14" type="curve"/>
			<point x="335" y="-44" type="line"/>
			<point x="334" y="-110"/>
			<point x="302" y="-126"/>
		</contour>
		<contour>
			<point x="115" y="465" type="line"/>
			<point x="386" y="465" type="line"/>
			<point x="386" y="540" type="line"/>
			<point x="115" y="540" type="line"/>
		</contour>
		<contour>
			<point x="335" y="274" type="line"/>
			<point x="425" y="274" type="line"/>
			<point x="425" y="540" type="line"/>
			<point x="341" y="540" type="line"/>
			<point x="341" y="465" type="line"/>
			<point x="335" y="360" type="line"/>
		</contour>
	</outline>
</glyph>
<glyph name="gravecomb" format="2">
	<advance width="0"/>
	<unicode hex="0300"/>
	<anchor x="360" y="700" name="_top"/>
	<anchor x="300" y="915" name="top"/>
	<outline>
		<contour>
			<point x="323" y="760" type="line"/>
			<point x="398" y="760" type="line"/>
			<point x="328" y="915" type="line"/>
			<point x="203" y="915" type="line"/>
		</contour>
	</outline>
</glyph>
<glyph name="acutecomb" format="2">
	<advance width="0"/>
	<unicode hex="0301"/>
	<guideline x="278" y="760" angle="0"/>
	<guideline x="438" y="915" angle="0"/>
	<anchor x="240" y="700" name="_top"/>
	<anchor x="301" y="915" name="top"/>
	<outline>
		<contour>
			<point x="203" y="760" type="line"/>
			<point x="278" y="760" type="line"/>
			<point x="398" y="915" type="line"/>
			<point x="273" y="915" type="line"/>
		</contour>
	</outline>
</glyph>
<glyph name="tildecomb" format="2">
	<advance width="0"/>
	<unicode hex="0303"/>
	<guideline x="156" y="767" angle="0"/>
	<guideline x="322" y="894" angle="0"/>
	<anchor x="299" y="700" name="_top"/>
	<anchor x="303" y="914" name="top"/>
	<outline>
		<contour>
			<point x="383" y="762" type="curve" smooth="yes"/>
			<point x="453" y="762"/>
			<point x="468" y="848"/>
			<point x="457" y="918" type="curve"/>
			<point x="397" y="918" type="line"/>
			<point x="404" y="870"/>
			<point x="396" y="836"/>
			<point x="377" y="836" type="curve" smooth="yes"/>
			<point x="334" y="836"/>
			<point x="294" y="924"/>
			<point x="230" y="924" type="curve" smooth="yes"/>
			<point x="161" y="924"/>
			<point x="140" y="840"/>
			<point x="140" y="767" type="curve"/>
			<point x="201" y="767" type="line"/>
			<point x="201" y="831"/>
			<point x="216" y="849"/>
			<point x="235" y="849" type="curve" smooth="yes"/>
			<point x="278" y="849"/>
			<point x="329" y="762"/>
		</contour>
	</outline>
</glyph>
<glyph name="uni0304" format="2">
	<advance width="0"/>
	<unicode hex="0304"/>
	<anchor x="300" y="700" name="_top"/>
	<anchor x="300" y="860" name="top"/>
	<outline>
		<contour>
			<point x="150" y="800" type="line"/>
			<point x="450" y="800" type="line"/>
			<point x="450" y="860" type="line"/>
			<point x="150" y="860" type="line"/>
		</contour>
	</outline>
</glyph>
<glyph name="uni0306" format="2">
	<advance width="0"/>
	<unicode hex="0306"/>
	<anchor x="300" y="700" name="_top"/>
	<anchor x="300" y="895" name="top"/>
	<outline>
		<contour>
			<point x="300" y="815" type="curve"/>
			<point x="300" y="760" type="line"/>
			<point x="396" y="760"/>
			<point x="442" y="819"/>
			<point x="437" y="895" type="curve"/>
			<point x="352" y="895" type="line"/>
			<point x="357" y="850"/>
			<point x="336" y="815"/>
		</contour>
		<contour>
			<point x="300" y="760" type="curve"/>
			<point x="300" y="815" type="line"/>
			<point x="264" y="815"/>
			<point x="243" y="850"/>
			<point x="248" y="895" type="curve"/>
			<point x="163" y="895" type="line"/>
			<point x="158" y="819"/>
			<point x="204" y="760"/>
		</contour>
	</outline>
</glyph>
<glyph name="uni0307" format="2">
	<advance width="0"/>
	<unicode hex="0307"/>
	<anchor x="300" y="700" name="_top"/>
	<anchor x="300" y="875" name="top"/>
	<outline>
		<contour>
			<point x="250" y="780" type="line"/>
			<point x="350" y="780" type="line"/>
			<point x="350" y="875" type="line"/>
			<point x="250" y="875" type="line"/>
		</contour>
	</outline>
</glyph>
<glyph name="uni0308" format="2">
	<advance width="0"/>
	<unicode hex="0308"/>
	<anchor x="300" y="700" name="_top"/>
	<anchor x="300" y="875" name="top"/>
	<outline>
		<contour>
			<point x="350" y="780" type="line"/>
			<point x="450" y="780" type="line"/>
			<point x="450" y="875" type="line"/>
			<point x="350" y="875" type="line"/>
		</contour>
		<contour>
			<point x="150" y="780" type="line"/>
			<point x="250" y="780" type="line"/>
			<point x="250" y="875" type="line"/>
			<point x="150" y="875" type="line"/>
		</contour>
	</outline>
</glyph>
<glyph name="uni030A" format="2">
	<advance width="0"/>
	<unicode hex="030A"/>
	<anchor x="300" y="700" name="_top"/>
	<anchor x="300" y="923" name="top"/>
	<outline>
		<contour>
			<point x="300" y="747" type="curve"/>
			<point x="356" y="747"/>
			<point x="395" y="783"/>
			<point x="395" y="837" type="curve"/>
			<point x="395" y="891"/>
			<point x="356" y="927"/>
			<point x="300" y="927" type="curve"/>
			<point x="244" y="927"/>
			<point x="205" y="891"/>
			<point x="205" y="837" type="curve"/>
			<point x="205" y="783"/>
			<point x="244" y="747"/>
		</contour>
		<contour>
			<point x="300" y="793" type="curve" smooth="yes"/>
			<point x="271" y="793"/>
			<point x="253" y="811"/>
			<point x="253" y="837" type="curve" smooth="yes"/>
			<point x="253" y="863"/>
			<point x="271" y="881"/>
			<point x="300" y="881" type="curve" smooth="yes"/>
			<point x="329" y="881"/>
			<point x="347" y="863"/>
			<point x="347" y="837" type="curve" smooth="yes"/>
			<point x="347" y="811"/>
			<point x="329" y="793"/>
		</contour>
	</outline>
</glyph>
<glyph name="uni030B" format="2">
	<advance width="0"/>
	<unicode hex="030B"/>
	<guideline x="293" y="915" angle="0"/>
	<guideline x="278" y="760" angle="0"/>
	<anchor x="240" y="700" name="_top"/>
	<anchor x="240" y="945" name="top"/>
	<outline>
		<contour>
			<point x="278" y="760" type="line"/>
			<point x="333" y="760" type="line"/>
			<point x="438" y="945" type="line"/>
			<point x="343" y="945" type="line"/>
		</contour>
		<contour>
			<point x="133" y="760" type="line"/>
			<point x="188" y="760" type="line"/>
			<point x="293" y="945" type="line"/>
			<point x="198" y="945" type="line"/>
		</contour>
	</outline>
</glyph>
<glyph name="uni030C" format="2">
	<advance width="0"/>
	<unicode hex="030C"/>
	<guideline x="457" y="915" angle="0"/>
	<anchor x="300" y="700" name="_top"/>
	<anchor x="300" y="915" name="top"/>
	<outline>
		<contour>
			<point x="278" y="760" type="line"/>
			<point x="342" y="760" type="line"/>
			<point x="457" y="915" type="line"/>
			<point x="357" y="915" type="line"/>
			<point x="305" y="805" type="line"/>
			<point x="295" y="805" type="line"/>
		</contour>
		<contour>
			<point x="258" y="760" type="line"/>
			<point x="322" y="760" type="line"/>
			<point x="305" y="805" type="line"/>
			<point x="295" y="805" type="line"/>
			<point x="243" y="915" type="line"/>
			<point x="143" y="915" type="line"/>
		</contour>
	</outline>
</glyph>
<glyph name="uni0312" format="2">
	<advance width="0"/>
	<unicode hex="0312"/>
	<anchor x="304" y="700" name="_top"/>
	<anchor x="324" y="940" name="top"/>
	<outline>
		<contour>
			<point x="230" y="760" type="line"/>
			<point x="332" y="760" type="line"/>
			<point x="376" y="940" type="line"/>
			<point x="304" y="940" type="line"/>
		</contour>
	</outline>
</glyph>
<glyph name="uni0326" format="2">
	<advance width="0"/>
	<unicode hex="0326"/>
	<anchor x="297" y="0" name="_bottom"/>
	<anchor x="297" y="-240" name="bottom"/>
	<outline>
		<contour>
			<point x="204" y="-240" type="line"/>
			<point x="276" y="-240" type="line"/>
			<point x="350" y="-60" type="line"/>
			<point x="248" y="-60" type="line"/>
		</contour>
	</outline>
</glyph>
<glyph name="uni0327" format="2">
	<advance width="0"/>
	<unicode hex="0327"/>
	<guideline x="253" y="-98" angle="90"/>
	<guideline x="300" y="-245" angle="0"/>
	<anchor x="298" y="0" name="_bottom"/>
	<anchor x="300" y="-245" name="bottom"/>
	<outline>
		<contour>
			<point x="352" y="-146" type="curve"/>
			<point x="422" y="-146" type="line"/>
			<point x="422" y="-91"/>
			<point x="374" y="-54"/>
			<point x="295" y="-54" type="curve" smooth="yes"/>
			<point x="283" y="-54"/>
			<point x="272" y="-57"/>
			<point x="257" y="-62" type="curve"/>
			<point x="250" y="-92" type="line"/>
			<point x="258" y="-91"/>
			<point x="267" y="-90"/>
			<point x="272" y="-90" type="curve" smooth="yes"/>
			<point x="323" y="-90"/>
			<point x="352" y="-112"/>
		</contour>
		<contour>
			<point x="300" y="-245" type="curve"/>
			<point x="300" y="-200" type="line"/>
			<point x="266" y="-200"/>
			<point x="248" y="-178"/>
			<point x="248" y="-146" type="curve"/>
			<point x="178" y="-146" type="line"/>
			<point x="178" y="-202"/>
			<point x="224" y="-245"/>
		</contour>
		<contour>
			<point x="300" y="-200" type="curve"/>
			<point x="300" y="-245" type="line"/>
			<point x="371" y="-245"/>
			<point x="422" y="-202"/>
			<point x="422" y="-146" type="curve"/>
			<point x="352" y="-146" type="line"/>
			<point x="352" y="-178"/>
			<point x="334" y="-200"/>
		</contour>
		<contour>
			<point x="250" y="-92" type="line"/>
			<point x="273" y="-83" type="line"/>
			<point x="300" y="-92" type="line"/>
			<point x="337" y="31" type="line"/>
			<point x="262" y="31" type="line"/>
		</contour>
	</outline>
</glyph>
<glyph name="uni0328" format="2">
	<advance width="0"/>
	<unicode hex="0328"/>
	<anchor x="345" y="0" name="_ogonek"/>
	<outline>
		<contour>
			<point x="288" y="-210" type="curve" smooth="yes"/>
			<point x="337" y="-210"/>
			<point x="385" y="-188"/>
			<point x="425" y="-157" type="curve"/>
			<point x="425" y="-97" type="line"/>
			<point x="239" y="-230"/>
			<point x="185" y="-91"/>
			<point x="345" y="0" type="curve"/>
			<point x="285" y="11" type="line"/>
			<point x="123" y="-80"/>
			<point x="169" y="-210"/>
		</contour>
	</outline>
</glyph>
<glyph name="uni1E9E" format="2">
	<advance width="600"/>
	<unicode hex="1E9E"/>
	<guideline x="180" y="535" angle="0"/>
	<guideline x="174" y="640" angle="0"/>
	<guideline x="275" y="70" angle="90"/>
	<guideline x="342" y="414" angle="0"/>
	<outline>
		<contour>
			<point x="70" y="0" type="line"/>
			<point x="160" y="0" type="line"/>
			<point x="160" y="422" type="line"/>
			<point x="70" y="422" type="line"/>
		</contour>
		<contour>
			<point x="70" y="422" type="curve"/>
			<point x="160" y="422" type="line"/>
			<point x="160" y="560"/>
			<point x="203" y="630"/>
			<point x="275" y="630" type="curve"/>
			<point x="275" y="700" type="line"/>
			<point x="115" y="700"/>
			<point x="70" y="575"/>
		</contour>
		<contour>
			<point x="275" y="0" type="line"/>
			<point x="313" y="0" type="line" smooth="yes"/>
			<point x="467" y="0"/>
			<point x="540" y="101"/>
			<point x="540" y="206" type="curve" smooth="yes"/>
			<point x="540" y="306"/>
			<point x="474" y="383"/>
			<point x="342" y="384" type="curve"/>
			<point x="342" y="414" type="line"/>
			<point x="360" y="414"/>
			<point x="380" y="424"/>
			<point x="413" y="469" type="curve" smooth="yes"/>
			<point x="510" y="600" type="line"/>
			<point x="510" y="700" type="line"/>
			<point x="275" y="700" type="line"/>
			<point x="275" y="630" type="line"/>
			<point x="433" y="630" type="line"/>
			<point x="275" y="425" type="line"/>
			<point x="275" y="355" type="line"/>
			<point x="394" y="355"/>
			<point x="449" y="283"/>
			<point x="449" y="206" type="curve" smooth="yes"/>
			<point x="449" y="136"/>
			<point x="404" y="75"/>
			<point x="313" y="75" type="curve" smooth="yes"/>
			<point x="275" y="75" type="line"/>
		</contour>
	</outline>
</glyph>
<glyph name="endash" format="2">
	<advance width="600"/>
	<unicode hex="2013"/>
	<outline>
		<contour>
			<point x="85" y="265" type="line"/>
			<point x="515" y="265" type="line"/>
			<point x="515" y="335" type="line"/>
			<point x="85" y="335" type="line"/>
		</contour>
	</outline>
</glyph>
<glyph name="quotedblleft" format="2">
	<advance width="600"/>
	<unicode hex="201C"/>
	<outline>
		<contour>
			<point x="305" y="400" type="line"/>
			<point x="430" y="400" type="line"/>
			<point x="490" y="700" type="line"/>
			<point x="420" y="700" type="line"/>
		</contour>
		<contour>
			<point x="105" y="400" type="line"/>
			<point x="230" y="400" type="line"/>
			<point x="290" y="700" type="line"/>
			<point x="220" y="700" type="line"/>
		</contour>
	</outline>
</glyph>
<glyph name="dagger" format="2">
	<advance width="600"/>
	<unicode hex="2020"/>
	<outline>
		<contour>
			<point x="255" y="134" type="line"/>
			<point x="345" y="134" type="line"/>
			<point x="345" y="434" type="line"/>
			<point x="339" y="539" type="line"/>
			<point x="339" y="540" type="line"/>
			<point x="530" y="540" type="line"/>
			<point x="530" y="610" type="line"/>
			<point x="339" y="610" type="line"/>
			<point x="339" y="611" type="line"/>
			<point x="345" y="716" type="line"/>
			<point x="345" y="800" type="line"/>
			<point x="255" y="800" type="line"/>
			<point x="255" y="716" type="line"/>
			<point x="261" y="611" type="line"/>
			<point x="261" y="610" type="line"/>
			<point x="70" y="610" type="line"/>
			<point x="70" y="540" type="line"/>
			<point x="261" y="540" type="line"/>
			<point x="261" y="539" type="line"/>
			<point x="255" y="434" type="line"/>
		</contour>
	</outline>
</glyph>
<glyph name="daggerdbl" format="2">
	<advance width="600"/>
	<unicode hex="2021"/>
	<guideline x="426" y="134" angle="0"/>
	<outline>
		<contour>
			<point x="255" y="134" type="line"/>
			<point x="345" y="134" type="line"/>
			<point x="345" y="218" type="line"/>
			<point x="339" y="323" type="line"/>
			<point x="339" y="324" type="line"/>
			<point x="530" y="324" type="line"/>
			<point x="530" y="394" type="line"/>
			<point x="340" y="394" type="line"/>
			<point x="337" y="467" type="line"/>
			<point x="340" y="540" type="line"/>
			<point x="530" y="540" type="line"/>
			<point x="530" y="610" type="line"/>
			<point x="339" y="610" type="line"/>
			<point x="339" y="611" type="line"/>
			<point x="345" y="716" type="line"/>
			<point x="345" y="800" type="line"/>
			<point x="255" y="800" type="line"/>
			<point x="255" y="716" type="line"/>
			<point x="261" y="611" type="line"/>
			<point x="261" y="610" type="line"/>
			<point x="70" y="610" type="line"/>
			<point x="70" y="540" type="line"/>
			<point x="260" y="540" type="line"/>
			<point x="263" y="467" type="line"/>
			<point x="260" y="394" type="line"/>
			<point x="70" y="394" type="line"/>
			<point x="70" y="324" type="line"/>
			<point x="261" y="324" type="line"/>
			<point x="255" y="218" type="line"/>
		</contour>
	</outline>
</glyph>
<glyph name="guilsinglleft" format="2">
	<advance width="600"/>
	<unicode hex="2039"/>
	<outline>
		<contour>
			<point x="150" y="270" type="line"/>
			<point x="275" y="270" type="line"/>
			<point x="445" y="490" type="line"/>
			<point x="350" y="490" type="line"/>
		</contour>
		<contour>
			<point x="350" y="50" type="line"/>
			<point x="445" y="50" type="line"/>
			<point x="275" y="270" type="line"/>
			<point x="150" y="270" type="line"/>
		</contour>
	</outline>
</glyph>
<glyph name="uni2042" format="2">
	<advance width="600"/>
	<unicode hex="2042"/>
	<outline>
		<contour>
			<point x="249" y="416" type="line"/>
			<point x="276" y="452" type="line"/>
			<point x="293" y="496" type="line"/>
			<point x="308" y="496" type="line"/>
			<point x="325" y="452" type="line"/>
			<point x="351" y="416" type="line"/>
			<point x="388" y="442" type="line"/>
			<point x="361" y="479" type="line"/>
			<point x="322" y="508" type="line"/>
			<point x="328" y="522" type="line"/>
			<point x="376" y="526" type="line"/>
			<point x="419" y="540" type="line"/>
			<point x="405" y="582" type="line"/>
			<point x="362" y="568" type="line"/>
			<point x="321" y="540" type="line"/>
			<point x="309" y="549" type="line"/>
			<point x="323" y="597" type="line"/>
			<point x="323" y="647" type="line"/>
			<point x="278" y="647" type="line"/>
			<point x="278" y="597" type="line"/>
			<point x="291" y="549" type="line"/>
			<point x="279" y="540" type="line"/>
			<point x="238" y="568" type="line"/>
			<point x="195" y="582" type="line"/>
			<point x="181" y="540" type="line"/>
			<point x="224" y="526" type="line"/>
			<point x="273" y="522" type="line"/>
			<point x="279" y="508" type="line"/>
			<point x="239" y="479" type="line"/>
			<point x="213" y="442" type="line"/>
		</contour>
		<contour>
			<point x="98" y="166" type="line"/>
			<point x="125" y="202" type="line"/>
			<point x="142" y="246" type="line"/>
			<point x="157" y="246" type="line"/>
			<point x="174" y="202" type="line"/>
			<point x="200" y="166" type="line"/>
			<point x="237" y="192" type="line"/>
			<point x="210" y="229" type="line"/>
			<point x="171" y="258" type="line"/>
			<point x="177" y="272" type="line"/>
			<point x="225" y="276" type="line"/>
			<point x="268" y="290" type="line"/>
			<point x="254" y="332" type="line"/>
			<point x="211" y="318" type="line"/>
			<point x="170" y="290" type="line"/>
			<point x="158" y="299" type="line"/>
			<point x="172" y="347" type="line"/>
			<point x="172" y="397" type="line"/>
			<point x="127" y="397" type="line"/>
			<point x="127" y="347" type="line"/>
			<point x="140" y="299" type="line"/>
			<point x="128" y="290" type="line"/>
			<point x="87" y="318" type="line"/>
			<point x="44" y="332" type="line"/>
			<point x="30" y="290" type="line"/>
			<point x="73" y="276" type="line"/>
			<point x="122" y="272" type="line"/>
			<point x="128" y="258" type="line"/>
			<point x="88" y="229" type="line"/>
			<point x="62" y="192" type="line"/>
		</contour>
		<contour>
			<point x="400" y="166" type="line"/>
			<point x="427" y="202" type="line"/>
			<point x="444" y="246" type="line"/>
			<point x="459" y="246" type="line"/>
			<point x="476" y="202" type="line"/>
			<point x="502" y="166" type="line"/>
			<point x="539" y="192" type="line"/>
			<point x="512" y="229" type="line"/>
			<point x="473" y="258" type="line"/>
			<point x="479" y="272" type="line"/>
			<point x="527" y="276" type="line"/>
			<point x="570" y="290" type="line"/>
			<point x="556" y="332" type="line"/>
			<point x="513" y="318" type="line"/>
			<point x="472" y="290" type="line"/>
			<point x="460" y="299" type="line"/>
			<point x="474" y="347" type="line"/>
			<point x="474" y="397" type="line"/>
			<point x="429" y="397" type="line"/>
			<point x="429" y="347" type="line"/>
			<point x="442" y="299" type="line"/>
			<point x="430" y="290" type="line"/>
			<point x="389" y="318" type="line"/>
			<point x="346" y="332" type="line"/>
			<point x="332" y="290" type="line"/>
			<point x="375" y="276" type="line"/>
			<point x="424" y="272" type="line"/>
			<point x="430" y="258" type="line"/>
			<point x="390" y="229" type="line"/>
			<point x="364" y="192" type="line"/>
		</contour>
	</outline>
</glyph>
<glyph name="Euro" format="2">
	<advance width="600"/>
	<unicode hex="20AC"/>
	<outline>
		<contour>
			<point x="115" y="350" type="curve"/>
			<point x="207" y="350" type="line"/>
			<point x="207" y="565"/>
			<point x="270" y="640"/>
			<point x="360" y="640" type="curve"/>
			<point x="360" y="710" type="line"/>
			<point x="221" y="710"/>
			<point x="115" y="615"/>
		</contour>
		<contour>
			<point x="360" y="-10" type="curve"/>
			<point x="360" y="65" type="line"/>
			<point x="270" y="65"/>
			<point x="207" y="135"/>
			<point x="207" y="350" type="curve"/>
			<point x="115" y="350" type="line"/>
			<point x="115" y="85"/>
			<point x="221" y="-10"/>
		</contour>
		<contour>
			<point x="360" y="65" type="curve"/>
			<point x="360" y="-10" type="line"/>
			<point x="469" y="-10"/>
			<point x="543" y="46"/>
			<point x="555" y="170" type="curve"/>
			<point x="464" y="170" type="line"/>
			<point x="460" y="97"/>
			<point x="421" y="65"/>
		</contour>
		<contour>
			<point x="50" y="240" type="line"/>
			<point x="66" y="240" type="line"/>
			<point x="121" y="246" type="line"/>
			<point x="197" y="246" type="line"/>
			<point x="252" y="240" type="line"/>
			<point x="480" y="240" type="line"/>
			<point x="480" y="310" type="line"/>
			<point x="252" y="310" type="line"/>
			<point x="197" y="304" type="line"/>
			<point x="121" y="304" type="line"/>
			<point x="66" y="310" type="line"/>
			<point x="50" y="310" type="line"/>
		</contour>
		<contour>
			<point x="50" y="390" type="line"/>
			<point x="66" y="390" type="line"/>
			<point x="121" y="396" type="line"/>
			<point x="197" y="396" type="line"/>
			<point x="252" y="390" type="line"/>
			<point x="480" y="390" type="line"/>
			<point x="480" y="460" type="line"/>
			<point x="252" y="460" type="line"/>
			<point x="197" y="454" type="line"/>
			<point x="121" y="454" type="line"/>
			<point x="66" y="460" type="line"/>
			<point x="50" y="460" type="line"/>
		</contour>
		<contour>
			<point x="455" y="572" type="curve"/>
			<point x="548" y="572" type="line"/>
			<point x="532" y="661"/>
			<point x="463" y="710"/>
			<point x="360" y="710" type="curve"/>
			<point x="360" y="640" type="line"/>
			<point x="413" y="640"/>
			<point x="448" y="615"/>
		</contour>
	</outline>
</glyph>
<glyph name="uni2117" format="2">
	<advance width="600"/>
	<unicode hex="2117"/>
	<outline>
		<contour>
			<point x="300" y="100" type="curve" smooth="yes"/>
			<point x="465" y="100"/>
			<point x="576" y="236"/>
			<point x="576" y="410" type="curve" smooth="yes"/>
			<point x="576" y="584"/>
			<point x="465" y="720"/>
			<point x="300" y="720" type="curve" smooth="yes"/>
			<point x="135" y="720"/>
			<point x="24" y="584"/>
			<point x="24" y="410" type="curve" smooth="yes"/>
			<point x="24" y="236"/>
			<point x="135" y="100"/>
		</contour>
		<contour>
			<point x="198" y="241" type="line"/>
			<point x="258" y="241" type="line"/>
			<point x="258" y="311" type="line"/>
			<point x="252" y="361" type="line"/>
			<point x="252" y="392" type="line"/>
			<point x="198" y="392" type="line"/>
		</contour>
		<contour>
			<point x="198" y="367" type="line"/>
			<point x="252" y="368" type="line"/>
			<point x="252" y="397" type="line"/>
			<point x="258" y="447" type="line"/>
			<point x="258" y="453" type="line"/>
			<point x="198" y="453" type="line"/>
		</contour>
		<contour>
			<point x="300" y="170" type="curve" smooth="yes"/>
			<point x="175" y="170"/>
			<point x="94" y="276"/>
			<point x="94" y="410" type="curve" smooth="yes"/>
			<point x="94" y="544"/>
			<point x="175" y="650"/>
			<point x="300" y="650" type="curve" smooth="yes"/>
			<point x="425" y="650"/>
			<point x="506" y="544"/>
			<point x="506" y="410" type="curve" smooth="yes"/>
			<point x="506" y="276"/>
			<point x="425" y="170"/>
		</contour>
		<contour>
			<point x="198" y="453" type="line"/>
			<point x="258" y="453" type="line"/>
			<point x="258" y="498" type="line"/>
			<point x="252" y="548" type="line"/>
			<point x="252" y="584" type="line"/>
			<point x="198" y="584" type="line"/>
		</contour>
		<contour>
			<point x="208" y="358" type="line"/>
			<point x="309" y="358" type="line" smooth="yes"/>
			<point x="384" y="358"/>
			<point x="430" y="403"/>
			<point x="430" y="473" type="curve" smooth="yes"/>
			<point x="430" y="547"/>
			<point x="376" y="584"/>
			<point x="310" y="584" type="curve" smooth="yes"/>
			<point x="208" y="584" type="line"/>
			<point x="208" y="540" type="line"/>
			<point x="291" y="540" type="line" smooth="yes"/>
			<point x="351" y="540"/>
			<point x="370" y="515"/>
			<point x="370" y="473" type="curve" smooth="yes"/>
			<point x="370" y="425"/>
			<point x="346" y="402"/>
			<point x="287" y="402" type="curve" smooth="yes"/>
			<point x="208" y="402" type="line"/>
		</contour>
	</outline>
</glyph>
<glyph name="trademark" format="2">
	<advance width="600"/>
	<unicode hex="2122"/>
	<guideline x="30" y="710" angle="0"/>
	<outline>
		<contour>
			<point x="307" y="367" type="line"/>
			<point x="367" y="367" type="line"/>
			<point x="367" y="486" type="line"/>
			<point x="340" y="675" type="line"/>
			<point x="370" y="675" type="line"/>
			<point x="396" y="498" type="line"/>
			<point x="476" y="498" type="line"/>
			<point x="502" y="675" type="line"/>
			<point x="532" y="675" type="line"/>
			<point x="505" y="486" type="line"/>
			<point x="505" y="367" type="line"/>
			<point x="565" y="367" type="line"/>
			<point x="565" y="710" type="line"/>
			<point x="476" y="710" type="line"/>
			<point x="451" y="532" type="line"/>
			<point x="421" y="532" type="line"/>
			<point x="396" y="710" type="line"/>
			<point x="307" y="710" type="line"/>
		</contour>
		<contour>
			<point x="113" y="367" type="line"/>
			<point x="173" y="367" type="line"/>
			<point x="173" y="610" type="line"/>
			<point x="167" y="660" type="line"/>
			<point x="167" y="710" type="line"/>
			<point x="119" y="710" type="line"/>
			<point x="119" y="660" type="line"/>
			<point x="113" y="610" type="line"/>
		</contour>
		<contour>
			<point x="30" y="660" type="line"/>
			<point x="256" y="660" type="line"/>
			<point x="256" y="710" type="line"/>
			<point x="30" y="710" type="line"/>
		</contour>
	</outline>
</glyph>
<glyph name="arrowleft" format="2">
	<advance width="600"/>
	<unicode hex="2190"/>
	<outline>
		<contour>
			<point x="105" y="345" type="line"/>
			<point x="175" y="345" type="line"/>
			<point x="175" y="363" type="line"/>
			<point x="495" y="558" type="line"/>
			<point x="448" y="637" type="line"/>
			<point x="105" y="400" type="line"/>
		</contour>
		<contour>
			<point x="448" y="63" type="line"/>
			<point x="495" y="142" type="line"/>
			<point x="175" y="337" type="line"/>
			<point x="175" y="355" type="line"/>
			<point x="105" y="355" type="line"/>
			<point x="105" y="300" type="line"/>
		</contour>
	</outline>
</glyph>
<glyph name="arrowdown" format="2">
	<advance width="600"/>
	<unicode hex="2193"/>
	<outline>
		<contour>
			<point x="295" y="125" type="line"/>
			<point x="350" y="125" type="line"/>
			<point x="592" y="518" type="line"/>
			<point x="513" y="565" type="line"/>
			<point x="313" y="195" type="line"/>
			<point x="295" y="195" type="line"/>
		</contour>
		<contour>
			<point x="250" y="125" type="line"/>
			<point x="305" y="125" type="line"/>
			<point x="305" y="195" type="line"/>
			<point x="287" y="195" type="line"/>
			<point x="87" y="565" type="line"/>
			<point x="8" y="518" type="line"/>
		</contour>
	</outline>
</glyph>
<glyph name="uni21BA" format="2">
	<advance width="600"/>
	<unicode hex="21BA"/>
	<outline>
		<contour>
			<point x="310" y="50" type="curve" smooth="yes"/>
			<point x="505" y="50"/>
			<point x="600" y="201"/>
			<point x="600" y="351" type="curve" smooth="yes"/>
			<point x="600" y="500"/>
			<point x="507" y="649"/>
			<point x="310" y="649" type="curve" smooth="yes"/>
			<point x="173" y="649"/>
			<point x="66" y="542"/>
			<point x="65" y="375" type="curve"/>
			<point x="122" y="363" type="line"/>
			<point x="146" y="475"/>
			<point x="208" y="559"/>
			<point x="303" y="559" type="curve" smooth="yes"/>
			<point x="440" y="559"/>
			<point x="509" y="454"/>
			<point x="509" y="349" type="curve" smooth="yes"/>
			<point x="509" y="245"/>
			<point x="440" y="140"/>
			<point x="303" y="140" type="curve" smooth="yes"/>
			<point x="231" y="140"/>
			<point x="170" y="180"/>
			<point x="130" y="239" type="curve"/>
			<point x="67" y="180" type="line"/>
			<point x="124" y="105"/>
			<point x="215" y="50"/>
		</contour>
		<contour>
			<point x="63" y="290" type="line"/>
			<point x="262" y="432" type="line"/>
			<point x="0" y="527" type="line"/>
		</contour>
	</outline>
</glyph>
<glyph name="uni21D7" format="2">
	<advance width="600"/>
	<unicode hex="21D7"/>
	<outline>
		<contour>
			<point x="342" y="0" type="curve"/>
			<point x="381" y="-2"/>
			<point x="434" y="12"/>
			<point x="475" y="37" type="curve"/>
			<point x="495" y="57"/>
			<point x="514" y="82"/>
			<point x="518" y="98" type="curve"/>
			<point x="381" y="257" type="line"/>
			<point x="362" y="257"/>
			<point x="346" y="250"/>
			<point x="328" y="240" type="curve"/>
			<point x="318" y="225"/>
			<point x="311" y="212"/>
			<point x="306" y="198" type="curve"/>
			<point x="287" y="198" type="line"/>
			<point x="256" y="221"/>
			<point x="225" y="257"/>
			<point x="193" y="307" type="curve" smooth="yes"/>
			<point x="165" y="357"/>
			<point x="153" y="403"/>
			<point x="146" y="440" type="curve"/>
			<point x="156" y="457" type="line"/>
			<point x="170" y="457"/>
			<point x="187" y="456"/>
			<point x="203" y="457" type="curve"/>
			<point x="220" y="467"/>
			<point x="236" y="478"/>
			<point x="245" y="493" type="curve"/>
			<point x="175" y="692" type="line"/>
			<point x="161" y="696"/>
			<point x="137" y="698"/>
			<point x="109" y="690" type="curve"/>
			<point x="61" y="659"/>
			<point x="17" y="618"/>
			<point x="1" y="587" type="curve"/>
			<point x="-22" y="493"/>
			<point x="9" y="353"/>
			<point x="76" y="237" type="curve" smooth="yes"/>
			<point x="143" y="123"/>
			<point x="246" y="28"/>
		</contour>
		<contour>
			<point x="306" y="340" type="line"/>
			<point x="576" y="549" type="line"/>
			<point x="556" y="578" type="line"/>
			<point x="267" y="395" type="line"/>
		</contour>
		<contour>
			<point x="551" y="352" type="line"/>
			<point x="603" y="594" type="line"/>
			<point x="362" y="622" type="line"/>
		</contour>
	</outline>
</glyph>
<glyph name="uni21FA" format="2">
	<advance width="600"/>
	<unicode hex="21FA"/>
	<outline>
		<contour>
			<point x="267" y="265" type="line"/>
			<point x="397" y="265" type="line"/>
			<point x="587" y="530" type="line"/>
			<point x="447" y="530" type="line"/>
		</contour>
		<contour>
			<point x="193" y="0" type="line"/>
			<point x="333" y="0" type="line"/>
			<point x="143" y="265" type="line"/>
			<point x="13" y="265" type="line"/>
		</contour>
		<contour>
			<point x="447" y="0" type="line"/>
			<point x="587" y="0" type="line"/>
			<point x="397" y="265" type="line"/>
			<point x="267" y="265" type="line"/>
		</contour>
		<contour>
			<point x="13" y="265" type="line"/>
			<point x="143" y="265" type="line"/>
			<point x="333" y="530" type="line"/>
			<point x="193" y="530" type="line"/>
		</contour>
	</outline>
</glyph>
<glyph name="approxequal" format="2">
	<advance width="600"/>
	<unicode hex="2248"/>
	<guideline x="223" y="167" angle="0"/>
	<outline>
		<contour>
			<point x="95" y="406" type="curve"/>
			<point x="95" y="336" type="line"/>
			<point x="130" y="374"/>
			<point x="164" y="391"/>
			<point x="201" y="391" type="curve" smooth="yes"/>
			<point x="267" y="391"/>
			<point x="300" y="337"/>
			<point x="385" y="337" type="curve" smooth="yes"/>
			<point x="439" y="337"/>
			<point x="486" y="359"/>
			<point x="505" y="394" type="curve"/>
			<point x="505" y="464" type="line"/>
			<point x="473" y="429"/>
			<point x="434" y="407"/>
			<point x="392" y="407" type="curve" smooth="yes"/>
			<point x="321" y="407"/>
			<point x="283" y="461"/>
			<point x="203" y="461" type="curve" smooth="yes"/>
			<point x="159" y="461"/>
			<point x="127" y="448"/>
		</contour>
		<contour>
			<point x="95" y="236" type="curve"/>
			<point x="95" y="166" type="line"/>
			<point x="130" y="204"/>
			<point x="164" y="221"/>
			<point x="201" y="221" type="curve" smooth="yes"/>
			<point x="267" y="221"/>
			<point x="300" y="167"/>
			<point x="385" y="167" type="curve" smooth="yes"/>
			<point x="439" y="167"/>
			<point x="486" y="189"/>
			<point x="505" y="224" type="curve"/>
			<point x="505" y="294" type="line"/>
			<point x="473" y="259"/>
			<point x="434" y="237"/>
			<point x="392" y="237" type="curve" smooth="yes"/>
			<point x="321" y="237"/>
			<point x="283" y="291"/>
			<point x="203" y="291" type="curve" smooth="yes"/>
			<point x="159" y="291"/>
			<point x="127" y="278"/>
		</contour>
	</outline>
</glyph>
<glyph name="notequal" format="2">
	<advance width="600"/>
	<unicode hex="2260"/>
	<outline>
		<contour>
			<point x="197" y="50" type="line"/>
			<point x="269" y="50" type="line"/>
			<point x="285" y="110" type="line"/>
			<point x="293" y="165" type="line"/>
			<point x="312" y="235" type="line"/>
			<point x="333" y="290" type="line"/>
			<point x="338" y="310" type="line"/>
			<point x="347" y="365" type="line"/>
			<point x="366" y="435" type="line"/>
			<point x="387" y="490" type="line"/>
			<point x="403" y="550" type="line"/>
			<point x="331" y="550" type="line"/>
			<point x="315" y="490" type="line"/>
			<point x="306" y="435" type="line"/>
			<point x="287" y="365" type="line"/>
			<point x="266" y="310" type="line"/>
			<point x="261" y="290" type="line"/>
			<point x="252" y="235" type="line"/>
			<point x="233" y="165" type="line"/>
			<point x="213" y="110" type="line"/>
		</contour>
		<contour>
			<point x="95" y="165" type="line"/>
			<point x="505" y="165" type="line"/>
			<point x="505" y="235" type="line"/>
			<point x="95" y="235" type="line"/>
		</contour>
		<contour>
			<point x="95" y="365" type="line"/>
			<point x="505" y="365" type="line"/>
			<point x="505" y="435" type="line"/>
			<point x="95" y="435" type="line"/>
		</contour>
	</outline>
</glyph>
<glyph name="lessequal" format="2">
	<advance width="600"/>
	<unicode hex="2264"/>
	<guideline x="168" y="300" angle="0"/>
	<outline>
		<contour>
			<point x="100" y="412" type="line"/>
			<point x="170" y="412" type="line"/>
			<point x="170" y="430" type="line"/>
			<point x="500" y="515" type="line"/>
			<point x="469" y="599" type="line"/>
			<point x="100" y="467" type="line"/>
		</contour>
		<contour>
			<point x="95" y="102" type="line"/>
			<point x="505" y="102" type="line"/>
			<point x="505" y="172" type="line"/>
			<point x="95" y="172" type="line"/>
		</contour>
		<contour>
			<point x="469" y="235" type="line"/>
			<point x="500" y="319" type="line"/>
			<point x="170" y="404" type="line"/>
			<point x="170" y="422" type="line"/>
			<point x="100" y="422" type="line"/>
			<point x="100" y="367" type="line"/>
		</contour>
	</outline>
</glyph>
<glyph name="uni2328" format="2">
	<advance width="600"/>
	<unicode hex="2328"/>
	<outline>
		<contour>
			<point x="492" y="336" type="line"/>
			<point x="575" y="336" type="line"/>
			<point x="575" y="382" type="line" smooth="yes"/>
			<point x="575" y="418"/>
			<point x="565" y="427"/>
			<point x="525" y="427" type="curve" smooth="yes"/>
			<point x="492" y="427" type="line"/>
		</contour>
		<contour>
			<point x="75" y="75" type="curve" smooth="yes"/>
			<point x="108" y="75" type="line"/>
			<point x="108" y="165" type="line"/>
			<point x="25" y="165" type="line"/>
			<point x="25" y="120" type="line" smooth="yes"/>
			<point x="25" y="84"/>
			<point x="35" y="75"/>
		</contour>
		<contour>
			<point x="25" y="183" type="curve" smooth="yes"/>
			<point x="25" y="138" type="line"/>
			<point x="108" y="138" type="line"/>
			<point x="108" y="228" type="line"/>
			<point x="75" y="228" type="line" smooth="yes"/>
			<point x="35" y="228"/>
			<point x="25" y="219"/>
		</contour>
		<contour>
			<point x="92" y="75" type="line"/>
			<point x="125" y="75" type="line" smooth="yes"/>
			<point x="165" y="75"/>
			<point x="175" y="84"/>
			<point x="175" y="120" type="curve" smooth="yes"/>
			<point x="175" y="165" type="line"/>
			<point x="92" y="165" type="line"/>
		</contour>
		<contour>
			<point x="92" y="138" type="line"/>
			<point x="175" y="138" type="line"/>
			<point x="175" y="183" type="line" smooth="yes"/>
			<point x="175" y="219"/>
			<point x="165" y="228"/>
			<point x="125" y="228" type="curve" smooth="yes"/>
			<point x="92" y="228" type="line"/>
		</contour>
		<contour>
			<point x="75" y="273" type="curve" smooth="yes"/>
			<point x="108" y="273" type="line"/>
			<point x="108" y="364" type="line"/>
			<point x="25" y="364" type="line"/>
			<point x="25" y="318" type="line" smooth="yes"/>
			<point x="25" y="282"/>
			<point x="35" y="273"/>
		</contour>
		<contour>
			<point x="275" y="75" type="curve" smooth="yes"/>
			<point x="308" y="75" type="line"/>
			<point x="308" y="165" type="line"/>
			<point x="225" y="165" type="line"/>
			<point x="225" y="120" type="line" smooth="yes"/>
			<point x="225" y="84"/>
			<point x="235" y="75"/>
		</contour>
		<contour>
			<point x="25" y="382" type="curve" smooth="yes"/>
			<point x="25" y="336" type="line"/>
			<point x="108" y="336" type="line"/>
			<point x="108" y="427" type="line"/>
			<point x="75" y="427" type="line" smooth="yes"/>
			<point x="35" y="427"/>
			<point x="25" y="418"/>
		</contour>
		<contour>
			<point x="225" y="183" type="curve" smooth="yes"/>
			<point x="225" y="138" type="line"/>
			<point x="308" y="138" type="line"/>
			<point x="308" y="228" type="line"/>
			<point x="275" y="228" type="line" smooth="yes"/>
			<point x="235" y="228"/>
			<point x="225" y="219"/>
		</contour>
		<contour>
			<point x="92" y="273" type="line"/>
			<point x="125" y="273" type="line" smooth="yes"/>
			<point x="165" y="273"/>
			<point x="175" y="282"/>
			<point x="175" y="318" type="curve" smooth="yes"/>
			<point x="175" y="364" type="line"/>
			<point x="92" y="364" type="line"/>
		</contour>
		<contour>
			<point x="292" y="75" type="line"/>
			<point x="325" y="75" type="line" smooth="yes"/>
			<point x="365" y="75"/>
			<point x="375" y="84"/>
			<point x="375" y="120" type="curve" smooth="yes"/>
			<point x="375" y="165" type="line"/>
			<point x="292" y="165" type="line"/>
		</contour>
		<contour>
			<point x="92" y="336" type="line"/>
			<point x="175" y="336" type="line"/>
			<point x="175" y="382" type="line" smooth="yes"/>
			<point x="175" y="418"/>
			<point x="165" y="427"/>
			<point x="125" y="427" type="curve" smooth="yes"/>
			<point x="92" y="427" type="line"/>
		</contour>
		<contour>
			<point x="292" y="138" type="line"/>
			<point x="375" y="138" type="line"/>
			<point x="375" y="183" type="line" smooth="yes"/>
			<point x="375" y="219"/>
			<point x="365" y="228"/>
			<point x="325" y="228" type="curve" smooth="yes"/>
			<point x="292" y="228" type="line"/>
		</contour>
		<contour>
			<point x="75" y="472" type="curve" smooth="yes"/>
			<point x="108" y="472" type="line"/>
			<point x="108" y="562" type="line"/>
			<point x="25" y="562" type="line"/>
			<point x="25" y="517" type="line" smooth="yes"/>
			<point x="25" y="481"/>
			<point x="35" y="472"/>
		</contour>
		<contour>
			<point x="275" y="273" type="curve" smooth="yes"/>
			<point x="308" y="273" type="line"/>
			<point x="308" y="364" type="line"/>
			<point x="225" y="364" type="line"/>
			<point x="225" y="318" type="line" smooth="yes"/>
			<point x="225" y="282"/>
			<point x="235" y="273"/>
		</contour>
		<contour>
			<point x="475" y="75" type="curve" smooth="yes"/>
			<point x="508" y="75" type="line"/>
			<point x="508" y="165" type="line"/>
			<point x="425" y="165" type="line"/>
			<point x="425" y="120" type="line" smooth="yes"/>
			<point x="425" y="84"/>
			<point x="435" y="75"/>
		</contour>
		<contour>
			<point x="25" y="580" type="curve" smooth="yes"/>
			<point x="25" y="535" type="line"/>
			<point x="108" y="535" type="line"/>
			<point x="108" y="625" type="line"/>
			<point x="75" y="625" type="line" smooth="yes"/>
			<point x="35" y="625"/>
			<point x="25" y="616"/>
		</contour>
		<contour>
			<point x="225" y="382" type="curve" smooth="yes"/>
			<point x="225" y="336" type="line"/>
			<point x="308" y="336" type="line"/>
			<point x="308" y="427" type="line"/>
			<point x="275" y="427" type="line" smooth="yes"/>
			<point x="235" y="427"/>
			<point x="225" y="418"/>
		</contour>
		<contour>
			<point x="425" y="183" type="curve" smooth="yes"/>
			<point x="425" y="138" type="line"/>
			<point x="508" y="138" type="line"/>
			<point x="508" y="228" type="line"/>
			<point x="475" y="228" type="line" smooth="yes"/>
			<point x="435" y="228"/>
			<point x="425" y="219"/>
		</contour>
		<contour>
			<point x="92" y="472" type="line"/>
			<point x="125" y="472" type="line" smooth="yes"/>
			<point x="165" y="472"/>
			<point x="175" y="481"/>
			<point x="175" y="517" type="curve" smooth="yes"/>
			<point x="175" y="562" type="line"/>
			<point x="92" y="562" type="line"/>
		</contour>
		<contour>
			<point x="292" y="273" type="line"/>
			<point x="325" y="273" type="line" smooth="yes"/>
			<point x="365" y="273"/>
			<point x="375" y="282"/>
			<point x="375" y="318" type="curve" smooth="yes"/>
			<point x="375" y="364" type="line"/>
			<point x="292" y="364" type="line"/>
		</contour>
		<contour>
			<point x="492" y="75" type="line"/>
			<point x="525" y="75" type="line" smooth="yes"/>
			<point x="565" y="75"/>
			<point x="575" y="84"/>
			<point x="575" y="120" type="curve" smooth="yes"/>
			<point x="575" y="165" type="line"/>
			<point x="492" y="165" type="line"/>
		</contour>
		<contour>
			<point x="92" y="535" type="line"/>
			<point x="175" y="535" type="line"/>
			<point x="175" y="580" type="line" smooth="yes"/>
			<point x="175" y="616"/>
			<point x="165" y="625"/>
			<point x="125" y="625" type="curve" smooth="yes"/>
			<point x="92" y="625" type="line"/>
		</contour>
		<contour>
			<point x="292" y="336" type="line"/>
			<point x="375" y="336" type="line"/>
			<point x="375" y="382" type="line" smooth="yes"/>
			<point x="375" y="418"/>
			<point x="365" y="427"/>
			<point x="325" y="427" type="curve" smooth="yes"/>
			<point x="292" y="427" type="line"/>
		</contour>
		<contour>
			<point x="492" y="138" type="line"/>
			<point x="575" y="138" type="line"/>
			<point x="575" y="183" type="line" smooth="yes"/>
			<point x="575" y="219"/>
			<point x="565" y="228"/>
			<point x="525" y="228" type="curve" smooth="yes"/>
			<point x="492" y="228" type="line"/>
		</contour>
		<contour>
			<point x="275" y="472" type="curve" smooth="yes"/>
			<point x="308" y="472" type="line"/>
			<point x="308" y="562" type="line"/>
			<point x="225" y="562" type="line"/>
			<point x="225" y="517" type="line" smooth="yes"/>
			<point x="225" y="481"/>
			<point x="235" y="472"/>
		</contour>
		<contour>
			<point x="475" y="273" type="curve" smooth="yes"/>
			<point x="508" y="273" type="line"/>
			<point x="508" y="364" type="line"/>
			<point x="425" y="364" type="line"/>
			<point x="425" y="318" type="line" smooth="yes"/>
			<point x="425" y="282"/>
			<point x="435" y="273"/>
		</contour>
		<contour>
			<point x="225" y="580" type="curve" smooth="yes"/>
			<point x="225" y="535" type="line"/>
			<point x="308" y="535" type="line"/>
			<point x="308" y="625" type="line"/>
			<point x="275" y="625" type="line" smooth="yes"/>
			<point x="235" y="625"/>
			<point x="225" y="616"/>
		</contour>
		<contour>
			<point x="425" y="382" type="curve" smooth="yes"/>
			<point x="425" y="336" type="line"/>
			<point x="508" y="336" type="line"/>
			<point x="508" y="427" type="line"/>
			<point x="475" y="427" type="line" smooth="yes"/>
			<point x="435" y="427"/>
			<point x="425" y="418"/>
		</contour>
		<contour>
			<point x="292" y="472" type="line"/>
			<point x="325" y="472" type="line" smooth="yes"/>
			<point x="365" y="472"/>
			<point x="375" y="481"/>
			<point x="375" y="517" type="curve" smooth="yes"/>
			<point x="375" y="562" type="line"/>
			<point x="292" y="562" type="line"/>
		</contour>
		<contour>
			<point x="492" y="273" type="line"/>
			<point x="525" y="273" type="line" smooth="yes"/>
			<point x="565" y="273"/>
			<point x="575" y="282"/>
			<point x="575" y="318" type="curve" smooth="yes"/>
			<point x="575" y="364" type="line"/>
			<point x="492" y="364" type="line"/>
		</contour>
		<contour>
			<point x="292" y="535" type="line"/>
			<point x="375" y="535" type="line"/>
			<point x="375" y="580" type="line" smooth="yes"/>
			<point x="375" y="616"/>
			<point x="365" y="625"/>
			<point x="325" y="625" type="curve" smooth="yes"/>
			<point x="292" y="625" type="line"/>
		</contour>
		<contour>
			<point x="475" y="472" type="curve" smooth="yes"/>
			<point x="508" y="472" type="line"/>
			<point x="508" y="562" type="line"/>
			<point x="425" y="562" type="line"/>
			<point x="425" y="517" type="line" smooth="yes"/>
			<point x="425" y="481"/>
			<point x="435" y="472"/>
		</contour>
		<contour>
			<point x="425" y="580" type="curve" smooth="yes"/>
			<point x="425" y="535" type="line"/>
			<point x="508" y="535" type="line"/>
			<point x="508" y="625" type="line"/>
			<point x="475" y="625" type="line" smooth="yes"/>
			<point x="435" y="625"/>
			<point x="425" y="616"/>
		</contour>
		<contour>
			<point x="492" y="472" type="line"/>
			<point x="525" y="472" type="line" smooth="yes"/>
			<point x="565" y="472"/>
			<point x="575" y="481"/>
			<point x="575" y="517" type="curve" smooth="yes"/>
			<point x="575" y="562" type="line"/>
			<point x="492" y="562" type="line"/>
		</contour>
		<contour>
			<point x="492" y="535" type="line"/>
			<point x="575" y="535" type="line"/>
			<point x="575" y="580" type="line" smooth="yes"/>
			<point x="575" y="616"/>
			<point x="565" y="625"/>
			<point x="525" y="625" type="curve" smooth="yes"/>
			<point x="492" y="625" type="line"/>
		</contour>
	</outline>
</glyph>
